<?xml version="1.0" encoding="UTF-8"?>
<svg id="Calque_1" xmlns="http://www.w3.org/2000/svg" version="1.1" viewBox="0 0 1920 1080">
  <!-- Generator: Adobe Illustrator 30.2.1, SVG Export Plug-In . SVG Version: 2.1.1 Build 1)  -->
  <defs>
    <style>
      .st0 {
        fill: #d16b6b;
      }
    </style>
  </defs>
  <rect class="st0" x="36" y="171" width="266" height="211" rx="24" ry="24"/>
  <rect class="st0" x="324" y="45" width="266" height="337" rx="24" ry="24"/>
  <rect class="st0" x="391" y="404" width="266" height="337" rx="24" ry="24"/>
  <rect class="st0" x="676" y="404" width="273" height="279" rx="24" ry="24"/>
  <rect class="st0" x="1618" y="106" width="266" height="283" rx="24" ry="24"/>
  <rect class="st0" x="1618" y="411" width="266" height="337" rx="24" ry="24"/>
  <rect class="st0" x="971" y="52" width="266" height="391" rx="24" ry="24"/>
  <rect class="st0" x="612" y="99" width="337" height="283" rx="24" ry="24"/>
  <rect class="st0" x="35" y="404" width="337" height="201" rx="24" ry="24"/>
  <rect class="st0" x="1259" y="213" width="337" height="268" rx="24" ry="24"/>
  <rect class="st0" x="1259" y="503" width="337" height="266" rx="24" ry="24"/>
</svg>