<svg width="47" height="47" viewBox="0 0 47 47" fill="none" xmlns="http://www.w3.org/2000/svg">
<rect x="47" y="2.05444e-06" width="47" height="47" rx="23.5" transform="rotate(90 47 2.05444e-06)" fill="#ECC5FE"/>
<path d="M34.3428 23.5C34.3428 29.4883 29.4883 34.3428 23.5 34.3428C17.5117 34.3428 12.6572 29.4883 12.6572 23.5C12.6572 17.5117 17.5117 12.6572 23.5 12.6572C29.4883 12.6572 34.3428 17.5117 34.3428 23.5ZM26.6309 23.8457C26.8208 23.6557 26.8208 23.3472 26.6309 23.1572C26.4409 22.9672 26.1324 22.9673 25.9424 23.1572L23.6768 25.4238L23.6768 20.0918C23.6765 19.8233 23.4589 19.6056 23.1904 19.6055C22.9218 19.6055 22.7043 19.8233 22.7041 20.0918L22.7041 25.4238L20.4375 23.1572C20.2475 22.9676 19.9399 22.9675 19.75 23.1572C19.56 23.3472 19.56 23.6557 19.75 23.8457L22.8457 26.9424C23.0356 27.1323 23.3442 27.1321 23.5342 26.9424L26.6309 23.8457Z" fill="black"/>
</svg>
