<svg width="613" height="884" viewBox="0 0 613 884" fill="none" xmlns="http://www.w3.org/2000/svg">
<path d="M0 52.0011C0 23.2823 23.2811 0.00112424 51.9999 0.00104171L361.5 0.000152305C390.771 6.81895e-05 414.5 23.729 414.5 53.0002V70.0008C414.5 142.35 473.15 201 545.499 201.001L560 201.001C589.271 201.001 613 224.73 613 254.001V872.001C613 878.629 607.627 884.001 601 884.001H12C5.37257 884.001 0 878.629 0 872.001V52.0011Z" fill="#DDEEF8"/>
<rect x="451" width="162" height="162" rx="81" fill="#DDEEF8"/>
<path d="M530.882 106.5V68.7263H518.634V61.6141C525.272 61.3771 531.199 58.9273 532.305 51.9732H541.709V106.5H530.882Z" fill="#4180E0"/>
<g opacity="0.3">
<circle cx="1.47356" cy="1.47356" r="1.47356" transform="matrix(1 0 0 -1 26.5234 218.734)" fill="#3F0065" fill-opacity="0.25"/>
<circle cx="1.47356" cy="1.47356" r="1.47356" transform="matrix(1 0 0 -1 82.5156 218.734)" fill="#3F0065" fill-opacity="0.25"/>
<circle cx="1.47356" cy="1.47356" r="1.47356" transform="matrix(1 0 0 -1 138.516 218.734)" fill="#3F0065" fill-opacity="0.25"/>
<circle cx="1.47356" cy="1.47356" r="1.47356" transform="matrix(1 0 0 -1 193.039 218.734)" fill="#3F0065" fill-opacity="0.25"/>
<circle cx="1.47356" cy="1.47356" r="1.47356" transform="matrix(1 0 0 -1 249.031 218.734)" fill="#3F0065" fill-opacity="0.25"/>
<circle cx="1.47356" cy="1.47356" r="1.47356" transform="matrix(1 0 0 -1 305.023 218.734)" fill="#3F0065" fill-opacity="0.25"/>
<circle cx="1.47356" cy="1.47356" r="1.47356" transform="matrix(1 0 0 -1 361.023 218.734)" fill="#3F0065" fill-opacity="0.25"/>
<circle cx="1.47356" cy="1.47356" r="1.47356" transform="matrix(1 0 0 -1 417.016 218.734)" fill="#3F0065" fill-opacity="0.25"/>
<circle cx="1.47356" cy="1.47356" r="1.47356" transform="matrix(1 0 0 -1 473.008 218.734)" fill="#3F0065" fill-opacity="0.25"/>
<circle cx="1.47356" cy="1.47356" r="1.47356" transform="matrix(1 0 0 -1 527.531 218.734)" fill="#3F0065" fill-opacity="0.25"/>
<circle cx="1.47356" cy="1.47356" r="1.47356" transform="matrix(1 0 0 -1 583.531 218.734)" fill="#3F0065" fill-opacity="0.25"/>
<circle cx="1.47356" cy="1.47356" r="1.47356" transform="matrix(1 0 0 -1 26.5234 273.256)" fill="#3F0065" fill-opacity="0.5"/>
<circle cx="1.47356" cy="1.47356" r="1.47356" transform="matrix(1 0 0 -1 82.5156 273.256)" fill="#3F0065" fill-opacity="0.5"/>
<circle cx="1.47356" cy="1.47356" r="1.47356" transform="matrix(1 0 0 -1 138.516 273.256)" fill="#3F0065" fill-opacity="0.5"/>
<circle cx="1.47356" cy="1.47356" r="1.47356" transform="matrix(1 0 0 -1 193.039 273.256)" fill="#3F0065" fill-opacity="0.5"/>
<circle cx="1.47356" cy="1.47356" r="1.47356" transform="matrix(1 0 0 -1 249.031 273.256)" fill="#3F0065" fill-opacity="0.5"/>
<circle cx="1.47356" cy="1.47356" r="1.47356" transform="matrix(1 0 0 -1 305.023 273.256)" fill="#3F0065"/>
<circle cx="1.47356" cy="1.47356" r="1.47356" transform="matrix(1 0 0 -1 361.023 273.256)" fill="#3F0065" fill-opacity="0.5"/>
<circle cx="1.47356" cy="1.47356" r="1.47356" transform="matrix(1 0 0 -1 417.016 273.256)" fill="#3F0065" fill-opacity="0.5"/>
<circle cx="1.47356" cy="1.47356" r="1.47356" transform="matrix(1 0 0 -1 473.008 273.256)" fill="#3F0065" fill-opacity="0.5"/>
<circle cx="1.47356" cy="1.47356" r="1.47356" transform="matrix(1 0 0 -1 527.531 273.256)" fill="#3F0065" fill-opacity="0.5"/>
<circle cx="1.47356" cy="1.47356" r="1.47356" transform="matrix(1 0 0 -1 583.531 273.256)" fill="#3F0065" fill-opacity="0.5"/>
<circle cx="1.47356" cy="1.47356" r="1.47356" transform="matrix(1 0 0 -1 26.5234 327.777)" fill="#3F0065"/>
<circle cx="1.47356" cy="1.47356" r="1.47356" transform="matrix(1 0 0 -1 82.5156 327.777)" fill="#3F0065"/>
<circle cx="1.47356" cy="1.47356" r="1.47356" transform="matrix(1 0 0 -1 138.516 327.777)" fill="#3F0065"/>
<circle cx="1.47356" cy="1.47356" r="1.47356" transform="matrix(1 0 0 -1 193.039 327.777)" fill="#3F0065"/>
<circle cx="1.47356" cy="1.47356" r="1.47356" transform="matrix(1 0 0 -1 249.031 327.777)" fill="#3F0065"/>
<circle cx="1.47356" cy="1.47356" r="1.47356" transform="matrix(1 0 0 -1 305.023 327.777)" fill="#3F0065"/>
<circle cx="1.47356" cy="1.47356" r="1.47356" transform="matrix(1 0 0 -1 361.023 327.777)" fill="#3F0065"/>
<circle cx="1.47356" cy="1.47356" r="1.47356" transform="matrix(1 0 0 -1 417.016 327.777)" fill="#3F0065"/>
<circle cx="1.47356" cy="1.47356" r="1.47356" transform="matrix(1 0 0 -1 473.008 327.777)" fill="#3F0065"/>
<circle cx="1.47356" cy="1.47356" r="1.47356" transform="matrix(1 0 0 -1 527.531 327.777)" fill="#3F0065"/>
<circle cx="1.47356" cy="1.47356" r="1.47356" transform="matrix(1 0 0 -1 583.531 327.777)" fill="#3F0065"/>
<circle cx="1.47356" cy="1.47356" r="1.47356" transform="matrix(1 0 0 -1 26.5234 382.299)" fill="#3F0065"/>
<circle cx="1.47356" cy="1.47356" r="1.47356" transform="matrix(1 0 0 -1 82.5156 382.299)" fill="#3F0065"/>
<circle cx="1.47356" cy="1.47356" r="1.47356" transform="matrix(1 0 0 -1 138.516 382.299)" fill="#3F0065"/>
<circle cx="1.47356" cy="1.47356" r="1.47356" transform="matrix(1 0 0 -1 193.039 382.299)" fill="#3F0065"/>
<circle cx="1.47356" cy="1.47356" r="1.47356" transform="matrix(1 0 0 -1 249.031 382.299)" fill="#3F0065"/>
<circle cx="1.47356" cy="1.47356" r="1.47356" transform="matrix(1 0 0 -1 305.023 382.299)" fill="#3F0065"/>
<circle cx="1.47356" cy="1.47356" r="1.47356" transform="matrix(1 0 0 -1 361.023 382.299)" fill="#3F0065"/>
<circle cx="1.47356" cy="1.47356" r="1.47356" transform="matrix(1 0 0 -1 417.016 382.299)" fill="#3F0065"/>
<circle cx="1.47356" cy="1.47356" r="1.47356" transform="matrix(1 0 0 -1 473.008 382.299)" fill="#3F0065"/>
<circle cx="1.47356" cy="1.47356" r="1.47356" transform="matrix(1 0 0 -1 527.531 382.299)" fill="#3F0065"/>
<circle cx="1.47356" cy="1.47356" r="1.47356" transform="matrix(1 0 0 -1 583.531 382.299)" fill="#3F0065"/>
<circle cx="1.47356" cy="1.47356" r="1.47356" transform="matrix(1 0 0 -1 26.5234 436.82)" fill="#3F0065"/>
<circle cx="1.47356" cy="1.47356" r="1.47356" transform="matrix(1 0 0 -1 82.5156 436.82)" fill="#3F0065"/>
<circle cx="1.47356" cy="1.47356" r="1.47356" transform="matrix(1 0 0 -1 138.516 436.82)" fill="#3F0065"/>
<circle cx="1.47356" cy="1.47356" r="1.47356" transform="matrix(1 0 0 -1 193.039 436.82)" fill="#3F0065"/>
<circle cx="1.47356" cy="1.47356" r="1.47356" transform="matrix(1 0 0 -1 249.031 436.82)" fill="#3F0065"/>
<circle cx="1.47356" cy="1.47356" r="1.47356" transform="matrix(1 0 0 -1 305.023 436.82)" fill="#3F0065"/>
<circle cx="1.47356" cy="1.47356" r="1.47356" transform="matrix(1 0 0 -1 361.023 436.82)" fill="#3F0065"/>
<circle cx="1.47356" cy="1.47356" r="1.47356" transform="matrix(1 0 0 -1 417.016 436.82)" fill="#3F0065"/>
<circle cx="1.47356" cy="1.47356" r="1.47356" transform="matrix(1 0 0 -1 473.008 436.82)" fill="#3F0065"/>
<circle cx="1.47356" cy="1.47356" r="1.47356" transform="matrix(1 0 0 -1 527.531 436.82)" fill="#3F0065"/>
<circle cx="1.47356" cy="1.47356" r="1.47356" transform="matrix(1 0 0 -1 583.531 436.82)" fill="#3F0065"/>
<circle cx="1.47356" cy="1.47356" r="1.47356" transform="matrix(1 0 0 -1 26.5234 492.078)" fill="#3F0065"/>
<circle cx="1.47356" cy="1.47356" r="1.47356" transform="matrix(1 0 0 -1 82.5156 492.078)" fill="#3F0065"/>
<circle cx="1.47356" cy="1.47356" r="1.47356" transform="matrix(1 0 0 -1 138.516 492.078)" fill="#3F0065"/>
<circle cx="1.47356" cy="1.47356" r="1.47356" transform="matrix(1 0 0 -1 193.039 492.078)" fill="#3F0065"/>
<circle cx="1.47356" cy="1.47356" r="1.47356" transform="matrix(1 0 0 -1 249.031 492.078)" fill="#3F0065"/>
<circle cx="1.47356" cy="1.47356" r="1.47356" transform="matrix(1 0 0 -1 305.023 492.078)" fill="#3F0065"/>
<circle cx="1.47356" cy="1.47356" r="1.47356" transform="matrix(1 0 0 -1 361.023 492.078)" fill="#3F0065"/>
<circle cx="1.47356" cy="1.47356" r="1.47356" transform="matrix(1 0 0 -1 417.016 492.078)" fill="#3F0065"/>
<circle cx="1.47356" cy="1.47356" r="1.47356" transform="matrix(1 0 0 -1 473.008 492.078)" fill="#3F0065"/>
<circle cx="1.47356" cy="1.47356" r="1.47356" transform="matrix(1 0 0 -1 527.531 492.078)" fill="#3F0065"/>
<circle cx="1.47356" cy="1.47356" r="1.47356" transform="matrix(1 0 0 -1 583.531 492.078)" fill="#3F0065"/>
<circle cx="1.47356" cy="1.47356" r="1.47356" transform="matrix(1 0 0 -1 26.5234 547.338)" fill="#3F0065"/>
<circle cx="1.47356" cy="1.47356" r="1.47356" transform="matrix(1 0 0 -1 82.5156 547.338)" fill="#3F0065"/>
<circle cx="1.47356" cy="1.47356" r="1.47356" transform="matrix(1 0 0 -1 138.516 547.338)" fill="#3F0065"/>
<circle cx="1.47356" cy="1.47356" r="1.47356" transform="matrix(1 0 0 -1 193.039 547.338)" fill="#3F0065"/>
<circle cx="1.47356" cy="1.47356" r="1.47356" transform="matrix(1 0 0 -1 249.031 547.338)" fill="#3F0065"/>
<circle cx="1.47356" cy="1.47356" r="1.47356" transform="matrix(1 0 0 -1 305.023 547.338)" fill="#3F0065"/>
<circle cx="1.47356" cy="1.47356" r="1.47356" transform="matrix(1 0 0 -1 361.023 547.338)" fill="#3F0065"/>
<circle cx="1.47356" cy="1.47356" r="1.47356" transform="matrix(1 0 0 -1 417.016 547.338)" fill="#3F0065"/>
<circle cx="1.47356" cy="1.47356" r="1.47356" transform="matrix(1 0 0 -1 473.008 547.338)" fill="#3F0065"/>
<circle cx="1.47356" cy="1.47356" r="1.47356" transform="matrix(1 0 0 -1 527.531 547.338)" fill="#3F0065"/>
<circle cx="1.47356" cy="1.47356" r="1.47356" transform="matrix(1 0 0 -1 583.531 547.338)" fill="#3F0065"/>
<circle cx="1.47356" cy="1.47356" r="1.47356" transform="matrix(1 0 0 -1 26.5234 601.859)" fill="#3F0065"/>
<circle cx="1.47356" cy="1.47356" r="1.47356" transform="matrix(1 0 0 -1 82.5156 601.859)" fill="#3F0065"/>
<circle cx="1.47356" cy="1.47356" r="1.47356" transform="matrix(1 0 0 -1 138.516 601.859)" fill="#3F0065"/>
<circle cx="1.47356" cy="1.47356" r="1.47356" transform="matrix(1 0 0 -1 193.039 601.859)" fill="#3F0065"/>
<circle cx="1.47356" cy="1.47356" r="1.47356" transform="matrix(1 0 0 -1 249.031 601.859)" fill="#3F0065"/>
<circle cx="1.47356" cy="1.47356" r="1.47356" transform="matrix(1 0 0 -1 305.023 601.859)" fill="#3F0065"/>
<circle cx="1.47356" cy="1.47356" r="1.47356" transform="matrix(1 0 0 -1 361.023 601.859)" fill="#3F0065"/>
<circle cx="1.47356" cy="1.47356" r="1.47356" transform="matrix(1 0 0 -1 417.016 601.859)" fill="#3F0065"/>
<circle cx="1.47356" cy="1.47356" r="1.47356" transform="matrix(1 0 0 -1 473.008 601.859)" fill="#3F0065"/>
<circle cx="1.47356" cy="1.47356" r="1.47356" transform="matrix(1 0 0 -1 527.531 601.859)" fill="#3F0065"/>
<circle cx="1.47356" cy="1.47356" r="1.47356" transform="matrix(1 0 0 -1 583.531 601.859)" fill="#3F0065"/>
<circle cx="1.47356" cy="1.47356" r="1.47356" transform="matrix(1 0 0 -1 26.5234 656.381)" fill="#3F0065"/>
<circle cx="1.47356" cy="1.47356" r="1.47356" transform="matrix(1 0 0 -1 82.5156 656.381)" fill="#3F0065"/>
<circle cx="1.47356" cy="1.47356" r="1.47356" transform="matrix(1 0 0 -1 138.516 656.381)" fill="#3F0065"/>
<circle cx="1.47356" cy="1.47356" r="1.47356" transform="matrix(1 0 0 -1 193.039 656.381)" fill="#3F0065"/>
<circle cx="1.47356" cy="1.47356" r="1.47356" transform="matrix(1 0 0 -1 249.031 656.381)" fill="#3F0065"/>
<circle cx="1.47356" cy="1.47356" r="1.47356" transform="matrix(1 0 0 -1 305.023 656.381)" fill="#3F0065"/>
<circle cx="1.47356" cy="1.47356" r="1.47356" transform="matrix(1 0 0 -1 361.023 656.381)" fill="#3F0065"/>
<circle cx="1.47356" cy="1.47356" r="1.47356" transform="matrix(1 0 0 -1 417.016 656.381)" fill="#3F0065"/>
<circle cx="1.47356" cy="1.47356" r="1.47356" transform="matrix(1 0 0 -1 473.008 656.381)" fill="#3F0065"/>
<circle cx="1.47356" cy="1.47356" r="1.47356" transform="matrix(1 0 0 -1 527.531 656.381)" fill="#3F0065"/>
<circle cx="1.47356" cy="1.47356" r="1.47356" transform="matrix(1 0 0 -1 583.531 656.381)" fill="#3F0065"/>
<circle cx="1.47356" cy="1.47356" r="1.47356" transform="matrix(1 0 0 -1 26.5234 710.902)" fill="#3F0065" fill-opacity="0.5"/>
<circle cx="1.47356" cy="1.47356" r="1.47356" transform="matrix(1 0 0 -1 82.5156 710.902)" fill="#3F0065"/>
<circle cx="1.47356" cy="1.47356" r="1.47356" transform="matrix(1 0 0 -1 138.516 710.902)" fill="#3F0065" fill-opacity="0.5"/>
<circle cx="1.47356" cy="1.47356" r="1.47356" transform="matrix(1 0 0 -1 193.039 710.902)" fill="#3F0065" fill-opacity="0.5"/>
<circle cx="1.47356" cy="1.47356" r="1.47356" transform="matrix(1 0 0 -1 249.031 710.902)" fill="#3F0065" fill-opacity="0.5"/>
<circle cx="1.47356" cy="1.47356" r="1.47356" transform="matrix(1 0 0 -1 305.023 710.902)" fill="#3F0065" fill-opacity="0.5"/>
<circle cx="1.47356" cy="1.47356" r="1.47356" transform="matrix(1 0 0 -1 361.023 710.902)" fill="#3F0065" fill-opacity="0.5"/>
<circle cx="1.47356" cy="1.47356" r="1.47356" transform="matrix(1 0 0 -1 417.016 710.902)" fill="#3F0065" fill-opacity="0.5"/>
<circle cx="1.47356" cy="1.47356" r="1.47356" transform="matrix(1 0 0 -1 473.008 710.902)" fill="#3F0065" fill-opacity="0.5"/>
<circle cx="1.47356" cy="1.47356" r="1.47356" transform="matrix(1 0 0 -1 527.531 710.902)" fill="#3F0065" fill-opacity="0.5"/>
<circle cx="1.47356" cy="1.47356" r="1.47356" transform="matrix(1 0 0 -1 583.531 710.902)" fill="#3F0065" fill-opacity="0.5"/>
<circle cx="1.47356" cy="1.47356" r="1.47356" transform="matrix(1 0 0 -1 26.5234 765.424)" fill="#3F0065" fill-opacity="0.25"/>
<circle cx="1.47356" cy="1.47356" r="1.47356" transform="matrix(1 0 0 -1 82.5156 765.424)" fill="#3F0065" fill-opacity="0.25"/>
<circle cx="1.47356" cy="1.47356" r="1.47356" transform="matrix(1 0 0 -1 138.516 765.424)" fill="#3F0065" fill-opacity="0.25"/>
<circle cx="1.47356" cy="1.47356" r="1.47356" transform="matrix(1 0 0 -1 193.039 765.424)" fill="#3F0065" fill-opacity="0.25"/>
<circle cx="1.47356" cy="1.47356" r="1.47356" transform="matrix(1 0 0 -1 249.031 765.424)" fill="#3F0065" fill-opacity="0.25"/>
<circle cx="1.47356" cy="1.47356" r="1.47356" transform="matrix(1 0 0 -1 305.023 765.424)" fill="#3F0065" fill-opacity="0.25"/>
<circle cx="1.47356" cy="1.47356" r="1.47356" transform="matrix(1 0 0 -1 361.023 765.424)" fill="#3F0065" fill-opacity="0.25"/>
<circle cx="1.47356" cy="1.47356" r="1.47356" transform="matrix(1 0 0 -1 417.016 765.424)" fill="#3F0065" fill-opacity="0.25"/>
<circle cx="1.47356" cy="1.47356" r="1.47356" transform="matrix(1 0 0 -1 473.008 765.424)" fill="#3F0065" fill-opacity="0.25"/>
<circle cx="1.47356" cy="1.47356" r="1.47356" transform="matrix(1 0 0 -1 527.531 765.424)" fill="#3F0065" fill-opacity="0.25"/>
<circle cx="1.47356" cy="1.47356" r="1.47356" transform="matrix(1 0 0 -1 583.531 765.424)" fill="#3F0065" fill-opacity="0.25"/>
</g>
<path d="M44.48 651.96C29.68 651.96 21.92 645 21.92 632.6V593.8H33.52V632.6C33.52 638.52 36.48 642.68 44.24 642.68C51.6 642.68 55.04 638.36 55.04 632.44V593.8H66.64V632.6C66.64 644.84 59.12 651.96 44.48 651.96ZM74.0981 664.44V609.96H84.5781V615.08H84.8181C87.4581 611.48 91.2981 608.84 96.8981 608.84C107.778 608.84 114.738 617.72 114.738 630.52C114.738 643.8 107.538 652.2 96.9781 652.2C91.2181 652.2 87.4581 649.88 85.1381 646.36H84.9781V664.44H74.0981ZM94.6581 643.16C100.178 643.16 103.698 638.6 103.698 630.84C103.698 623.08 100.978 617.64 94.2581 617.64C87.4581 617.64 84.7381 623.48 84.7381 630.84C84.7381 638.28 88.1781 643.16 94.6581 643.16ZM130.839 617.16V609.96H136.519V597.16H147.159V609.96H154.199V617.16H147.159V638.92C147.159 641.96 148.839 643 151.239 643C152.599 643 154.439 642.92 154.439 642.92V650.92C154.439 650.92 151.959 651.08 147.639 651.08C142.359 651.08 136.519 649 136.519 641.24V617.16H130.839ZM178.851 652.2C166.131 652.2 157.411 642.76 157.411 630.52C157.411 618.28 166.131 608.84 178.851 608.84C191.571 608.84 200.291 618.28 200.291 630.52C200.291 642.76 191.571 652.2 178.851 652.2ZM178.851 643.88C185.491 643.88 189.251 638.52 189.251 630.52C189.251 622.52 185.491 617.08 178.851 617.08C172.131 617.08 168.451 622.52 168.451 630.52C168.451 638.52 172.131 643.88 178.851 643.88ZM238.066 652.2C223.906 652.2 216.626 644.36 216.466 632.36H226.866C227.266 638.92 230.146 643.48 237.666 643.48C243.746 643.48 247.346 640.2 247.346 634.6C247.346 629.32 243.986 626.12 237.266 626.12H233.906V617.88H237.026C242.226 617.88 245.906 615.24 245.906 610.6C245.906 606.28 242.946 603.4 238.146 603.4C231.906 603.4 228.866 607.48 228.626 613.16H218.226C218.626 602.36 225.426 595.08 238.146 595.08C249.586 595.08 256.946 600.76 256.946 609.88C256.946 616.04 253.026 619.64 247.586 621.4V621.56C254.546 623.24 258.706 627.72 258.706 635.32C258.706 646.68 249.346 652.2 238.066 652.2ZM285.936 652.28C271.936 652.28 263.056 641.08 263.056 623.64C263.056 606.12 272.096 595 286.016 595C300.176 595 308.816 606.04 308.816 623.64C308.816 641.08 300.176 652.28 285.936 652.28ZM286.016 643C294.176 643 297.456 635.4 297.456 623.64C297.456 612.04 294.096 604.28 286.016 604.28C277.856 604.28 274.416 611.96 274.416 623.64C274.416 635.24 277.856 643 286.016 643ZM326.803 626.92C318.643 626.92 312.723 620.68 312.723 611C312.723 601.24 318.723 595 326.803 595C335.043 595 340.803 601.16 340.803 611C340.803 620.68 335.043 626.92 326.803 626.92ZM362.643 652.28C354.483 652.28 348.563 646.04 348.563 636.36C348.563 626.6 354.563 620.36 362.643 620.36C370.883 620.36 376.643 626.52 376.643 636.36C376.643 646.04 370.883 652.28 362.643 652.28ZM327.283 651L355.363 596.12H362.163L334.083 651H327.283ZM362.643 646.12C366.403 646.12 368.163 642.12 368.163 636.36C368.163 630.6 366.323 626.44 362.643 626.44C358.883 626.44 357.123 630.52 357.123 636.36C357.123 642.04 358.883 646.12 362.643 646.12ZM326.803 620.76C330.563 620.76 332.323 616.76 332.323 611C332.323 605.24 330.483 601.08 326.803 601.08C323.043 601.08 321.283 605.16 321.283 611C321.283 616.68 323.043 620.76 326.803 620.76ZM21.68 747V689.8H32.56V747H21.68ZM59.0031 748.2C45.4031 748.2 37.7231 738.68 37.7231 726.44C37.7231 714.28 45.9631 704.84 57.9631 704.84C71.1631 704.84 78.2031 714.92 78.2031 729.56H48.4431C49.2431 735.88 52.7631 739.8 58.9231 739.8C63.1631 739.8 65.6431 737.88 66.8431 734.76H77.5631C76.0431 742.04 69.5631 748.2 59.0031 748.2ZM58.1231 713.24C52.3631 713.24 49.5631 716.68 48.6031 722.04H66.8431C66.5231 716.84 63.0831 713.24 58.1231 713.24ZM99.8788 748.2C87.9588 748.2 81.3188 742.44 80.6788 733.72H90.7588C91.4787 738.44 94.8388 740.52 99.7188 740.52C104.519 740.52 107.239 738.68 107.239 735.8C107.239 731.88 102.039 731.48 96.4388 730.36C89.0788 728.92 81.8788 726.92 81.8788 717.96C81.8788 709.08 89.2388 704.84 98.5988 704.84C109.399 704.84 115.399 710.2 116.199 718.44H106.359C105.879 714.04 103.079 712.44 98.4388 712.44C94.1988 712.44 91.3988 714.04 91.3988 717C91.3988 720.52 96.8388 720.84 102.679 722.04C109.559 723.48 117.159 725.4 117.159 735C117.159 743.24 110.119 748.2 99.8788 748.2ZM138.707 748.2C126.787 748.2 120.147 742.44 119.507 733.72H129.587C130.307 738.44 133.667 740.52 138.547 740.52C143.347 740.52 146.067 738.68 146.067 735.8C146.067 731.88 140.867 731.48 135.267 730.36C127.907 728.92 120.707 726.92 120.707 717.96C120.707 709.08 128.067 704.84 137.427 704.84C148.227 704.84 154.227 710.2 155.027 718.44H145.187C144.707 714.04 141.907 712.44 137.267 712.44C133.027 712.44 130.227 714.04 130.227 717C130.227 720.52 135.667 720.84 141.507 722.04C148.387 723.48 155.987 725.4 155.987 735C155.987 743.24 148.947 748.2 138.707 748.2ZM183.133 747L171.133 705.96H181.933L186.893 725C187.773 728.36 188.733 732.68 188.733 732.68H188.893C188.893 732.68 189.773 728.28 190.653 724.92L195.773 705.96H205.053L210.413 724.92C211.293 728.36 212.333 732.68 212.333 732.68H212.493C212.493 732.68 213.453 728.36 214.333 725L219.533 705.96H230.093L217.852 747H207.933L202.493 726.84C201.613 723.56 200.653 719.72 200.653 719.72H200.493C200.493 719.72 199.453 723.56 198.573 726.84L192.973 747H183.133ZM258.61 747C257.97 746.2 257.57 744.28 257.33 742.44H257.17C255.09 745.56 252.13 747.96 245.09 747.96C236.69 747.96 230.77 743.56 230.77 735.4C230.77 726.36 238.13 723.48 247.25 722.2C254.05 721.24 257.17 720.68 257.17 717.56C257.17 714.6 254.85 712.68 250.29 712.68C245.17 712.68 242.69 714.52 242.37 718.44H232.69C233.01 711.24 238.37 704.92 250.37 704.92C262.69 704.92 267.65 710.44 267.65 720.04V740.92C267.65 744.04 268.13 745.88 269.09 746.6V747H258.61ZM247.73 740.36C253.97 740.36 257.41 736.52 257.41 732.52V726.36C255.49 727.48 252.53 728.12 249.81 728.76C244.13 730.04 241.33 731.32 241.33 735.16C241.33 739 243.89 740.36 247.73 740.36ZM271.386 713.16V705.96H277.066V693.16H287.706V705.96H294.746V713.16H287.706V734.92C287.706 737.96 289.386 739 291.786 739C293.146 739 294.986 738.92 294.986 738.92V746.92C294.986 746.92 292.506 747.08 288.186 747.08C282.906 747.08 277.066 745 277.066 737.24V713.16H271.386ZM319.238 748.2C305.638 748.2 297.958 738.68 297.958 726.44C297.958 714.28 306.198 704.84 318.198 704.84C331.398 704.84 338.438 714.92 338.438 729.56H308.678C309.478 735.88 312.998 739.8 319.158 739.8C323.398 739.8 325.878 737.88 327.078 734.76H337.798C336.278 742.04 329.798 748.2 319.238 748.2ZM318.358 713.24C312.598 713.24 309.798 716.68 308.838 722.04H327.078C326.758 716.84 323.318 713.24 318.358 713.24ZM353.953 705.96V712.52H354.193C356.673 707.88 359.473 705.48 364.273 705.48C365.473 705.48 366.193 705.56 366.833 705.8V715.32H366.593C359.473 714.6 354.353 718.36 354.353 727V747H343.473V705.96H353.953ZM421.358 747H410.878V742.2H410.638C407.838 745.96 404.638 748.12 398.878 748.12C389.758 748.12 384.638 742.28 384.638 733.32V705.96H395.438V731.48C395.438 736.28 397.598 738.92 402.238 738.92C407.358 738.92 410.478 735.08 410.478 729.64V705.96H421.358V747ZM445.035 748.2C433.115 748.2 426.475 742.44 425.835 733.72H435.915C436.635 738.44 439.995 740.52 444.875 740.52C449.675 740.52 452.395 738.68 452.395 735.8C452.395 731.88 447.195 731.48 441.595 730.36C434.235 728.92 427.035 726.92 427.035 717.96C427.035 709.08 434.395 704.84 443.755 704.84C454.555 704.84 460.555 710.2 461.355 718.44H451.515C451.035 714.04 448.235 712.44 443.595 712.44C439.355 712.44 436.555 714.04 436.555 717C436.555 720.52 441.995 720.84 447.835 722.04C454.715 723.48 462.315 725.4 462.315 735C462.315 743.24 455.275 748.2 445.035 748.2ZM486.894 748.2C473.294 748.2 465.614 738.68 465.614 726.44C465.614 714.28 473.854 704.84 485.854 704.84C499.054 704.84 506.094 714.92 506.094 729.56H476.334C477.134 735.88 480.654 739.8 486.814 739.8C491.054 739.8 493.534 737.88 494.734 734.76H505.454C503.934 742.04 497.454 748.2 486.894 748.2ZM486.014 713.24C480.254 713.24 477.454 716.68 476.494 722.04H494.734C494.414 716.84 490.974 713.24 486.014 713.24ZM526.489 748.2C516.169 748.2 509.129 739.8 509.129 726.52C509.129 713.72 516.409 704.84 526.649 704.84C532.409 704.84 536.009 707.48 538.249 710.92H538.489V689.8H549.369V747H538.889V741.64H538.729C536.329 745.56 532.249 748.2 526.489 748.2ZM528.889 739.08C535.369 739.08 538.729 734.28 538.729 726.76C538.729 718.92 536.169 713.64 529.209 713.64C523.209 713.64 520.169 718.92 520.169 726.52C520.169 734.44 523.289 739.08 528.889 739.08ZM21.52 856.44V801.96H32V807.08H32.24C34.88 803.48 38.72 800.84 44.32 800.84C55.2 800.84 62.16 809.72 62.16 822.52C62.16 835.8 54.96 844.2 44.4 844.2C38.64 844.2 34.88 841.88 32.56 838.36H32.4V856.44H21.52ZM42.08 835.16C47.6 835.16 51.12 830.6 51.12 822.84C51.12 815.08 48.4 809.64 41.68 809.64C34.88 809.64 32.16 815.48 32.16 822.84C32.16 830.28 35.6 835.16 42.08 835.16ZM86.5031 844.2C72.9031 844.2 65.2231 834.68 65.2231 822.44C65.2231 810.28 73.4631 800.84 85.4631 800.84C98.6631 800.84 105.703 810.92 105.703 825.56H75.9431C76.7431 831.88 80.2631 835.8 86.4231 835.8C90.6631 835.8 93.1431 833.88 94.3431 830.76H105.063C103.543 838.04 97.0631 844.2 86.5031 844.2ZM85.6231 809.24C79.8631 809.24 77.0631 812.68 76.1031 818.04H94.3431C94.0231 812.84 90.5831 809.24 85.6231 809.24ZM121.219 801.96V808.52H121.459C123.939 803.88 126.739 801.48 131.539 801.48C132.739 801.48 133.459 801.56 134.099 801.8V811.32H133.859C126.739 810.6 121.619 814.36 121.619 823V843H110.739V801.96H121.219ZM152.223 856.44V801.96H162.703V807.08H162.943C165.583 803.48 169.423 800.84 175.023 800.84C185.903 800.84 192.863 809.72 192.863 822.52C192.863 835.8 185.663 844.2 175.103 844.2C169.343 844.2 165.583 841.88 163.263 838.36H163.103V856.44H152.223ZM172.783 835.16C178.303 835.16 181.823 830.6 181.823 822.84C181.823 815.08 179.103 809.64 172.383 809.64C165.583 809.64 162.863 815.48 162.863 822.84C162.863 830.28 166.303 835.16 172.783 835.16ZM198.086 843V785.8H208.966V843H198.086ZM241.969 843C241.329 842.2 240.929 840.28 240.689 838.44H240.529C238.449 841.56 235.489 843.96 228.449 843.96C220.049 843.96 214.129 839.56 214.129 831.4C214.129 822.36 221.489 819.48 230.609 818.2C237.409 817.24 240.529 816.68 240.529 813.56C240.529 810.6 238.209 808.68 233.649 808.68C228.529 808.68 226.049 810.52 225.729 814.44H216.049C216.369 807.24 221.729 800.92 233.729 800.92C246.049 800.92 251.009 806.44 251.009 816.04V836.92C251.009 840.04 251.489 841.88 252.449 842.6V843H241.969ZM231.089 836.36C237.329 836.36 240.769 832.52 240.769 828.52V822.36C238.849 823.48 235.889 824.12 233.169 824.76C227.489 826.04 224.689 827.32 224.689 831.16C224.689 835 227.249 836.36 231.089 836.36ZM268.566 801.96V807.56H268.806C271.606 803.16 275.366 800.84 280.966 800.84C289.446 800.84 295.126 807.24 295.126 816.2V843H284.246V817.8C284.246 813.4 281.686 810.28 277.126 810.28C272.326 810.28 268.806 814.12 268.806 819.72V843H257.926V801.96H268.566ZM298.651 809.16V801.96H304.331V789.16H314.971V801.96H322.011V809.16H314.971V830.92C314.971 833.96 316.651 835 319.051 835C320.411 835 322.251 834.92 322.251 834.92V842.92C322.251 842.92 319.771 843.08 315.451 843.08C310.171 843.08 304.331 841 304.331 833.24V809.16H298.651Z" fill="#4080E0"/>
<rect x="18" y="18" width="183.308" height="74.7267" rx="37.3634" stroke="#4080E0" stroke-width="3.85901"/>
<path d="M43.9195 68.8633V39.4023H56.8576C60.2775 39.4023 62.8322 40.3912 64.5628 42.163C66.2109 43.8523 67.1998 46.1598 67.1998 48.8793C67.1998 54.4418 63.5327 58.1914 57.3521 58.1914H50.1001V68.8633H43.9195ZM50.1001 44.594V53.3293H56.2807C59.4123 53.3293 61.0604 51.5987 61.0604 48.9205C61.0604 46.1598 59.3299 44.594 56.3632 44.594H50.1001ZM70.155 68.8633V39.4023H83.6699C89.3561 39.4023 93.1469 42.6986 93.1469 47.6019C93.1469 51.0631 91.5399 53.7001 87.7491 54.7302V54.8539C90.4686 55.6367 91.8696 57.2025 92.2404 60.7873C92.6524 64.9489 92.4876 68.1216 93.5177 68.5749V68.8633H87.7903C87.0487 68.5336 86.9663 65.2373 86.719 62.0646C86.4718 58.8507 84.6588 57.0377 80.9505 57.0377H76.1296V68.8633H70.155ZM76.1296 44.2232V52.4228H82.475C85.7301 52.4228 87.3371 50.7334 87.3371 48.3848C87.3371 45.995 85.8125 44.2232 82.6398 44.2232H76.1296ZM109.932 69.5225C101.238 69.5225 95.7167 63.0123 95.7167 54.1946C95.7167 45.3769 101.238 38.8254 109.932 38.8254C118.626 38.8254 124.106 45.3769 124.106 54.1946C124.106 63.0123 118.626 69.5225 109.932 69.5225ZM109.973 64.6193C115.371 64.6193 118.008 60.0456 118.008 54.1946C118.008 48.3024 115.371 43.7287 109.973 43.7287C104.576 43.7287 101.815 48.3024 101.815 54.1946C101.815 60.0456 104.576 64.6193 109.973 64.6193ZM127.374 68.8633V39.4023H140.559C143.732 39.4023 146.163 40.1852 147.688 41.5449C149.295 42.9871 150.036 44.7588 150.036 47.0663C150.036 50.0742 148.182 52.0108 145.421 52.9585V53.0821C148.677 54.0298 150.902 56.7493 150.902 60.3752C150.902 63.1359 150.036 65.0313 148.306 66.5146C146.616 67.998 144.021 68.8633 140.889 68.8633H127.374ZM133.349 55.6779V63.9188H140.23C143.114 63.9188 144.845 62.3118 144.845 59.922C144.845 57.1201 142.784 55.6779 140.065 55.6779H133.349ZM133.349 51.2691H139.818C142.414 51.2691 144.185 50.033 144.185 47.7255C144.185 45.5417 142.578 44.2644 139.941 44.2644H133.349V51.2691ZM154.414 68.8633V39.4023H176.088V44.4292H160.389V51.0219H174.151V55.9252H160.389V63.8776H176.211V68.8633H154.414Z" fill="#4080E0"/>
</svg>
