<svg width="613" height="884" viewBox="0 0 613 884" fill="none" xmlns="http://www.w3.org/2000/svg">
<path d="M0 52.0011C0 23.2823 23.2811 0.00112424 51.9999 0.00104171L361.5 0.000152305C390.771 6.81895e-05 414.5 23.729 414.5 53.0002V70.0008C414.5 142.35 473.15 201 545.499 201.001L560 201.001C589.271 201.001 613 224.73 613 254.001V872.001C613 878.629 607.627 884.001 601 884.001H12C5.37257 884.001 0 878.629 0 872.001V52.0011Z" fill="#DAF2DB"/>
<rect x="451" width="162" height="162" rx="81" fill="#DAF2DB"/>
<path d="M532.022 107.685C518.035 107.685 510.843 99.941 510.685 88.0873H520.959C521.354 94.5673 524.199 99.0717 531.627 99.0717C537.633 99.0717 541.189 95.8317 541.189 90.3C541.189 85.0844 537.87 81.9234 531.232 81.9234H527.913V73.7839H530.995C536.131 73.7839 539.766 71.1761 539.766 66.5927C539.766 62.3254 536.842 59.4805 532.101 59.4805C525.937 59.4805 522.934 63.5107 522.697 69.1215H512.424C512.819 58.4532 519.536 51.2619 532.101 51.2619C543.401 51.2619 550.672 56.8727 550.672 65.8815C550.672 71.9663 546.8 75.5224 541.426 77.261V77.419C548.301 79.0785 552.41 83.5039 552.41 91.0112C552.41 102.233 543.164 107.685 532.022 107.685Z" fill="#0B8600"/>
<path d="M22.5875 651V593.8H47.7075C54.3475 593.8 59.3075 595.72 62.6675 599.16C65.8675 602.44 67.7875 606.92 67.7875 612.2C67.7875 623 60.6675 630.28 48.6675 630.28H34.5875V651H22.5875ZM34.5875 603.88V620.84H46.5875C52.6675 620.84 55.8675 617.48 55.8675 612.28C55.8675 606.92 52.5075 603.88 46.7475 603.88H34.5875ZM90.7531 652.2C77.1531 652.2 69.4731 642.68 69.4731 630.44C69.4731 618.28 77.7131 608.84 89.7131 608.84C102.913 608.84 109.953 618.92 109.953 633.56H80.1931C80.9931 639.88 84.5131 643.8 90.6731 643.8C94.9131 643.8 97.3931 641.88 98.5931 638.76H109.313C107.793 646.04 101.313 652.2 90.7531 652.2ZM89.8731 617.24C84.1131 617.24 81.3131 620.68 80.3531 626.04H98.5931C98.2731 620.84 94.8331 617.24 89.8731 617.24ZM140.829 651C140.189 650.2 139.789 648.28 139.549 646.44H139.389C137.309 649.56 134.349 651.96 127.309 651.96C118.909 651.96 112.989 647.56 112.989 639.4C112.989 630.36 120.349 627.48 129.469 626.2C136.269 625.24 139.389 624.68 139.389 621.56C139.389 618.6 137.069 616.68 132.509 616.68C127.389 616.68 124.909 618.52 124.589 622.44H114.909C115.229 615.24 120.589 608.92 132.589 608.92C144.909 608.92 149.869 614.44 149.869 624.04V644.92C149.869 648.04 150.349 649.88 151.309 650.6V651H140.829ZM129.949 644.36C136.189 644.36 139.629 640.52 139.629 636.52V630.36C137.709 631.48 134.749 632.12 132.029 632.76C126.349 634.04 123.549 635.32 123.549 639.16C123.549 643 126.109 644.36 129.949 644.36ZM175.826 652.2C162.866 652.2 154.786 642.76 154.786 630.52C154.786 618.28 162.786 608.84 175.266 608.84C185.906 608.84 192.466 615 193.906 623.88H183.266C182.546 620.28 179.746 617.56 175.746 617.56C169.186 617.56 165.826 622.6 165.826 630.52C165.826 638.28 168.946 643.48 175.586 643.48C179.986 643.48 183.106 641.16 183.826 636.52H194.306C193.586 645.24 186.786 652.2 175.826 652.2ZM218.331 652.2C204.731 652.2 197.051 642.68 197.051 630.44C197.051 618.28 205.291 608.84 217.291 608.84C230.491 608.84 237.531 618.92 237.531 633.56H207.771C208.571 639.88 212.091 643.8 218.251 643.8C222.491 643.8 224.971 641.88 226.171 638.76H236.891C235.371 646.04 228.891 652.2 218.331 652.2ZM217.451 617.24C211.691 617.24 208.891 620.68 207.931 626.04H226.171C225.851 620.84 222.411 617.24 217.451 617.24ZM275.444 652.2C262.724 652.2 254.004 642.76 254.004 630.52C254.004 618.28 262.724 608.84 275.444 608.84C288.164 608.84 296.884 618.28 296.884 630.52C296.884 642.76 288.164 652.2 275.444 652.2ZM275.444 643.88C282.084 643.88 285.844 638.52 285.844 630.52C285.844 622.52 282.084 617.08 275.444 617.08C268.724 617.08 265.044 622.52 265.044 630.52C265.044 638.52 268.724 643.88 275.444 643.88ZM298.761 617.48V609.96H304.361V606.28C304.361 596.28 312.121 592.76 322.601 593.88V602.28C317.481 602.04 315.241 602.68 315.241 606.92V609.96H322.601V617.48H315.241V651H304.361V617.48H298.761ZM341.004 651V609.96H351.484V615.48H351.724C353.964 611.72 357.964 608.84 363.644 608.84C368.844 608.84 373.004 611.72 375.004 616.04H375.164C377.964 611.56 382.284 608.84 387.484 608.84C396.124 608.84 401.004 614.44 401.004 623.4V651H390.124V625.24C390.124 620.6 387.804 618.2 383.804 618.2C379.244 618.2 376.444 621.72 376.444 627.16V651H365.564V625.24C365.564 620.6 363.244 618.2 359.244 618.2C354.844 618.2 351.884 621.72 351.884 627.16V651H341.004ZM407.723 651V609.96H418.603V651H407.723ZM407.723 603.56V593.8H418.603V603.56H407.723ZM436.254 609.96V615.56H436.494C439.294 611.16 443.054 608.84 448.654 608.84C457.134 608.84 462.814 615.24 462.814 624.2V651H451.934V625.8C451.934 621.4 449.374 618.28 444.814 618.28C440.014 618.28 436.494 622.12 436.494 627.72V651H425.614V609.96H436.254ZM484.88 652.2C474.56 652.2 467.52 643.8 467.52 630.52C467.52 617.72 474.8 608.84 485.04 608.84C490.8 608.84 494.4 611.48 496.64 614.92H496.88V593.8H507.76V651H497.28V645.64H497.12C494.72 649.56 490.64 652.2 484.88 652.2ZM487.28 643.08C493.76 643.08 497.12 638.28 497.12 630.76C497.12 622.92 494.56 617.64 487.6 617.64C481.6 617.64 478.56 622.92 478.56 630.52C478.56 638.44 481.68 643.08 487.28 643.08ZM19.3075 713.16V705.96H24.9875V693.16H35.6275V705.96H42.6675V713.16H35.6275V734.92C35.6275 737.96 37.3075 739 39.7075 739C41.0675 739 42.9075 738.92 42.9075 738.92V746.92C42.9075 746.92 40.4275 747.08 36.1075 747.08C30.8275 747.08 24.9875 745 24.9875 737.24V713.16H19.3075ZM59.15 689.8V711.32H59.39C62.35 707 65.71 704.84 71.31 704.84C79.79 704.84 85.47 711.24 85.47 720.2V747H74.59V721.8C74.59 717.4 72.03 714.28 67.47 714.28C62.67 714.28 59.15 718.12 59.15 723.72V747H48.27V689.8H59.15ZM102.656 705.96V712.52H102.896C105.376 707.88 108.176 705.48 112.976 705.48C114.176 705.48 114.896 705.56 115.536 705.8V715.32H115.296C108.176 714.6 103.056 718.36 103.056 727V747H92.1763V705.96H102.656ZM138.491 748.2C125.771 748.2 117.051 738.76 117.051 726.52C117.051 714.28 125.771 704.84 138.491 704.84C151.211 704.84 159.931 714.28 159.931 726.52C159.931 738.76 151.211 748.2 138.491 748.2ZM138.491 739.88C145.131 739.88 148.891 734.52 148.891 726.52C148.891 718.52 145.131 713.08 138.491 713.08C131.771 713.08 128.091 718.52 128.091 726.52C128.091 734.52 131.771 739.88 138.491 739.88ZM201.389 747H190.909V742.2H190.669C187.869 745.96 184.669 748.12 178.909 748.12C169.789 748.12 164.669 742.28 164.669 733.32V705.96H175.469V731.48C175.469 736.28 177.629 738.92 182.269 738.92C187.389 738.92 190.509 735.08 190.509 729.64V705.96H201.389V747ZM226.506 761C215.306 761 208.426 756.2 207.306 748.2H218.106C218.986 750.76 221.306 752.76 226.346 752.76C232.506 752.76 235.466 749.8 235.466 744.2V739.72H235.226C232.826 742.44 229.706 744.52 224.506 744.52C215.386 744.52 206.426 737.32 206.426 724.92C206.426 712.68 213.786 704.84 224.186 704.84C229.306 704.84 233.066 706.84 235.546 710.28H235.706V705.96H246.186V743.88C246.186 749.64 244.346 753.56 241.306 756.36C237.866 759.56 232.586 761 226.506 761ZM226.346 735.8C233.226 735.8 236.026 730.76 236.026 724.68C236.026 718.68 232.826 713.56 226.266 713.56C220.746 713.56 217.066 717.88 217.066 724.76C217.066 731.72 220.746 735.8 226.346 735.8ZM264.072 689.8V711.32H264.312C267.272 707 270.632 704.84 276.232 704.84C284.712 704.84 290.392 711.24 290.392 720.2V747H279.512V721.8C279.512 717.4 276.952 714.28 272.392 714.28C267.592 714.28 264.072 718.12 264.072 723.72V747H253.192V689.8H264.072ZM21.7075 843V801.96H32.1875V807.48H32.4275C34.6675 803.72 38.6675 800.84 44.3475 800.84C49.5475 800.84 53.7075 803.72 55.7075 808.04H55.8675C58.6675 803.56 62.9875 800.84 68.1875 800.84C76.8275 800.84 81.7075 806.44 81.7075 815.4V843H70.8275V817.24C70.8275 812.6 68.5075 810.2 64.5075 810.2C59.9475 810.2 57.1475 813.72 57.1475 819.16V843H46.2675V817.24C46.2675 812.6 43.9475 810.2 39.9475 810.2C35.5475 810.2 32.5875 813.72 32.5875 819.16V843H21.7075ZM107.866 844.2C95.1463 844.2 86.4263 834.76 86.4263 822.52C86.4263 810.28 95.1463 800.84 107.866 800.84C120.586 800.84 129.306 810.28 129.306 822.52C129.306 834.76 120.586 844.2 107.866 844.2ZM107.866 835.88C114.506 835.88 118.266 830.52 118.266 822.52C118.266 814.52 114.506 809.08 107.866 809.08C101.146 809.08 97.4663 814.52 97.4663 822.52C97.4663 830.52 101.146 835.88 107.866 835.88ZM145.004 801.96V807.56H145.244C148.044 803.16 151.804 800.84 157.404 800.84C165.884 800.84 171.564 807.24 171.564 816.2V843H160.684V817.8C160.684 813.4 158.124 810.28 153.564 810.28C148.764 810.28 145.244 814.12 145.244 819.72V843H134.364V801.96H145.004ZM178.27 843V801.96H189.15V843H178.27ZM178.27 795.56V785.8H189.15V795.56H178.27ZM193.761 809.16V801.96H199.441V789.16H210.081V801.96H217.121V809.16H210.081V830.92C210.081 833.96 211.761 835 214.161 835C215.521 835 217.361 834.92 217.361 834.92V842.92C217.361 842.92 214.881 843.08 210.561 843.08C205.281 843.08 199.441 841 199.441 833.24V809.16H193.761ZM241.773 844.2C229.053 844.2 220.333 834.76 220.333 822.52C220.333 810.28 229.053 800.84 241.773 800.84C254.493 800.84 263.213 810.28 263.213 822.52C263.213 834.76 254.493 844.2 241.773 844.2ZM241.773 835.88C248.413 835.88 252.173 830.52 252.173 822.52C252.173 814.52 248.413 809.08 241.773 809.08C235.053 809.08 231.373 814.52 231.373 822.52C231.373 830.52 235.053 835.88 241.773 835.88ZM278.75 801.96V808.52H278.99C281.47 803.88 284.27 801.48 289.07 801.48C290.27 801.48 290.99 801.56 291.63 801.8V811.32H291.39C284.27 810.6 279.15 814.36 279.15 823V843H268.27V801.96H278.75ZM296.317 843V801.96H307.197V843H296.317ZM296.317 795.56V785.8H307.197V795.56H296.317ZM324.848 801.96V807.56H325.088C327.888 803.16 331.648 800.84 337.248 800.84C345.728 800.84 351.408 807.24 351.408 816.2V843H340.528V817.8C340.528 813.4 337.968 810.28 333.408 810.28C328.608 810.28 325.088 814.12 325.088 819.72V843H314.208V801.96H324.848ZM376.194 857C364.994 857 358.114 852.2 356.994 844.2H367.794C368.674 846.76 370.994 848.76 376.034 848.76C382.194 848.76 385.154 845.8 385.154 840.2V835.72H384.914C382.514 838.44 379.394 840.52 374.194 840.52C365.074 840.52 356.114 833.32 356.114 820.92C356.114 808.68 363.474 800.84 373.874 800.84C378.994 800.84 382.754 802.84 385.234 806.28H385.394V801.96H395.874V839.88C395.874 845.64 394.034 849.56 390.994 852.36C387.554 855.56 382.274 857 376.194 857ZM376.034 831.8C382.914 831.8 385.714 826.76 385.714 820.68C385.714 814.68 382.514 809.56 375.954 809.56C370.434 809.56 366.754 813.88 366.754 820.76C366.754 827.72 370.434 831.8 376.034 831.8Z" fill="#0B8600"/>
<rect x="18" y="18" width="289.308" height="74.7267" rx="37.3634" stroke="#0B8600" stroke-width="3.85901"/>
<path d="M33.5541 68.8633L43.8139 39.4023H49.9945L60.378 68.8633H54.1562L52.1784 62.6002H41.5477L39.6111 68.8633H33.5541ZM45.5857 49.5385L42.9486 58.0266H50.7362L48.0991 49.5385C47.6047 47.9728 46.9042 45.0061 46.9042 45.0061H46.8218C46.8218 45.0061 46.0801 47.9728 45.5857 49.5385ZM62.8576 68.8633V39.4023H75.7958C79.2157 39.4023 81.7704 40.3912 83.5009 42.163C85.1491 43.8523 86.138 46.1598 86.138 48.8793C86.138 54.4418 82.4708 58.1914 76.2902 58.1914H69.0383V68.8633H62.8576ZM69.0383 44.594V53.3293H75.2189C78.3504 53.3293 79.9986 51.5987 79.9986 48.9205C79.9986 46.1598 78.268 44.594 75.3013 44.594H69.0383ZM89.0931 68.8633V39.4023H102.031C105.451 39.4023 108.006 40.3912 109.736 42.163C111.385 43.8523 112.373 46.1598 112.373 48.8793C112.373 54.4418 108.706 58.1914 102.526 58.1914H95.2737V68.8633H89.0931ZM95.2737 44.594V53.3293H101.454C104.586 53.3293 106.234 51.5987 106.234 48.9205C106.234 46.1598 104.503 44.594 101.537 44.594H95.2737ZM115.329 68.8633V39.4023H121.303V63.8776H135.148V68.8633H115.329ZM138.386 68.8633V39.4023H144.361V68.8633H138.386ZM161.825 69.4813C153.543 69.4813 147.65 63.0947 147.65 54.2358C147.65 45.5005 153.089 38.8254 161.783 38.8254C169.035 38.8254 173.321 43.1519 173.939 48.7556H168.005C167.47 45.7889 165.245 43.8523 161.783 43.8523C156.344 43.8523 153.749 48.3848 153.749 54.2358C153.749 60.2516 156.88 64.578 161.825 64.578C165.327 64.578 167.799 62.4766 168.17 59.3863H174.021C173.856 61.9822 172.744 64.4956 170.766 66.3498C168.747 68.2452 165.904 69.4813 161.825 69.4813ZM174.147 68.8633L184.407 39.4023H190.588L200.971 68.8633H194.749L192.772 62.6002H182.141L180.204 68.8633H174.147ZM186.179 49.5385L183.542 58.0266H191.329L188.692 49.5385C188.198 47.9728 187.497 45.0061 187.497 45.0061H187.415C187.415 45.0061 186.673 47.9728 186.179 49.5385ZM198.224 44.4292V39.4023H221.917V44.4292H213.058V68.8633H207.083V44.4292H198.224ZM224.979 68.8633V39.4023H230.954V68.8633H224.979ZM248.459 69.5225C239.765 69.5225 234.244 63.0123 234.244 54.1946C234.244 45.3769 239.765 38.8254 248.459 38.8254C257.153 38.8254 262.633 45.3769 262.633 54.1946C262.633 63.0123 257.153 69.5225 248.459 69.5225ZM248.5 64.6193C253.898 64.6193 256.535 60.0456 256.535 54.1946C256.535 48.3024 253.898 43.7287 248.5 43.7287C243.102 43.7287 240.342 48.3024 240.342 54.1946C240.342 60.0456 243.102 64.6193 248.5 64.6193ZM265.901 68.8633V39.4023H271.958L281.764 55.8428C282.712 57.4497 283.825 59.9632 283.825 59.9632H283.907C283.907 59.9632 283.742 56.9141 283.742 54.8539V39.4023H289.634V68.8633H283.866L273.812 52.5876C272.864 51.0219 271.711 48.5084 271.711 48.5084H271.628C271.628 48.5084 271.793 51.5987 271.793 53.6589V68.8633H265.901Z" fill="#0B8600"/>
</svg>
