<svg width="613" height="884" viewBox="0 0 613 884" fill="none" xmlns="http://www.w3.org/2000/svg">
<path d="M0 52.0011C0 23.2823 23.2811 0.00112424 51.9999 0.00104171L361.5 0.000152305C390.771 6.81895e-05 414.5 23.729 414.5 53.0002V70.0008C414.5 142.35 473.15 201 545.499 201.001L560 201.001C589.271 201.001 613 224.73 613 254.001V872.001C613 878.629 607.627 884.001 601 884.001H12C5.37257 884.001 0 878.629 0 872.001V52.0011Z" fill="#ECC5FE"/>
<rect x="451" width="162" height="162" rx="81" fill="#ECC5FE"/>
<path d="M512.055 106.5C512.45 96.1478 518.93 89.8259 525.094 85.0054C531.89 79.6317 539.318 75.8385 539.318 68.8844C539.318 63.8268 536.631 60.4288 531.811 60.4288C526.358 60.4288 523.118 64.38 522.96 71.4132H512.845C512.845 59.0854 519.167 51.2619 532.048 51.2619C543.822 51.2619 550.46 59.2434 550.46 68.5683C550.46 78.7624 543.506 83.5829 536.868 88.0083C532.68 90.6951 527.78 94.1722 525.963 97.6493H550.935V106.5H512.055Z" fill="#AA3BEC"/>
<g opacity="0.3">
<circle cx="1.47356" cy="1.47356" r="1.47356" transform="matrix(1 0 0 -1 26.5234 218.734)" fill="#3F0065" fill-opacity="0.25"/>
<circle cx="1.47356" cy="1.47356" r="1.47356" transform="matrix(1 0 0 -1 82.5156 218.734)" fill="#3F0065" fill-opacity="0.25"/>
<circle cx="1.47356" cy="1.47356" r="1.47356" transform="matrix(1 0 0 -1 138.516 218.734)" fill="#3F0065" fill-opacity="0.25"/>
<circle cx="1.47356" cy="1.47356" r="1.47356" transform="matrix(1 0 0 -1 193.039 218.734)" fill="#3F0065" fill-opacity="0.25"/>
<circle cx="1.47356" cy="1.47356" r="1.47356" transform="matrix(1 0 0 -1 249.031 218.734)" fill="#3F0065" fill-opacity="0.25"/>
<circle cx="1.47356" cy="1.47356" r="1.47356" transform="matrix(1 0 0 -1 305.023 218.734)" fill="#3F0065" fill-opacity="0.25"/>
<circle cx="1.47356" cy="1.47356" r="1.47356" transform="matrix(1 0 0 -1 361.023 218.734)" fill="#3F0065" fill-opacity="0.25"/>
<circle cx="1.47356" cy="1.47356" r="1.47356" transform="matrix(1 0 0 -1 417.016 218.734)" fill="#3F0065" fill-opacity="0.25"/>
<circle cx="1.47356" cy="1.47356" r="1.47356" transform="matrix(1 0 0 -1 473.008 218.734)" fill="#3F0065" fill-opacity="0.25"/>
<circle cx="1.47356" cy="1.47356" r="1.47356" transform="matrix(1 0 0 -1 527.531 218.734)" fill="#3F0065" fill-opacity="0.25"/>
<circle cx="1.47356" cy="1.47356" r="1.47356" transform="matrix(1 0 0 -1 583.531 218.734)" fill="#3F0065" fill-opacity="0.25"/>
<circle cx="1.47356" cy="1.47356" r="1.47356" transform="matrix(1 0 0 -1 26.5234 273.258)" fill="#3F0065" fill-opacity="0.5"/>
<circle cx="1.47356" cy="1.47356" r="1.47356" transform="matrix(1 0 0 -1 82.5156 273.258)" fill="#3F0065" fill-opacity="0.5"/>
<circle cx="1.47356" cy="1.47356" r="1.47356" transform="matrix(1 0 0 -1 138.516 273.258)" fill="#3F0065" fill-opacity="0.5"/>
<circle cx="1.47356" cy="1.47356" r="1.47356" transform="matrix(1 0 0 -1 193.039 273.258)" fill="#3F0065" fill-opacity="0.5"/>
<circle cx="1.47356" cy="1.47356" r="1.47356" transform="matrix(1 0 0 -1 249.031 273.258)" fill="#3F0065" fill-opacity="0.5"/>
<circle cx="1.47356" cy="1.47356" r="1.47356" transform="matrix(1 0 0 -1 305.023 273.258)" fill="#3F0065"/>
<circle cx="1.47356" cy="1.47356" r="1.47356" transform="matrix(1 0 0 -1 361.023 273.258)" fill="#3F0065" fill-opacity="0.5"/>
<circle cx="1.47356" cy="1.47356" r="1.47356" transform="matrix(1 0 0 -1 417.016 273.258)" fill="#3F0065" fill-opacity="0.5"/>
<circle cx="1.47356" cy="1.47356" r="1.47356" transform="matrix(1 0 0 -1 473.008 273.258)" fill="#3F0065" fill-opacity="0.5"/>
<circle cx="1.47356" cy="1.47356" r="1.47356" transform="matrix(1 0 0 -1 527.531 273.258)" fill="#3F0065" fill-opacity="0.5"/>
<circle cx="1.47356" cy="1.47356" r="1.47356" transform="matrix(1 0 0 -1 583.531 273.258)" fill="#3F0065" fill-opacity="0.5"/>
<circle cx="1.47356" cy="1.47356" r="1.47356" transform="matrix(1 0 0 -1 26.5234 327.777)" fill="#3F0065"/>
<circle cx="1.47356" cy="1.47356" r="1.47356" transform="matrix(1 0 0 -1 82.5156 327.777)" fill="#3F0065"/>
<circle cx="1.47356" cy="1.47356" r="1.47356" transform="matrix(1 0 0 -1 138.516 327.777)" fill="#3F0065"/>
<circle cx="1.47356" cy="1.47356" r="1.47356" transform="matrix(1 0 0 -1 193.039 327.777)" fill="#3F0065"/>
<circle cx="1.47356" cy="1.47356" r="1.47356" transform="matrix(1 0 0 -1 249.031 327.777)" fill="#3F0065"/>
<circle cx="1.47356" cy="1.47356" r="1.47356" transform="matrix(1 0 0 -1 305.023 327.777)" fill="#3F0065"/>
<circle cx="1.47356" cy="1.47356" r="1.47356" transform="matrix(1 0 0 -1 361.023 327.777)" fill="#3F0065"/>
<circle cx="1.47356" cy="1.47356" r="1.47356" transform="matrix(1 0 0 -1 417.016 327.777)" fill="#3F0065"/>
<circle cx="1.47356" cy="1.47356" r="1.47356" transform="matrix(1 0 0 -1 473.008 327.777)" fill="#3F0065"/>
<circle cx="1.47356" cy="1.47356" r="1.47356" transform="matrix(1 0 0 -1 527.531 327.777)" fill="#3F0065"/>
<circle cx="1.47356" cy="1.47356" r="1.47356" transform="matrix(1 0 0 -1 583.531 327.777)" fill="#3F0065"/>
<circle cx="1.47356" cy="1.47356" r="1.47356" transform="matrix(1 0 0 -1 26.5234 382.301)" fill="#3F0065"/>
<circle cx="1.47356" cy="1.47356" r="1.47356" transform="matrix(1 0 0 -1 82.5156 382.301)" fill="#3F0065"/>
<circle cx="1.47356" cy="1.47356" r="1.47356" transform="matrix(1 0 0 -1 138.516 382.301)" fill="#3F0065"/>
<circle cx="1.47356" cy="1.47356" r="1.47356" transform="matrix(1 0 0 -1 193.039 382.301)" fill="#3F0065"/>
<circle cx="1.47356" cy="1.47356" r="1.47356" transform="matrix(1 0 0 -1 249.031 382.301)" fill="#3F0065"/>
<circle cx="1.47356" cy="1.47356" r="1.47356" transform="matrix(1 0 0 -1 305.023 382.301)" fill="#3F0065"/>
<circle cx="1.47356" cy="1.47356" r="1.47356" transform="matrix(1 0 0 -1 361.023 382.301)" fill="#3F0065"/>
<circle cx="1.47356" cy="1.47356" r="1.47356" transform="matrix(1 0 0 -1 417.016 382.301)" fill="#3F0065"/>
<circle cx="1.47356" cy="1.47356" r="1.47356" transform="matrix(1 0 0 -1 473.008 382.301)" fill="#3F0065"/>
<circle cx="1.47356" cy="1.47356" r="1.47356" transform="matrix(1 0 0 -1 527.531 382.301)" fill="#3F0065"/>
<circle cx="1.47356" cy="1.47356" r="1.47356" transform="matrix(1 0 0 -1 583.531 382.301)" fill="#3F0065"/>
<circle cx="1.47356" cy="1.47356" r="1.47356" transform="matrix(1 0 0 -1 26.5234 436.82)" fill="#3F0065"/>
<circle cx="1.47356" cy="1.47356" r="1.47356" transform="matrix(1 0 0 -1 82.5156 436.82)" fill="#3F0065"/>
<circle cx="1.47356" cy="1.47356" r="1.47356" transform="matrix(1 0 0 -1 138.516 436.82)" fill="#3F0065"/>
<circle cx="1.47356" cy="1.47356" r="1.47356" transform="matrix(1 0 0 -1 193.039 436.82)" fill="#3F0065"/>
<circle cx="1.47356" cy="1.47356" r="1.47356" transform="matrix(1 0 0 -1 249.031 436.82)" fill="#3F0065"/>
<circle cx="1.47356" cy="1.47356" r="1.47356" transform="matrix(1 0 0 -1 305.023 436.82)" fill="#3F0065"/>
<circle cx="1.47356" cy="1.47356" r="1.47356" transform="matrix(1 0 0 -1 361.023 436.82)" fill="#3F0065"/>
<circle cx="1.47356" cy="1.47356" r="1.47356" transform="matrix(1 0 0 -1 417.016 436.82)" fill="#3F0065"/>
<circle cx="1.47356" cy="1.47356" r="1.47356" transform="matrix(1 0 0 -1 473.008 436.82)" fill="#3F0065"/>
<circle cx="1.47356" cy="1.47356" r="1.47356" transform="matrix(1 0 0 -1 527.531 436.82)" fill="#3F0065"/>
<circle cx="1.47356" cy="1.47356" r="1.47356" transform="matrix(1 0 0 -1 583.531 436.82)" fill="#3F0065"/>
<circle cx="1.47356" cy="1.47356" r="1.47356" transform="matrix(1 0 0 -1 26.5234 492.082)" fill="#3F0065"/>
<circle cx="1.47356" cy="1.47356" r="1.47356" transform="matrix(1 0 0 -1 82.5156 492.082)" fill="#3F0065"/>
<circle cx="1.47356" cy="1.47356" r="1.47356" transform="matrix(1 0 0 -1 138.516 492.082)" fill="#3F0065"/>
<circle cx="1.47356" cy="1.47356" r="1.47356" transform="matrix(1 0 0 -1 193.039 492.082)" fill="#3F0065"/>
<circle cx="1.47356" cy="1.47356" r="1.47356" transform="matrix(1 0 0 -1 249.031 492.082)" fill="#3F0065"/>
<circle cx="1.47356" cy="1.47356" r="1.47356" transform="matrix(1 0 0 -1 305.023 492.082)" fill="#3F0065"/>
<circle cx="1.47356" cy="1.47356" r="1.47356" transform="matrix(1 0 0 -1 361.023 492.082)" fill="#3F0065"/>
<circle cx="1.47356" cy="1.47356" r="1.47356" transform="matrix(1 0 0 -1 417.016 492.082)" fill="#3F0065"/>
<circle cx="1.47356" cy="1.47356" r="1.47356" transform="matrix(1 0 0 -1 473.008 492.082)" fill="#3F0065"/>
<circle cx="1.47356" cy="1.47356" r="1.47356" transform="matrix(1 0 0 -1 527.531 492.082)" fill="#3F0065"/>
<circle cx="1.47356" cy="1.47356" r="1.47356" transform="matrix(1 0 0 -1 583.531 492.082)" fill="#3F0065"/>
<circle cx="1.47356" cy="1.47356" r="1.47356" transform="matrix(1 0 0 -1 26.5234 547.336)" fill="#3F0065"/>
<circle cx="1.47356" cy="1.47356" r="1.47356" transform="matrix(1 0 0 -1 82.5156 547.336)" fill="#3F0065"/>
<circle cx="1.47356" cy="1.47356" r="1.47356" transform="matrix(1 0 0 -1 138.516 547.336)" fill="#3F0065"/>
<circle cx="1.47356" cy="1.47356" r="1.47356" transform="matrix(1 0 0 -1 193.039 547.336)" fill="#3F0065"/>
<circle cx="1.47356" cy="1.47356" r="1.47356" transform="matrix(1 0 0 -1 249.031 547.336)" fill="#3F0065"/>
<circle cx="1.47356" cy="1.47356" r="1.47356" transform="matrix(1 0 0 -1 305.023 547.336)" fill="#3F0065"/>
<circle cx="1.47356" cy="1.47356" r="1.47356" transform="matrix(1 0 0 -1 361.023 547.336)" fill="#3F0065"/>
<circle cx="1.47356" cy="1.47356" r="1.47356" transform="matrix(1 0 0 -1 417.016 547.336)" fill="#3F0065"/>
<circle cx="1.47356" cy="1.47356" r="1.47356" transform="matrix(1 0 0 -1 473.008 547.336)" fill="#3F0065"/>
<circle cx="1.47356" cy="1.47356" r="1.47356" transform="matrix(1 0 0 -1 527.531 547.336)" fill="#3F0065"/>
<circle cx="1.47356" cy="1.47356" r="1.47356" transform="matrix(1 0 0 -1 583.531 547.336)" fill="#3F0065"/>
<circle cx="1.47356" cy="1.47356" r="1.47356" transform="matrix(1 0 0 -1 26.5234 601.859)" fill="#3F0065"/>
<circle cx="1.47356" cy="1.47356" r="1.47356" transform="matrix(1 0 0 -1 82.5156 601.859)" fill="#3F0065"/>
<circle cx="1.47356" cy="1.47356" r="1.47356" transform="matrix(1 0 0 -1 138.516 601.859)" fill="#3F0065"/>
<circle cx="1.47356" cy="1.47356" r="1.47356" transform="matrix(1 0 0 -1 193.039 601.859)" fill="#3F0065"/>
<circle cx="1.47356" cy="1.47356" r="1.47356" transform="matrix(1 0 0 -1 249.031 601.859)" fill="#3F0065"/>
<circle cx="1.47356" cy="1.47356" r="1.47356" transform="matrix(1 0 0 -1 305.023 601.859)" fill="#3F0065"/>
<circle cx="1.47356" cy="1.47356" r="1.47356" transform="matrix(1 0 0 -1 361.023 601.859)" fill="#3F0065"/>
<circle cx="1.47356" cy="1.47356" r="1.47356" transform="matrix(1 0 0 -1 417.016 601.859)" fill="#3F0065"/>
<circle cx="1.47356" cy="1.47356" r="1.47356" transform="matrix(1 0 0 -1 473.008 601.859)" fill="#3F0065"/>
<circle cx="1.47356" cy="1.47356" r="1.47356" transform="matrix(1 0 0 -1 527.531 601.859)" fill="#3F0065"/>
<circle cx="1.47356" cy="1.47356" r="1.47356" transform="matrix(1 0 0 -1 583.531 601.859)" fill="#3F0065"/>
<circle cx="1.47356" cy="1.47356" r="1.47356" transform="matrix(1 0 0 -1 26.5234 656.383)" fill="#3F0065"/>
<circle cx="1.47356" cy="1.47356" r="1.47356" transform="matrix(1 0 0 -1 82.5156 656.383)" fill="#3F0065"/>
<circle cx="1.47356" cy="1.47356" r="1.47356" transform="matrix(1 0 0 -1 138.516 656.383)" fill="#3F0065"/>
<circle cx="1.47356" cy="1.47356" r="1.47356" transform="matrix(1 0 0 -1 193.039 656.383)" fill="#3F0065"/>
<circle cx="1.47356" cy="1.47356" r="1.47356" transform="matrix(1 0 0 -1 249.031 656.383)" fill="#3F0065"/>
<circle cx="1.47356" cy="1.47356" r="1.47356" transform="matrix(1 0 0 -1 305.023 656.383)" fill="#3F0065"/>
<circle cx="1.47356" cy="1.47356" r="1.47356" transform="matrix(1 0 0 -1 361.023 656.383)" fill="#3F0065"/>
<circle cx="1.47356" cy="1.47356" r="1.47356" transform="matrix(1 0 0 -1 417.016 656.383)" fill="#3F0065"/>
<circle cx="1.47356" cy="1.47356" r="1.47356" transform="matrix(1 0 0 -1 473.008 656.383)" fill="#3F0065"/>
<circle cx="1.47356" cy="1.47356" r="1.47356" transform="matrix(1 0 0 -1 527.531 656.383)" fill="#3F0065"/>
<circle cx="1.47356" cy="1.47356" r="1.47356" transform="matrix(1 0 0 -1 583.531 656.383)" fill="#3F0065"/>
<circle cx="1.47356" cy="1.47356" r="1.47356" transform="matrix(1 0 0 -1 26.5234 710.902)" fill="#3F0065" fill-opacity="0.5"/>
<circle cx="1.47356" cy="1.47356" r="1.47356" transform="matrix(1 0 0 -1 82.5156 710.902)" fill="#3F0065"/>
<circle cx="1.47356" cy="1.47356" r="1.47356" transform="matrix(1 0 0 -1 138.516 710.902)" fill="#3F0065" fill-opacity="0.5"/>
<circle cx="1.47356" cy="1.47356" r="1.47356" transform="matrix(1 0 0 -1 193.039 710.902)" fill="#3F0065" fill-opacity="0.5"/>
<circle cx="1.47356" cy="1.47356" r="1.47356" transform="matrix(1 0 0 -1 249.031 710.902)" fill="#3F0065" fill-opacity="0.5"/>
<circle cx="1.47356" cy="1.47356" r="1.47356" transform="matrix(1 0 0 -1 305.023 710.902)" fill="#3F0065" fill-opacity="0.5"/>
<circle cx="1.47356" cy="1.47356" r="1.47356" transform="matrix(1 0 0 -1 361.023 710.902)" fill="#3F0065" fill-opacity="0.5"/>
<circle cx="1.47356" cy="1.47356" r="1.47356" transform="matrix(1 0 0 -1 417.016 710.902)" fill="#3F0065" fill-opacity="0.5"/>
<circle cx="1.47356" cy="1.47356" r="1.47356" transform="matrix(1 0 0 -1 473.008 710.902)" fill="#3F0065" fill-opacity="0.5"/>
<circle cx="1.47356" cy="1.47356" r="1.47356" transform="matrix(1 0 0 -1 527.531 710.902)" fill="#3F0065" fill-opacity="0.5"/>
<circle cx="1.47356" cy="1.47356" r="1.47356" transform="matrix(1 0 0 -1 583.531 710.902)" fill="#3F0065" fill-opacity="0.5"/>
<circle cx="1.47356" cy="1.47356" r="1.47356" transform="matrix(1 0 0 -1 26.5234 765.426)" fill="#3F0065" fill-opacity="0.25"/>
<circle cx="1.47356" cy="1.47356" r="1.47356" transform="matrix(1 0 0 -1 82.5156 765.426)" fill="#3F0065" fill-opacity="0.25"/>
<circle cx="1.47356" cy="1.47356" r="1.47356" transform="matrix(1 0 0 -1 138.516 765.426)" fill="#3F0065" fill-opacity="0.25"/>
<circle cx="1.47356" cy="1.47356" r="1.47356" transform="matrix(1 0 0 -1 193.039 765.426)" fill="#3F0065" fill-opacity="0.25"/>
<circle cx="1.47356" cy="1.47356" r="1.47356" transform="matrix(1 0 0 -1 249.031 765.426)" fill="#3F0065" fill-opacity="0.25"/>
<circle cx="1.47356" cy="1.47356" r="1.47356" transform="matrix(1 0 0 -1 305.023 765.426)" fill="#3F0065" fill-opacity="0.25"/>
<circle cx="1.47356" cy="1.47356" r="1.47356" transform="matrix(1 0 0 -1 361.023 765.426)" fill="#3F0065" fill-opacity="0.25"/>
<circle cx="1.47356" cy="1.47356" r="1.47356" transform="matrix(1 0 0 -1 417.016 765.426)" fill="#3F0065" fill-opacity="0.25"/>
<circle cx="1.47356" cy="1.47356" r="1.47356" transform="matrix(1 0 0 -1 473.008 765.426)" fill="#3F0065" fill-opacity="0.25"/>
<circle cx="1.47356" cy="1.47356" r="1.47356" transform="matrix(1 0 0 -1 527.531 765.426)" fill="#3F0065" fill-opacity="0.25"/>
<circle cx="1.47356" cy="1.47356" r="1.47356" transform="matrix(1 0 0 -1 583.531 765.426)" fill="#3F0065" fill-opacity="0.25"/>
</g>
<path d="M22.4 651V593.8H44.72C60 593.8 69.84 606.12 69.84 623C69.84 632.28 66.72 640.44 60.72 645.48C56.48 649 50.96 651 43.76 651H22.4ZM34 641H42.96C53.84 641 58.08 634.36 58.08 623C58.08 611.64 53.12 603.72 43.28 603.72H34V641ZM111.67 651H101.19V646.2H100.95C98.15 649.96 94.95 652.12 89.19 652.12C80.07 652.12 74.95 646.28 74.95 637.32V609.96H85.75V635.48C85.75 640.28 87.91 642.92 92.55 642.92C97.67 642.92 100.79 639.08 100.79 633.64V609.96H111.67V651ZM129.188 609.96V616.52H129.428C131.908 611.88 134.708 609.48 139.508 609.48C140.708 609.48 141.428 609.56 142.068 609.8V619.32H141.828C134.708 618.6 129.588 622.36 129.588 631V651H118.708V609.96H129.188ZM164.863 652.2C151.263 652.2 143.583 642.68 143.583 630.44C143.583 618.28 151.823 608.84 163.823 608.84C177.023 608.84 184.063 618.92 184.063 633.56H154.303C155.103 639.88 158.623 643.8 164.783 643.8C169.023 643.8 171.503 641.88 172.703 638.76H183.423C181.903 646.04 175.423 652.2 164.863 652.2ZM163.983 617.24C158.223 617.24 155.423 620.68 154.463 626.04H172.703C172.383 620.84 168.943 617.24 163.983 617.24ZM176.623 593.56L167.983 604.84H159.503L163.903 593.56H176.623ZM208.378 652.2C194.778 652.2 187.098 642.68 187.098 630.44C187.098 618.28 195.338 608.84 207.338 608.84C220.538 608.84 227.578 618.92 227.578 633.56H197.818C198.618 639.88 202.138 643.8 208.298 643.8C212.538 643.8 215.018 641.88 216.218 638.76H226.938C225.418 646.04 218.938 652.2 208.378 652.2ZM207.498 617.24C201.738 617.24 198.938 620.68 197.978 626.04H216.218C215.898 620.84 212.458 617.24 207.498 617.24ZM261.411 652.2C251.091 652.2 244.051 643.8 244.051 630.52C244.051 617.72 251.331 608.84 261.571 608.84C267.331 608.84 270.931 611.48 273.171 614.92H273.411V593.8H284.291V651H273.811V645.64H273.651C271.251 649.56 267.171 652.2 261.411 652.2ZM263.811 643.08C270.291 643.08 273.651 638.28 273.651 630.76C273.651 622.92 271.091 617.64 264.131 617.64C258.131 617.64 255.091 622.92 255.091 630.52C255.091 638.44 258.211 643.08 263.811 643.08ZM310.644 652.2C297.044 652.2 289.364 642.68 289.364 630.44C289.364 618.28 297.604 608.84 309.604 608.84C322.804 608.84 329.844 618.92 329.844 633.56H300.084C300.884 639.88 304.404 643.8 310.564 643.8C314.804 643.8 317.284 641.88 318.484 638.76H329.204C327.684 646.04 321.204 652.2 310.644 652.2ZM309.764 617.24C304.004 617.24 301.204 620.68 300.244 626.04H318.484C318.164 620.84 314.724 617.24 309.764 617.24ZM359.197 651L344.957 609.96H355.997L362.557 631.24C363.757 635.16 364.397 637.8 364.397 637.8H364.557C364.557 637.8 365.117 635.16 366.317 631.24L373.037 609.96H383.917L369.597 651H359.197ZM387.614 651V609.96H398.494V651H387.614ZM387.614 603.56V593.8H398.494V603.56H387.614ZM424.784 652.2C411.184 652.2 403.504 642.68 403.504 630.44C403.504 618.28 411.744 608.84 423.744 608.84C436.944 608.84 443.984 618.92 443.984 633.56H414.224C415.024 639.88 418.544 643.8 424.704 643.8C428.944 643.8 431.424 641.88 432.624 638.76H443.344C441.824 646.04 435.344 652.2 424.784 652.2ZM423.904 617.24C418.144 617.24 415.344 620.68 414.384 626.04H432.624C432.304 620.84 428.864 617.24 423.904 617.24ZM477.818 652.2C467.498 652.2 460.458 643.8 460.458 630.52C460.458 617.72 467.738 608.84 477.978 608.84C483.738 608.84 487.338 611.48 489.578 614.92H489.818V593.8H500.698V651H490.218V645.64H490.058C487.658 649.56 483.578 652.2 477.818 652.2ZM480.218 643.08C486.698 643.08 490.058 638.28 490.058 630.76C490.058 622.92 487.498 617.64 480.538 617.64C474.538 617.64 471.498 622.92 471.498 630.52C471.498 638.44 474.618 643.08 480.218 643.08ZM527.05 652.2C513.45 652.2 505.77 642.68 505.77 630.44C505.77 618.28 514.01 608.84 526.01 608.84C539.21 608.84 546.25 618.92 546.25 633.56H516.49C517.29 639.88 520.81 643.8 526.97 643.8C531.21 643.8 533.69 641.88 534.89 638.76H545.61C544.09 646.04 537.61 652.2 527.05 652.2ZM526.17 617.24C520.41 617.24 517.61 620.68 516.65 626.04H534.89C534.57 620.84 531.13 617.24 526.17 617.24ZM567.926 652.2C556.006 652.2 549.366 646.44 548.726 637.72H558.806C559.526 642.44 562.886 644.52 567.766 644.52C572.566 644.52 575.286 642.68 575.286 639.8C575.286 635.88 570.086 635.48 564.486 634.36C557.126 632.92 549.926 630.92 549.926 621.96C549.926 613.08 557.286 608.84 566.646 608.84C577.446 608.84 583.446 614.2 584.246 622.44H574.406C573.926 618.04 571.126 616.44 566.486 616.44C562.246 616.44 559.446 618.04 559.446 621C559.446 624.52 564.886 624.84 570.726 626.04C577.606 627.48 585.206 629.4 585.206 639C585.206 647.24 578.166 652.2 567.926 652.2ZM21.52 760.44V705.96H32V711.08H32.24C34.88 707.48 38.72 704.84 44.32 704.84C55.2 704.84 62.16 713.72 62.16 726.52C62.16 739.8 54.96 748.2 44.4 748.2C38.64 748.2 34.88 745.88 32.56 742.36H32.4V760.44H21.52ZM42.08 739.16C47.6 739.16 51.12 734.6 51.12 726.84C51.12 719.08 48.4 713.64 41.68 713.64C34.88 713.64 32.16 719.48 32.16 726.84C32.16 734.28 35.6 739.16 42.08 739.16ZM67.3831 747V689.8H78.2631V747H67.3831ZM111.266 747C110.626 746.2 110.226 744.28 109.986 742.44H109.826C107.746 745.56 104.786 747.96 97.7463 747.96C89.3463 747.96 83.4263 743.56 83.4263 735.4C83.4263 726.36 90.7863 723.48 99.9063 722.2C106.706 721.24 109.826 720.68 109.826 717.56C109.826 714.6 107.506 712.68 102.946 712.68C97.8263 712.68 95.3463 714.52 95.0263 718.44H85.3463C85.6663 711.24 91.0263 704.92 103.026 704.92C115.346 704.92 120.306 710.44 120.306 720.04V740.92C120.306 744.04 120.786 745.88 121.746 746.6V747H111.266ZM100.386 740.36C106.626 740.36 110.066 736.52 110.066 732.52V726.36C108.146 727.48 105.186 728.12 102.466 728.76C96.7863 730.04 93.9863 731.32 93.9863 735.16C93.9863 739 96.5463 740.36 100.386 740.36ZM137.863 705.96V711.56H138.103C140.903 707.16 144.663 704.84 150.263 704.84C158.743 704.84 164.423 711.24 164.423 720.2V747H153.543V721.8C153.543 717.4 150.983 714.28 146.423 714.28C141.623 714.28 138.103 718.12 138.103 723.72V747H127.223V705.96H137.863ZM167.948 713.16V705.96H173.628V693.16H184.268V705.96H191.308V713.16H184.268V734.92C184.268 737.96 185.948 739 188.348 739C189.708 739 191.548 738.92 191.548 738.92V746.92C191.548 746.92 189.068 747.08 184.748 747.08C179.468 747.08 173.628 745 173.628 737.24V713.16H167.948ZM215.8 748.2C202.2 748.2 194.52 738.68 194.52 726.44C194.52 714.28 202.76 704.84 214.76 704.84C227.96 704.84 235 714.92 235 729.56H205.24C206.04 735.88 209.56 739.8 215.72 739.8C219.96 739.8 222.44 737.88 223.64 734.76H234.36C232.84 742.04 226.36 748.2 215.8 748.2ZM214.92 713.24C209.16 713.24 206.36 716.68 205.4 722.04H223.64C223.32 716.84 219.88 713.24 214.92 713.24ZM256.676 748.2C244.756 748.2 238.116 742.44 237.476 733.72H247.556C248.276 738.44 251.636 740.52 256.516 740.52C261.316 740.52 264.036 738.68 264.036 735.8C264.036 731.88 258.836 731.48 253.236 730.36C245.876 728.92 238.676 726.92 238.676 717.96C238.676 709.08 246.036 704.84 255.396 704.84C266.196 704.84 272.196 710.2 272.996 718.44H263.156C262.676 714.04 259.876 712.44 255.236 712.44C250.996 712.44 248.196 714.04 248.196 717C248.196 720.52 253.636 720.84 259.476 722.04C266.356 723.48 273.956 725.4 273.956 735C273.956 743.24 266.916 748.2 256.676 748.2ZM290.861 747C291.261 736.52 297.821 730.12 304.061 725.24C310.941 719.8 318.461 715.96 318.461 708.92C318.461 703.8 315.741 700.36 310.861 700.36C305.341 700.36 302.061 704.36 301.901 711.48H291.661C291.661 699 298.061 691.08 311.101 691.08C323.021 691.08 329.741 699.16 329.741 708.6C329.741 718.92 322.701 723.8 315.981 728.28C311.741 731 306.781 734.52 304.941 738.04H330.221V747H290.861ZM375.329 747C374.689 746.2 374.289 744.28 374.049 742.44H373.889C371.809 745.56 368.849 747.96 361.809 747.96C353.409 747.96 347.489 743.56 347.489 735.4C347.489 726.36 354.849 723.48 363.969 722.2C370.769 721.24 373.889 720.68 373.889 717.56C373.889 714.6 371.569 712.68 367.009 712.68C361.889 712.68 359.409 714.52 359.089 718.44H349.409C349.729 711.24 355.089 704.92 367.089 704.92C379.409 704.92 384.369 710.44 384.369 720.04V740.92C384.369 744.04 384.849 745.88 385.809 746.6V747H375.329ZM364.449 740.36C370.689 740.36 374.129 736.52 374.129 732.52V726.36C372.209 727.48 369.249 728.12 366.529 728.76C360.849 730.04 358.049 731.32 358.049 735.16C358.049 739 360.609 740.36 364.449 740.36ZM363.329 700.84L354.689 689.56H367.409L371.809 700.84H363.329ZM424.003 748.2C409.843 748.2 402.563 740.36 402.403 728.36H412.803C413.203 734.92 416.083 739.48 423.603 739.48C429.683 739.48 433.283 736.2 433.283 730.6C433.283 725.32 429.923 722.12 423.203 722.12H419.843V713.88H422.963C428.163 713.88 431.843 711.24 431.843 706.6C431.843 702.28 428.883 699.4 424.083 699.4C417.843 699.4 414.803 703.48 414.563 709.16H404.163C404.563 698.36 411.363 691.08 424.083 691.08C435.523 691.08 442.883 696.76 442.883 705.88C442.883 712.04 438.963 715.64 433.523 717.4V717.56C440.483 719.24 444.643 723.72 444.643 731.32C444.643 742.68 435.283 748.2 424.003 748.2ZM461.151 713.48V705.96H466.751V702.28C466.751 692.28 474.511 688.76 484.991 689.88V698.28C479.871 698.04 477.631 698.68 477.631 702.92V705.96H484.991V713.48H477.631V747H466.751V713.48H461.151ZM508.226 748.2C495.506 748.2 486.786 738.76 486.786 726.52C486.786 714.28 495.506 704.84 508.226 704.84C520.946 704.84 529.666 714.28 529.666 726.52C529.666 738.76 520.946 748.2 508.226 748.2ZM508.226 739.88C514.866 739.88 518.626 734.52 518.626 726.52C518.626 718.52 514.866 713.08 508.226 713.08C501.506 713.08 497.826 718.52 497.826 726.52C497.826 734.52 501.506 739.88 508.226 739.88ZM534.723 747V705.96H545.603V747H534.723ZM534.723 699.56V689.8H545.603V699.56H534.723ZM569.254 748.2C557.334 748.2 550.694 742.44 550.054 733.72H560.134C560.854 738.44 564.214 740.52 569.094 740.52C573.894 740.52 576.614 738.68 576.614 735.8C576.614 731.88 571.414 731.48 565.814 730.36C558.454 728.92 551.254 726.92 551.254 717.96C551.254 709.08 558.614 704.84 567.974 704.84C578.774 704.84 584.774 710.2 585.574 718.44H575.734C575.254 714.04 572.454 712.44 567.814 712.44C563.574 712.44 560.774 714.04 560.774 717C560.774 720.52 566.214 720.84 572.054 722.04C578.934 723.48 586.534 725.4 586.534 735C586.534 743.24 579.494 748.2 569.254 748.2ZM38.16 844.2C26.24 844.2 19.6 838.44 18.96 829.72H29.04C29.76 834.44 33.12 836.52 38 836.52C42.8 836.52 45.52 834.68 45.52 831.8C45.52 827.88 40.32 827.48 34.72 826.36C27.36 824.92 20.16 822.92 20.16 813.96C20.16 805.08 27.52 800.84 36.88 800.84C47.68 800.84 53.68 806.2 54.48 814.44H44.64C44.16 810.04 41.36 808.44 36.72 808.44C32.48 808.44 29.68 810.04 29.68 813C29.68 816.52 35.12 816.84 40.96 818.04C47.84 819.48 55.44 821.4 55.44 831C55.44 839.24 48.4 844.2 38.16 844.2ZM96.7481 843H86.2681V838.2H86.0281C83.2281 841.96 80.0281 844.12 74.2681 844.12C65.1481 844.12 60.0281 838.28 60.0281 829.32V801.96H70.8281V827.48C70.8281 832.28 72.9881 834.92 77.6281 834.92C82.7481 834.92 85.8681 831.08 85.8681 825.64V801.96H96.7481V843ZM103.786 856.44V801.96H114.266V807.08H114.506C117.146 803.48 120.986 800.84 126.586 800.84C137.466 800.84 144.426 809.72 144.426 822.52C144.426 835.8 137.226 844.2 126.666 844.2C120.906 844.2 117.146 841.88 114.826 838.36H114.666V856.44H103.786ZM124.346 835.16C129.866 835.16 133.386 830.6 133.386 822.84C133.386 815.08 130.666 809.64 123.946 809.64C117.146 809.64 114.426 815.48 114.426 822.84C114.426 830.28 117.866 835.16 124.346 835.16ZM168.769 844.2C155.169 844.2 147.489 834.68 147.489 822.44C147.489 810.28 155.729 800.84 167.729 800.84C180.929 800.84 187.969 810.92 187.969 825.56H158.209C159.009 831.88 162.529 835.8 168.689 835.8C172.929 835.8 175.409 833.88 176.609 830.76H187.329C185.809 838.04 179.329 844.2 168.769 844.2ZM167.889 809.24C162.129 809.24 159.329 812.68 158.369 818.04H176.609C176.289 812.84 172.849 809.24 167.889 809.24ZM180.529 785.56L171.889 796.84H163.409L167.809 785.56H180.529ZM203.484 801.96V808.52H203.724C206.204 803.88 209.004 801.48 213.804 801.48C215.004 801.48 215.724 801.56 216.364 801.8V811.32H216.124C209.004 810.6 203.884 814.36 203.884 823V843H193.004V801.96H203.484ZM221.051 843V801.96H231.931V843H221.051ZM221.051 795.56V785.8H231.931V795.56H221.051ZM258.222 844.2C244.622 844.2 236.942 834.68 236.942 822.44C236.942 810.28 245.182 800.84 257.182 800.84C270.382 800.84 277.422 810.92 277.422 825.56H247.662C248.462 831.88 251.982 835.8 258.142 835.8C262.382 835.8 264.862 833.88 266.062 830.76H276.782C275.262 838.04 268.782 844.2 258.222 844.2ZM257.342 809.24C251.582 809.24 248.782 812.68 247.822 818.04H266.062C265.742 812.84 262.302 809.24 257.342 809.24ZM318.858 843H308.378V838.2H308.138C305.338 841.96 302.138 844.12 296.378 844.12C287.258 844.12 282.138 838.28 282.138 829.32V801.96H292.938V827.48C292.938 832.28 295.098 834.92 299.738 834.92C304.858 834.92 307.978 831.08 307.978 825.64V801.96H318.858V843ZM336.375 801.96V808.52H336.615C339.095 803.88 341.895 801.48 346.695 801.48C347.895 801.48 348.615 801.56 349.255 801.8V811.32H349.015C341.895 810.6 336.775 814.36 336.775 823V843H325.895V801.96H336.375ZM372.05 844.2C358.45 844.2 350.77 834.68 350.77 822.44C350.77 810.28 359.01 800.84 371.01 800.84C384.21 800.84 391.25 810.92 391.25 825.56H361.49C362.29 831.88 365.81 835.8 371.97 835.8C376.21 835.8 378.69 833.88 379.89 830.76H390.61C389.09 838.04 382.61 844.2 372.05 844.2ZM371.17 809.24C365.41 809.24 362.61 812.68 361.65 818.04H379.89C379.57 812.84 376.13 809.24 371.17 809.24Z" fill="#841DC1"/>
<rect x="18" y="18" width="235.308" height="74.7267" rx="37.3634" stroke="#8D32C2" stroke-width="3.85901"/>
<path d="M35.4654 68.8633V39.4053H43.8702L48.0314 54.1961C49.0614 57.9041 49.8854 62.1477 49.8854 62.1477H49.9678C49.9678 62.1477 50.7506 57.9041 51.7806 54.1961L55.9418 39.4053H64.4702V68.8633H58.9082V51.9713C58.9082 49.5817 59.1554 45.8737 59.1554 45.8737H59.073C59.073 45.8737 58.4138 49.3345 57.7958 51.4769L52.7282 68.8633H47.0014L42.0574 51.4769C41.4394 49.3345 40.7802 45.8737 40.7802 45.8737H40.6978C40.6978 45.8737 40.945 49.5817 40.945 51.9713V68.8633H35.4654ZM76.7253 68.8633V57.4921L66.9197 39.4053H73.4293L77.8789 48.1397C78.7853 49.9113 79.8153 52.3421 79.8153 52.3421H79.8977C79.8977 52.3421 81.0101 49.9113 81.8753 48.1397L86.2425 39.4053H92.5049L82.6993 57.4921V68.8633H76.7253ZM105.373 69.4813C97.0919 69.4813 91.2003 63.0953 91.2003 54.2373C91.2003 45.5029 96.6387 38.8285 105.332 38.8285C112.583 38.8285 116.868 43.1545 117.486 48.7577H111.553C111.018 45.7913 108.793 43.8549 105.332 43.8549C99.8935 43.8549 97.2979 48.3869 97.2979 54.2373C97.2979 60.2525 100.429 64.5785 105.373 64.5785C108.875 64.5785 111.347 62.4773 111.718 59.3873H117.568C117.404 61.9829 116.291 64.4961 114.314 66.3501C112.295 68.2453 109.452 69.4813 105.373 69.4813ZM120.642 68.8633V39.4053H142.313V44.4317H126.616V51.0237H140.376V55.9265H126.616V63.8781H142.436V68.8633H120.642ZM137.822 32.6897L133.908 37.8397H129.541L131.271 32.6897H137.822ZM146.15 68.8633V39.4053H152.124V63.8781H165.967V68.8633H146.15ZM169.205 68.8633V39.4053H175.179V68.8633H169.205ZM191.117 69.3577C183.495 69.3577 179.499 65.7733 179.499 59.3873V39.4053H185.473V59.3873C185.473 62.4361 186.997 64.5785 190.993 64.5785C194.784 64.5785 196.555 62.3537 196.555 59.3049V39.4053H202.529V59.3873C202.529 65.6909 198.657 69.3577 191.117 69.3577ZM206.824 68.8633V39.4053H215.228L219.39 54.1961C220.42 57.9041 221.244 62.1477 221.244 62.1477H221.326C221.326 62.1477 222.109 57.9041 223.139 54.1961L227.3 39.4053H235.828V68.8633H230.266V51.9713C230.266 49.5817 230.514 45.8737 230.514 45.8737H230.431C230.431 45.8737 229.772 49.3345 229.154 51.4769L224.086 68.8633H218.36L213.416 51.4769C212.798 49.3345 212.138 45.8737 212.138 45.8737H212.056C212.056 45.8737 212.303 49.5817 212.303 51.9713V68.8633H206.824Z" fill="#841DC1"/>
</svg>
