<svg width="613" height="884" viewBox="0 0 613 884" fill="none" xmlns="http://www.w3.org/2000/svg">
<path d="M0 52.0011C0 23.2823 23.2811 0.00112424 51.9999 0.00104171L361.5 0.000152305C390.771 6.81895e-05 414.5 23.729 414.5 53.0002V70.0008C414.5 142.35 473.15 201 545.499 201.001L560 201.001C589.271 201.001 613 224.73 613 254.001V872.001C613 878.629 607.627 884.001 601 884.001H12C5.37257 884.001 0 878.629 0 872.001V52.0011Z" fill="#DAF2DB"/>
<rect x="451" width="162" height="162" rx="81" fill="#DAF2DB"/>
<path d="M532.022 107.685C518.035 107.685 510.843 99.941 510.685 88.0873H520.959C521.354 94.5673 524.199 99.0717 531.627 99.0717C537.633 99.0717 541.189 95.8317 541.189 90.3C541.189 85.0844 537.87 81.9234 531.232 81.9234H527.913V73.7839H530.995C536.131 73.7839 539.766 71.1761 539.766 66.5927C539.766 62.3254 536.842 59.4805 532.101 59.4805C525.937 59.4805 522.934 63.5107 522.697 69.1215H512.424C512.819 58.4532 519.536 51.2619 532.101 51.2619C543.401 51.2619 550.672 56.8727 550.672 65.8815C550.672 71.9663 546.8 75.5224 541.426 77.261V77.419C548.301 79.0785 552.41 83.5039 552.41 91.0112C552.41 102.233 543.164 107.685 532.022 107.685Z" fill="#0B8600"/>
<path d="M22.5875 651V593.8H48.8275C59.8675 593.8 67.2275 600.2 67.2275 609.72C67.2275 616.44 64.1075 621.56 56.7475 623.56V623.8C62.0275 625.32 64.7475 628.36 65.4675 635.32C66.2675 643.4 65.9475 649.56 67.9475 650.44V651H56.8275C55.3875 650.36 55.2275 643.96 54.7475 637.8C54.2675 631.56 50.7475 628.04 43.5475 628.04H34.1875V651H22.5875ZM34.1875 603.16V619.08H46.5075C52.8275 619.08 55.9475 615.8 55.9475 611.24C55.9475 606.6 52.9875 603.16 46.8275 603.16H34.1875ZM92.7063 652.2C79.1063 652.2 71.4263 642.68 71.4263 630.44C71.4263 618.28 79.6663 608.84 91.6663 608.84C104.866 608.84 111.906 618.92 111.906 633.56H82.1463C82.9463 639.88 86.4663 643.8 92.6263 643.8C96.8663 643.8 99.3463 641.88 100.546 638.76H111.266C109.746 646.04 103.266 652.2 92.7063 652.2ZM91.8263 617.24C86.0663 617.24 83.2663 620.68 82.3063 626.04H100.546C100.226 620.84 96.7863 617.24 91.8263 617.24ZM117.102 651V593.8H127.982V651H117.102ZM160.985 651C160.345 650.2 159.945 648.28 159.705 646.44H159.545C157.465 649.56 154.505 651.96 147.465 651.96C139.065 651.96 133.145 647.56 133.145 639.4C133.145 630.36 140.505 627.48 149.625 626.2C156.425 625.24 159.545 624.68 159.545 621.56C159.545 618.6 157.225 616.68 152.665 616.68C147.545 616.68 145.065 618.52 144.745 622.44H135.065C135.385 615.24 140.745 608.92 152.745 608.92C165.065 608.92 170.025 614.44 170.025 624.04V644.92C170.025 648.04 170.505 649.88 171.465 650.6V651H160.985ZM150.105 644.36C156.345 644.36 159.785 640.52 159.785 636.52V630.36C157.865 631.48 154.905 632.12 152.185 632.76C146.505 634.04 143.705 635.32 143.705 639.16C143.705 643 146.265 644.36 150.105 644.36ZM173.761 617.16V609.96H179.441V597.16H190.081V609.96H197.121V617.16H190.081V638.92C190.081 641.96 191.761 643 194.161 643C195.521 643 197.361 642.92 197.361 642.92V650.92C197.361 650.92 194.881 651.08 190.561 651.08C185.281 651.08 179.441 649 179.441 641.24V617.16H173.761ZM202.723 651V609.96H213.603V651H202.723ZM202.723 603.56V593.8H213.603V603.56H202.723ZM240.054 652.2C227.334 652.2 218.614 642.76 218.614 630.52C218.614 618.28 227.334 608.84 240.054 608.84C252.774 608.84 261.494 618.28 261.494 630.52C261.494 642.76 252.774 652.2 240.054 652.2ZM240.054 643.88C246.694 643.88 250.454 638.52 250.454 630.52C250.454 622.52 246.694 617.08 240.054 617.08C233.334 617.08 229.654 622.52 229.654 630.52C229.654 638.52 233.334 643.88 240.054 643.88ZM277.191 609.96V615.56H277.431C280.231 611.16 283.991 608.84 289.591 608.84C298.071 608.84 303.751 615.24 303.751 624.2V651H292.871V625.8C292.871 621.4 290.311 618.28 285.751 618.28C280.951 618.28 277.431 622.12 277.431 627.72V651H266.551V609.96H277.191ZM38.3475 748.2C26.4275 748.2 19.7875 742.44 19.1475 733.72H29.2275C29.9475 738.44 33.3075 740.52 38.1875 740.52C42.9875 740.52 45.7075 738.68 45.7075 735.8C45.7075 731.88 40.5075 731.48 34.9075 730.36C27.5475 728.92 20.3475 726.92 20.3475 717.96C20.3475 709.08 27.7075 704.84 37.0675 704.84C47.8675 704.84 53.8675 710.2 54.6675 718.44H44.8275C44.3475 714.04 41.5475 712.44 36.9075 712.44C32.6675 712.44 29.8675 714.04 29.8675 717C29.8675 720.52 35.3075 720.84 41.1475 722.04C48.0275 723.48 55.6275 725.4 55.6275 735C55.6275 743.24 48.5875 748.2 38.3475 748.2ZM80.2063 748.2C66.6063 748.2 58.9263 738.68 58.9263 726.44C58.9263 714.28 67.1663 704.84 79.1663 704.84C92.3663 704.84 99.4063 714.92 99.4063 729.56H69.6463C70.4463 735.88 73.9663 739.8 80.1263 739.8C84.3663 739.8 86.8463 737.88 88.0463 734.76H98.7663C97.2463 742.04 90.7663 748.2 80.2063 748.2ZM79.3263 713.24C73.5663 713.24 70.7663 716.68 69.8063 722.04H88.0463C87.7263 716.84 84.2863 713.24 79.3263 713.24ZM114.922 705.96V712.52H115.162C117.642 707.88 120.442 705.48 125.242 705.48C126.442 705.48 127.162 705.56 127.802 705.8V715.32H127.562C120.442 714.6 115.322 718.36 115.322 727V747H104.442V705.96H114.922ZM150.597 748.2C136.997 748.2 129.317 738.68 129.317 726.44C129.317 714.28 137.557 704.84 149.557 704.84C162.757 704.84 169.797 714.92 169.797 729.56H140.037C140.837 735.88 144.357 739.8 150.517 739.8C154.757 739.8 157.237 737.88 158.437 734.76H169.157C167.637 742.04 161.157 748.2 150.597 748.2ZM149.717 713.24C143.957 713.24 141.157 716.68 140.197 722.04H158.437C158.117 716.84 154.677 713.24 149.717 713.24ZM174.833 747V705.96H185.713V747H174.833ZM174.833 699.56V689.8H185.713V699.56H174.833ZM203.363 705.96V711.56H203.603C206.403 707.16 210.163 704.84 215.763 704.84C224.243 704.84 229.923 711.24 229.923 720.2V747H219.043V721.8C219.043 717.4 216.483 714.28 211.923 714.28C207.123 714.28 203.603 718.12 203.603 723.72V747H192.723V705.96H203.363ZM255.909 748.2C242.309 748.2 234.629 738.68 234.629 726.44C234.629 714.28 242.869 704.84 254.869 704.84C268.069 704.84 275.109 714.92 275.109 729.56H245.349C246.149 735.88 249.669 739.8 255.829 739.8C260.069 739.8 262.549 737.88 263.749 734.76H274.469C272.949 742.04 266.469 748.2 255.909 748.2ZM255.029 713.24C249.269 713.24 246.469 716.68 245.509 722.04H263.749C263.429 716.84 259.989 713.24 255.029 713.24ZM311.663 761C300.463 761 293.583 756.2 292.463 748.2H303.263C304.143 750.76 306.463 752.76 311.503 752.76C317.663 752.76 320.623 749.8 320.623 744.2V739.72H320.383C317.983 742.44 314.863 744.52 309.663 744.52C300.543 744.52 291.583 737.32 291.583 724.92C291.583 712.68 298.943 704.84 309.343 704.84C314.463 704.84 318.223 706.84 320.703 710.28H320.863V705.96H331.343V743.88C331.343 749.64 329.503 753.56 326.463 756.36C323.023 759.56 317.743 761 311.663 761ZM311.503 735.8C318.383 735.8 321.183 730.76 321.183 724.68C321.183 718.68 317.983 713.56 311.423 713.56C305.903 713.56 302.223 717.88 302.223 724.76C302.223 731.72 305.903 735.8 311.503 735.8ZM348.828 705.96V712.52H349.068C351.548 707.88 354.348 705.48 359.148 705.48C360.348 705.48 361.068 705.56 361.708 705.8V715.32H361.468C354.348 714.6 349.228 718.36 349.228 727V747H338.348V705.96H348.828ZM391.063 747C390.423 746.2 390.023 744.28 389.783 742.44H389.623C387.543 745.56 384.583 747.96 377.543 747.96C369.143 747.96 363.223 743.56 363.223 735.4C363.223 726.36 370.583 723.48 379.703 722.2C386.503 721.24 389.623 720.68 389.623 717.56C389.623 714.6 387.303 712.68 382.743 712.68C377.623 712.68 375.143 714.52 374.823 718.44H365.143C365.463 711.24 370.823 704.92 382.823 704.92C395.143 704.92 400.103 710.44 400.103 720.04V740.92C400.103 744.04 400.583 745.88 401.543 746.6V747H391.063ZM380.183 740.36C386.423 740.36 389.863 736.52 389.863 732.52V726.36C387.943 727.48 384.983 728.12 382.263 728.76C376.583 730.04 373.783 731.32 373.783 735.16C373.783 739 376.343 740.36 380.183 740.36ZM369.463 700.52L376.983 690.44H388.663L396.343 700.52H386.903L383.063 695H382.903L378.983 700.52H369.463ZM426.06 748.2C413.1 748.2 405.02 738.76 405.02 726.52C405.02 714.28 413.02 704.84 425.5 704.84C436.14 704.84 442.7 711 444.14 719.88H433.5C432.78 716.28 429.98 713.56 425.98 713.56C419.42 713.56 416.06 718.6 416.06 726.52C416.06 734.28 419.18 739.48 425.82 739.48C430.22 739.48 433.34 737.16 434.06 732.52H444.54C443.82 741.24 437.02 748.2 426.06 748.2ZM468.566 748.2C454.966 748.2 447.286 738.68 447.286 726.44C447.286 714.28 455.526 704.84 467.526 704.84C480.726 704.84 487.766 714.92 487.766 729.56H458.006C458.806 735.88 462.326 739.8 468.486 739.8C472.726 739.8 475.206 737.88 476.406 734.76H487.126C485.606 742.04 479.126 748.2 468.566 748.2ZM467.686 713.24C461.926 713.24 459.126 716.68 458.166 722.04H476.406C476.086 716.84 472.646 713.24 467.686 713.24ZM47.5475 843C46.9075 842.2 46.5075 840.28 46.2675 838.44H46.1075C44.0275 841.56 41.0675 843.96 34.0275 843.96C25.6275 843.96 19.7075 839.56 19.7075 831.4C19.7075 822.36 27.0675 819.48 36.1875 818.2C42.9875 817.24 46.1075 816.68 46.1075 813.56C46.1075 810.6 43.7875 808.68 39.2275 808.68C34.1075 808.68 31.6275 810.52 31.3075 814.44H21.6275C21.9475 807.24 27.3075 800.92 39.3075 800.92C51.6275 800.92 56.5875 806.44 56.5875 816.04V836.92C56.5875 840.04 57.0675 841.88 58.0275 842.6V843H47.5475ZM36.6675 836.36C42.9075 836.36 46.3475 832.52 46.3475 828.52V822.36C44.4275 823.48 41.4675 824.12 38.7475 824.76C33.0675 826.04 30.2675 827.32 30.2675 831.16C30.2675 835 32.8275 836.36 36.6675 836.36ZM99.9044 843H89.4244V838.2H89.1844C86.3844 841.96 83.1844 844.12 77.4244 844.12C68.3044 844.12 63.1844 838.28 63.1844 829.32V801.96H73.9844V827.48C73.9844 832.28 76.1444 834.92 80.7844 834.92C85.9044 834.92 89.0244 831.08 89.0244 825.64V801.96H99.9044V843ZM137.019 844.2C125.099 844.2 118.459 838.44 117.819 829.72H127.899C128.619 834.44 131.979 836.52 136.859 836.52C141.659 836.52 144.379 834.68 144.379 831.8C144.379 827.88 139.179 827.48 133.579 826.36C126.219 824.92 119.019 822.92 119.019 813.96C119.019 805.08 126.379 800.84 135.739 800.84C146.539 800.84 152.539 806.2 153.339 814.44H143.499C143.019 810.04 140.219 808.44 135.579 808.44C131.339 808.44 128.539 810.04 128.539 813C128.539 816.52 133.979 816.84 139.819 818.04C146.699 819.48 154.299 821.4 154.299 831C154.299 839.24 147.259 844.2 137.019 844.2ZM195.608 843H185.128V838.2H184.888C182.088 841.96 178.888 844.12 173.128 844.12C164.008 844.12 158.888 838.28 158.888 829.32V801.96H169.688V827.48C169.688 832.28 171.848 834.92 176.488 834.92C181.608 834.92 184.728 831.08 184.728 825.64V801.96H195.608V843ZM202.645 843V801.96H213.525V843H202.645ZM202.645 795.56V785.8H213.525V795.56H202.645ZM231.416 843L217.176 801.96H228.216L234.776 823.24C235.976 827.16 236.616 829.8 236.616 829.8H236.776C236.776 829.8 237.336 827.16 238.536 823.24L245.256 801.96H256.136L241.816 843H231.416ZM259.833 843V801.96H270.713V843H259.833ZM259.833 795.56V785.8H270.713V795.56H259.833Z" fill="#0B8600"/>
<rect x="18" y="18" width="289.308" height="74.7267" rx="37.3634" stroke="#0B8600" stroke-width="3.85901"/>
<path d="M33.5541 68.8633L43.8139 39.4023H49.9945L60.378 68.8633H54.1562L52.1784 62.6002H41.5477L39.6111 68.8633H33.5541ZM45.5857 49.5385L42.9486 58.0266H50.7362L48.0991 49.5385C47.6047 47.9728 46.9042 45.0061 46.9042 45.0061H46.8218C46.8218 45.0061 46.0801 47.9728 45.5857 49.5385ZM62.8576 68.8633V39.4023H75.7958C79.2157 39.4023 81.7704 40.3912 83.5009 42.163C85.1491 43.8523 86.138 46.1598 86.138 48.8793C86.138 54.4418 82.4708 58.1914 76.2902 58.1914H69.0383V68.8633H62.8576ZM69.0383 44.594V53.3293H75.2189C78.3504 53.3293 79.9986 51.5987 79.9986 48.9205C79.9986 46.1598 78.268 44.594 75.3013 44.594H69.0383ZM89.0931 68.8633V39.4023H102.031C105.451 39.4023 108.006 40.3912 109.736 42.163C111.385 43.8523 112.373 46.1598 112.373 48.8793C112.373 54.4418 108.706 58.1914 102.526 58.1914H95.2737V68.8633H89.0931ZM95.2737 44.594V53.3293H101.454C104.586 53.3293 106.234 51.5987 106.234 48.9205C106.234 46.1598 104.503 44.594 101.537 44.594H95.2737ZM115.329 68.8633V39.4023H121.303V63.8776H135.148V68.8633H115.329ZM138.386 68.8633V39.4023H144.361V68.8633H138.386ZM161.825 69.4813C153.543 69.4813 147.65 63.0947 147.65 54.2358C147.65 45.5005 153.089 38.8254 161.783 38.8254C169.035 38.8254 173.321 43.1519 173.939 48.7556H168.005C167.47 45.7889 165.245 43.8523 161.783 43.8523C156.344 43.8523 153.749 48.3848 153.749 54.2358C153.749 60.2516 156.88 64.578 161.825 64.578C165.327 64.578 167.799 62.4766 168.17 59.3863H174.021C173.856 61.9822 172.744 64.4956 170.766 66.3498C168.747 68.2452 165.904 69.4813 161.825 69.4813ZM174.147 68.8633L184.407 39.4023H190.588L200.971 68.8633H194.749L192.772 62.6002H182.141L180.204 68.8633H174.147ZM186.179 49.5385L183.542 58.0266H191.329L188.692 49.5385C188.198 47.9728 187.497 45.0061 187.497 45.0061H187.415C187.415 45.0061 186.673 47.9728 186.179 49.5385ZM198.224 44.4292V39.4023H221.917V44.4292H213.058V68.8633H207.083V44.4292H198.224ZM224.979 68.8633V39.4023H230.954V68.8633H224.979ZM248.459 69.5225C239.765 69.5225 234.244 63.0123 234.244 54.1946C234.244 45.3769 239.765 38.8254 248.459 38.8254C257.153 38.8254 262.633 45.3769 262.633 54.1946C262.633 63.0123 257.153 69.5225 248.459 69.5225ZM248.5 64.6193C253.898 64.6193 256.535 60.0456 256.535 54.1946C256.535 48.3024 253.898 43.7287 248.5 43.7287C243.102 43.7287 240.342 48.3024 240.342 54.1946C240.342 60.0456 243.102 64.6193 248.5 64.6193ZM265.901 68.8633V39.4023H271.958L281.764 55.8428C282.712 57.4497 283.825 59.9632 283.825 59.9632H283.907C283.907 59.9632 283.742 56.9141 283.742 54.8539V39.4023H289.634V68.8633H283.866L273.812 52.5876C272.864 51.0219 271.711 48.5084 271.711 48.5084H271.628C271.628 48.5084 271.793 51.5987 271.793 53.6589V68.8633H265.901Z" fill="#0B8600"/>
</svg>
