<svg width="613" height="884" viewBox="0 0 613 884" fill="none" xmlns="http://www.w3.org/2000/svg">
<path d="M0 52.0011C0 23.2823 23.2811 0.00112424 51.9999 0.00104171L361.5 0.000152305C390.771 6.81895e-05 414.5 23.729 414.5 53.0002V70.0008C414.5 142.35 473.15 201 545.499 201.001L560 201.001C589.271 201.001 613 224.73 613 254.001V872.001C613 878.629 607.627 884.001 601 884.001H12C5.37257 884.001 0 878.629 0 872.001V52.0011Z" fill="#ECC5FE"/>
<rect x="451" width="162" height="162" rx="81" fill="#ECC5FE"/>
<path d="M512.055 106.5C512.45 96.1478 518.93 89.8259 525.094 85.0054C531.89 79.6317 539.318 75.8385 539.318 68.8844C539.318 63.8268 536.631 60.4288 531.811 60.4288C526.358 60.4288 523.118 64.38 522.96 71.4132H512.845C512.845 59.0854 519.167 51.2619 532.048 51.2619C543.822 51.2619 550.46 59.2434 550.46 68.5683C550.46 78.7624 543.506 83.5829 536.868 88.0083C532.68 90.6951 527.78 94.1722 525.963 97.6493H550.935V106.5H512.055Z" fill="#AA3BEC"/>
<g opacity="0.3">
<circle cx="1.47356" cy="1.47356" r="1.47356" transform="matrix(1 0 0 -1 26.5234 218.734)" fill="#3F0065" fill-opacity="0.25"/>
<circle cx="1.47356" cy="1.47356" r="1.47356" transform="matrix(1 0 0 -1 82.5156 218.734)" fill="#3F0065" fill-opacity="0.25"/>
<circle cx="1.47356" cy="1.47356" r="1.47356" transform="matrix(1 0 0 -1 138.516 218.734)" fill="#3F0065" fill-opacity="0.25"/>
<circle cx="1.47356" cy="1.47356" r="1.47356" transform="matrix(1 0 0 -1 193.039 218.734)" fill="#3F0065" fill-opacity="0.25"/>
<circle cx="1.47356" cy="1.47356" r="1.47356" transform="matrix(1 0 0 -1 249.031 218.734)" fill="#3F0065" fill-opacity="0.25"/>
<circle cx="1.47356" cy="1.47356" r="1.47356" transform="matrix(1 0 0 -1 305.023 218.734)" fill="#3F0065" fill-opacity="0.25"/>
<circle cx="1.47356" cy="1.47356" r="1.47356" transform="matrix(1 0 0 -1 361.023 218.734)" fill="#3F0065" fill-opacity="0.25"/>
<circle cx="1.47356" cy="1.47356" r="1.47356" transform="matrix(1 0 0 -1 417.016 218.734)" fill="#3F0065" fill-opacity="0.25"/>
<circle cx="1.47356" cy="1.47356" r="1.47356" transform="matrix(1 0 0 -1 473.008 218.734)" fill="#3F0065" fill-opacity="0.25"/>
<circle cx="1.47356" cy="1.47356" r="1.47356" transform="matrix(1 0 0 -1 527.531 218.734)" fill="#3F0065" fill-opacity="0.25"/>
<circle cx="1.47356" cy="1.47356" r="1.47356" transform="matrix(1 0 0 -1 583.531 218.734)" fill="#3F0065" fill-opacity="0.25"/>
<circle cx="1.47356" cy="1.47356" r="1.47356" transform="matrix(1 0 0 -1 26.5234 273.256)" fill="#3F0065" fill-opacity="0.5"/>
<circle cx="1.47356" cy="1.47356" r="1.47356" transform="matrix(1 0 0 -1 82.5156 273.256)" fill="#3F0065" fill-opacity="0.5"/>
<circle cx="1.47356" cy="1.47356" r="1.47356" transform="matrix(1 0 0 -1 138.516 273.256)" fill="#3F0065" fill-opacity="0.5"/>
<circle cx="1.47356" cy="1.47356" r="1.47356" transform="matrix(1 0 0 -1 193.039 273.256)" fill="#3F0065" fill-opacity="0.5"/>
<circle cx="1.47356" cy="1.47356" r="1.47356" transform="matrix(1 0 0 -1 249.031 273.256)" fill="#3F0065" fill-opacity="0.5"/>
<circle cx="1.47356" cy="1.47356" r="1.47356" transform="matrix(1 0 0 -1 305.023 273.256)" fill="#3F0065"/>
<circle cx="1.47356" cy="1.47356" r="1.47356" transform="matrix(1 0 0 -1 361.023 273.256)" fill="#3F0065" fill-opacity="0.5"/>
<circle cx="1.47356" cy="1.47356" r="1.47356" transform="matrix(1 0 0 -1 417.016 273.256)" fill="#3F0065" fill-opacity="0.5"/>
<circle cx="1.47356" cy="1.47356" r="1.47356" transform="matrix(1 0 0 -1 473.008 273.256)" fill="#3F0065" fill-opacity="0.5"/>
<circle cx="1.47356" cy="1.47356" r="1.47356" transform="matrix(1 0 0 -1 527.531 273.256)" fill="#3F0065" fill-opacity="0.5"/>
<circle cx="1.47356" cy="1.47356" r="1.47356" transform="matrix(1 0 0 -1 583.531 273.256)" fill="#3F0065" fill-opacity="0.5"/>
<circle cx="1.47356" cy="1.47356" r="1.47356" transform="matrix(1 0 0 -1 26.5234 327.777)" fill="#3F0065"/>
<circle cx="1.47356" cy="1.47356" r="1.47356" transform="matrix(1 0 0 -1 82.5156 327.777)" fill="#3F0065"/>
<circle cx="1.47356" cy="1.47356" r="1.47356" transform="matrix(1 0 0 -1 138.516 327.777)" fill="#3F0065"/>
<circle cx="1.47356" cy="1.47356" r="1.47356" transform="matrix(1 0 0 -1 193.039 327.777)" fill="#3F0065"/>
<circle cx="1.47356" cy="1.47356" r="1.47356" transform="matrix(1 0 0 -1 249.031 327.777)" fill="#3F0065"/>
<circle cx="1.47356" cy="1.47356" r="1.47356" transform="matrix(1 0 0 -1 305.023 327.777)" fill="#3F0065"/>
<circle cx="1.47356" cy="1.47356" r="1.47356" transform="matrix(1 0 0 -1 361.023 327.777)" fill="#3F0065"/>
<circle cx="1.47356" cy="1.47356" r="1.47356" transform="matrix(1 0 0 -1 417.016 327.777)" fill="#3F0065"/>
<circle cx="1.47356" cy="1.47356" r="1.47356" transform="matrix(1 0 0 -1 473.008 327.777)" fill="#3F0065"/>
<circle cx="1.47356" cy="1.47356" r="1.47356" transform="matrix(1 0 0 -1 527.531 327.777)" fill="#3F0065"/>
<circle cx="1.47356" cy="1.47356" r="1.47356" transform="matrix(1 0 0 -1 583.531 327.777)" fill="#3F0065"/>
<circle cx="1.47356" cy="1.47356" r="1.47356" transform="matrix(1 0 0 -1 26.5234 382.299)" fill="#3F0065"/>
<circle cx="1.47356" cy="1.47356" r="1.47356" transform="matrix(1 0 0 -1 82.5156 382.299)" fill="#3F0065"/>
<circle cx="1.47356" cy="1.47356" r="1.47356" transform="matrix(1 0 0 -1 138.516 382.299)" fill="#3F0065"/>
<circle cx="1.47356" cy="1.47356" r="1.47356" transform="matrix(1 0 0 -1 193.039 382.299)" fill="#3F0065"/>
<circle cx="1.47356" cy="1.47356" r="1.47356" transform="matrix(1 0 0 -1 249.031 382.299)" fill="#3F0065"/>
<circle cx="1.47356" cy="1.47356" r="1.47356" transform="matrix(1 0 0 -1 305.023 382.299)" fill="#3F0065"/>
<circle cx="1.47356" cy="1.47356" r="1.47356" transform="matrix(1 0 0 -1 361.023 382.299)" fill="#3F0065"/>
<circle cx="1.47356" cy="1.47356" r="1.47356" transform="matrix(1 0 0 -1 417.016 382.299)" fill="#3F0065"/>
<circle cx="1.47356" cy="1.47356" r="1.47356" transform="matrix(1 0 0 -1 473.008 382.299)" fill="#3F0065"/>
<circle cx="1.47356" cy="1.47356" r="1.47356" transform="matrix(1 0 0 -1 527.531 382.299)" fill="#3F0065"/>
<circle cx="1.47356" cy="1.47356" r="1.47356" transform="matrix(1 0 0 -1 583.531 382.299)" fill="#3F0065"/>
<circle cx="1.47356" cy="1.47356" r="1.47356" transform="matrix(1 0 0 -1 26.5234 436.82)" fill="#3F0065"/>
<circle cx="1.47356" cy="1.47356" r="1.47356" transform="matrix(1 0 0 -1 82.5156 436.82)" fill="#3F0065"/>
<circle cx="1.47356" cy="1.47356" r="1.47356" transform="matrix(1 0 0 -1 138.516 436.82)" fill="#3F0065"/>
<circle cx="1.47356" cy="1.47356" r="1.47356" transform="matrix(1 0 0 -1 193.039 436.82)" fill="#3F0065"/>
<circle cx="1.47356" cy="1.47356" r="1.47356" transform="matrix(1 0 0 -1 249.031 436.82)" fill="#3F0065"/>
<circle cx="1.47356" cy="1.47356" r="1.47356" transform="matrix(1 0 0 -1 305.023 436.82)" fill="#3F0065"/>
<circle cx="1.47356" cy="1.47356" r="1.47356" transform="matrix(1 0 0 -1 361.023 436.82)" fill="#3F0065"/>
<circle cx="1.47356" cy="1.47356" r="1.47356" transform="matrix(1 0 0 -1 417.016 436.82)" fill="#3F0065"/>
<circle cx="1.47356" cy="1.47356" r="1.47356" transform="matrix(1 0 0 -1 473.008 436.82)" fill="#3F0065"/>
<circle cx="1.47356" cy="1.47356" r="1.47356" transform="matrix(1 0 0 -1 527.531 436.82)" fill="#3F0065"/>
<circle cx="1.47356" cy="1.47356" r="1.47356" transform="matrix(1 0 0 -1 583.531 436.82)" fill="#3F0065"/>
<circle cx="1.47356" cy="1.47356" r="1.47356" transform="matrix(1 0 0 -1 26.5234 492.078)" fill="#3F0065"/>
<circle cx="1.47356" cy="1.47356" r="1.47356" transform="matrix(1 0 0 -1 82.5156 492.078)" fill="#3F0065"/>
<circle cx="1.47356" cy="1.47356" r="1.47356" transform="matrix(1 0 0 -1 138.516 492.078)" fill="#3F0065"/>
<circle cx="1.47356" cy="1.47356" r="1.47356" transform="matrix(1 0 0 -1 193.039 492.078)" fill="#3F0065"/>
<circle cx="1.47356" cy="1.47356" r="1.47356" transform="matrix(1 0 0 -1 249.031 492.078)" fill="#3F0065"/>
<circle cx="1.47356" cy="1.47356" r="1.47356" transform="matrix(1 0 0 -1 305.023 492.078)" fill="#3F0065"/>
<circle cx="1.47356" cy="1.47356" r="1.47356" transform="matrix(1 0 0 -1 361.023 492.078)" fill="#3F0065"/>
<circle cx="1.47356" cy="1.47356" r="1.47356" transform="matrix(1 0 0 -1 417.016 492.078)" fill="#3F0065"/>
<circle cx="1.47356" cy="1.47356" r="1.47356" transform="matrix(1 0 0 -1 473.008 492.078)" fill="#3F0065"/>
<circle cx="1.47356" cy="1.47356" r="1.47356" transform="matrix(1 0 0 -1 527.531 492.078)" fill="#3F0065"/>
<circle cx="1.47356" cy="1.47356" r="1.47356" transform="matrix(1 0 0 -1 583.531 492.078)" fill="#3F0065"/>
<circle cx="1.47356" cy="1.47356" r="1.47356" transform="matrix(1 0 0 -1 26.5234 547.338)" fill="#3F0065"/>
<circle cx="1.47356" cy="1.47356" r="1.47356" transform="matrix(1 0 0 -1 82.5156 547.338)" fill="#3F0065"/>
<circle cx="1.47356" cy="1.47356" r="1.47356" transform="matrix(1 0 0 -1 138.516 547.338)" fill="#3F0065"/>
<circle cx="1.47356" cy="1.47356" r="1.47356" transform="matrix(1 0 0 -1 193.039 547.338)" fill="#3F0065"/>
<circle cx="1.47356" cy="1.47356" r="1.47356" transform="matrix(1 0 0 -1 249.031 547.338)" fill="#3F0065"/>
<circle cx="1.47356" cy="1.47356" r="1.47356" transform="matrix(1 0 0 -1 305.023 547.338)" fill="#3F0065"/>
<circle cx="1.47356" cy="1.47356" r="1.47356" transform="matrix(1 0 0 -1 361.023 547.338)" fill="#3F0065"/>
<circle cx="1.47356" cy="1.47356" r="1.47356" transform="matrix(1 0 0 -1 417.016 547.338)" fill="#3F0065"/>
<circle cx="1.47356" cy="1.47356" r="1.47356" transform="matrix(1 0 0 -1 473.008 547.338)" fill="#3F0065"/>
<circle cx="1.47356" cy="1.47356" r="1.47356" transform="matrix(1 0 0 -1 527.531 547.338)" fill="#3F0065"/>
<circle cx="1.47356" cy="1.47356" r="1.47356" transform="matrix(1 0 0 -1 583.531 547.338)" fill="#3F0065"/>
<circle cx="1.47356" cy="1.47356" r="1.47356" transform="matrix(1 0 0 -1 26.5234 601.859)" fill="#3F0065"/>
<circle cx="1.47356" cy="1.47356" r="1.47356" transform="matrix(1 0 0 -1 82.5156 601.859)" fill="#3F0065"/>
<circle cx="1.47356" cy="1.47356" r="1.47356" transform="matrix(1 0 0 -1 138.516 601.859)" fill="#3F0065"/>
<circle cx="1.47356" cy="1.47356" r="1.47356" transform="matrix(1 0 0 -1 193.039 601.859)" fill="#3F0065"/>
<circle cx="1.47356" cy="1.47356" r="1.47356" transform="matrix(1 0 0 -1 249.031 601.859)" fill="#3F0065"/>
<circle cx="1.47356" cy="1.47356" r="1.47356" transform="matrix(1 0 0 -1 305.023 601.859)" fill="#3F0065"/>
<circle cx="1.47356" cy="1.47356" r="1.47356" transform="matrix(1 0 0 -1 361.023 601.859)" fill="#3F0065"/>
<circle cx="1.47356" cy="1.47356" r="1.47356" transform="matrix(1 0 0 -1 417.016 601.859)" fill="#3F0065"/>
<circle cx="1.47356" cy="1.47356" r="1.47356" transform="matrix(1 0 0 -1 473.008 601.859)" fill="#3F0065"/>
<circle cx="1.47356" cy="1.47356" r="1.47356" transform="matrix(1 0 0 -1 527.531 601.859)" fill="#3F0065"/>
<circle cx="1.47356" cy="1.47356" r="1.47356" transform="matrix(1 0 0 -1 583.531 601.859)" fill="#3F0065"/>
<circle cx="1.47356" cy="1.47356" r="1.47356" transform="matrix(1 0 0 -1 26.5234 656.381)" fill="#3F0065"/>
<circle cx="1.47356" cy="1.47356" r="1.47356" transform="matrix(1 0 0 -1 82.5156 656.381)" fill="#3F0065"/>
<circle cx="1.47356" cy="1.47356" r="1.47356" transform="matrix(1 0 0 -1 138.516 656.381)" fill="#3F0065"/>
<circle cx="1.47356" cy="1.47356" r="1.47356" transform="matrix(1 0 0 -1 193.039 656.381)" fill="#3F0065"/>
<circle cx="1.47356" cy="1.47356" r="1.47356" transform="matrix(1 0 0 -1 249.031 656.381)" fill="#3F0065"/>
<circle cx="1.47356" cy="1.47356" r="1.47356" transform="matrix(1 0 0 -1 305.023 656.381)" fill="#3F0065"/>
<circle cx="1.47356" cy="1.47356" r="1.47356" transform="matrix(1 0 0 -1 361.023 656.381)" fill="#3F0065"/>
<circle cx="1.47356" cy="1.47356" r="1.47356" transform="matrix(1 0 0 -1 417.016 656.381)" fill="#3F0065"/>
<circle cx="1.47356" cy="1.47356" r="1.47356" transform="matrix(1 0 0 -1 473.008 656.381)" fill="#3F0065"/>
<circle cx="1.47356" cy="1.47356" r="1.47356" transform="matrix(1 0 0 -1 527.531 656.381)" fill="#3F0065"/>
<circle cx="1.47356" cy="1.47356" r="1.47356" transform="matrix(1 0 0 -1 583.531 656.381)" fill="#3F0065"/>
<circle cx="1.47356" cy="1.47356" r="1.47356" transform="matrix(1 0 0 -1 26.5234 710.902)" fill="#3F0065" fill-opacity="0.5"/>
<circle cx="1.47356" cy="1.47356" r="1.47356" transform="matrix(1 0 0 -1 82.5156 710.902)" fill="#3F0065"/>
<circle cx="1.47356" cy="1.47356" r="1.47356" transform="matrix(1 0 0 -1 138.516 710.902)" fill="#3F0065" fill-opacity="0.5"/>
<circle cx="1.47356" cy="1.47356" r="1.47356" transform="matrix(1 0 0 -1 193.039 710.902)" fill="#3F0065" fill-opacity="0.5"/>
<circle cx="1.47356" cy="1.47356" r="1.47356" transform="matrix(1 0 0 -1 249.031 710.902)" fill="#3F0065" fill-opacity="0.5"/>
<circle cx="1.47356" cy="1.47356" r="1.47356" transform="matrix(1 0 0 -1 305.023 710.902)" fill="#3F0065" fill-opacity="0.5"/>
<circle cx="1.47356" cy="1.47356" r="1.47356" transform="matrix(1 0 0 -1 361.023 710.902)" fill="#3F0065" fill-opacity="0.5"/>
<circle cx="1.47356" cy="1.47356" r="1.47356" transform="matrix(1 0 0 -1 417.016 710.902)" fill="#3F0065" fill-opacity="0.5"/>
<circle cx="1.47356" cy="1.47356" r="1.47356" transform="matrix(1 0 0 -1 473.008 710.902)" fill="#3F0065" fill-opacity="0.5"/>
<circle cx="1.47356" cy="1.47356" r="1.47356" transform="matrix(1 0 0 -1 527.531 710.902)" fill="#3F0065" fill-opacity="0.5"/>
<circle cx="1.47356" cy="1.47356" r="1.47356" transform="matrix(1 0 0 -1 583.531 710.902)" fill="#3F0065" fill-opacity="0.5"/>
<circle cx="1.47356" cy="1.47356" r="1.47356" transform="matrix(1 0 0 -1 26.5234 765.424)" fill="#3F0065" fill-opacity="0.25"/>
<circle cx="1.47356" cy="1.47356" r="1.47356" transform="matrix(1 0 0 -1 82.5156 765.424)" fill="#3F0065" fill-opacity="0.25"/>
<circle cx="1.47356" cy="1.47356" r="1.47356" transform="matrix(1 0 0 -1 138.516 765.424)" fill="#3F0065" fill-opacity="0.25"/>
<circle cx="1.47356" cy="1.47356" r="1.47356" transform="matrix(1 0 0 -1 193.039 765.424)" fill="#3F0065" fill-opacity="0.25"/>
<circle cx="1.47356" cy="1.47356" r="1.47356" transform="matrix(1 0 0 -1 249.031 765.424)" fill="#3F0065" fill-opacity="0.25"/>
<circle cx="1.47356" cy="1.47356" r="1.47356" transform="matrix(1 0 0 -1 305.023 765.424)" fill="#3F0065" fill-opacity="0.25"/>
<circle cx="1.47356" cy="1.47356" r="1.47356" transform="matrix(1 0 0 -1 361.023 765.424)" fill="#3F0065" fill-opacity="0.25"/>
<circle cx="1.47356" cy="1.47356" r="1.47356" transform="matrix(1 0 0 -1 417.016 765.424)" fill="#3F0065" fill-opacity="0.25"/>
<circle cx="1.47356" cy="1.47356" r="1.47356" transform="matrix(1 0 0 -1 473.008 765.424)" fill="#3F0065" fill-opacity="0.25"/>
<circle cx="1.47356" cy="1.47356" r="1.47356" transform="matrix(1 0 0 -1 527.531 765.424)" fill="#3F0065" fill-opacity="0.25"/>
<circle cx="1.47356" cy="1.47356" r="1.47356" transform="matrix(1 0 0 -1 583.531 765.424)" fill="#3F0065" fill-opacity="0.25"/>
</g>
<path d="M22.4 651V593.8H47.52C54.16 593.8 59.12 595.72 62.48 599.16C65.68 602.44 67.6 606.92 67.6 612.2C67.6 623 60.48 630.28 48.48 630.28H34.4V651H22.4ZM34.4 603.88V620.84H46.4C52.48 620.84 55.68 617.48 55.68 612.28C55.68 606.92 52.32 603.88 46.56 603.88H34.4ZM72.6175 651V593.8H83.4975V651H72.6175ZM116.501 651C115.861 650.2 115.461 648.28 115.221 646.44H115.061C112.981 649.56 110.021 651.96 102.981 651.96C94.5806 651.96 88.6606 647.56 88.6606 639.4C88.6606 630.36 96.0206 627.48 105.141 626.2C111.941 625.24 115.061 624.68 115.061 621.56C115.061 618.6 112.741 616.68 108.181 616.68C103.061 616.68 100.581 618.52 100.261 622.44H90.5806C90.9006 615.24 96.2606 608.92 108.261 608.92C120.581 608.92 125.541 614.44 125.541 624.04V644.92C125.541 648.04 126.021 649.88 126.981 650.6V651H116.501ZM105.621 644.36C111.861 644.36 115.301 640.52 115.301 636.52V630.36C113.381 631.48 110.421 632.12 107.701 632.76C102.021 634.04 99.2206 635.32 99.2206 639.16C99.2206 643 101.781 644.36 105.621 644.36ZM143.098 609.96V615.56H143.338C146.138 611.16 149.898 608.84 155.498 608.84C163.978 608.84 169.658 615.24 169.658 624.2V651H158.778V625.8C158.778 621.4 156.218 618.28 151.658 618.28C146.858 618.28 143.338 622.12 143.338 627.72V651H132.458V609.96H143.098ZM173.183 617.16V609.96H178.863V597.16H189.503V609.96H196.543V617.16H189.503V638.92C189.503 641.96 191.183 643 193.583 643C194.943 643 196.783 642.92 196.783 642.92V650.92C196.783 650.92 194.303 651.08 189.983 651.08C184.703 651.08 178.863 649 178.863 641.24V617.16H173.183ZM21.68 747V689.8H32.56V747H21.68ZM39.7231 747V705.96H50.6031V747H39.7231ZM39.7231 699.56V689.8H50.6031V699.56H39.7231ZM55.2138 713.48V705.96H60.8138V702.28C60.8138 692.28 68.5738 688.76 79.0538 689.88V698.28C73.9338 698.04 71.6938 698.68 71.6938 702.92V705.96H79.0538V713.48H71.6938V747H60.8138V713.48H55.2138ZM102.128 748.2C88.5281 748.2 80.8481 738.68 80.8481 726.44C80.8481 714.28 89.0881 704.84 101.088 704.84C114.288 704.84 121.328 714.92 121.328 729.56H91.5681C92.3681 735.88 95.8881 739.8 102.048 739.8C106.288 739.8 108.768 737.88 109.968 734.76H120.688C119.168 742.04 112.688 748.2 102.128 748.2ZM101.248 713.24C95.4881 713.24 92.6881 716.68 91.7281 722.04H109.968C109.648 716.84 106.208 713.24 101.248 713.24ZM143.004 748.2C131.084 748.2 124.444 742.44 123.804 733.72H133.884C134.604 738.44 137.964 740.52 142.844 740.52C147.644 740.52 150.364 738.68 150.364 735.8C150.364 731.88 145.164 731.48 139.564 730.36C132.204 728.92 125.004 726.92 125.004 717.96C125.004 709.08 132.364 704.84 141.724 704.84C152.524 704.84 158.524 710.2 159.324 718.44H149.484C149.004 714.04 146.204 712.44 141.564 712.44C137.324 712.44 134.524 714.04 134.524 717C134.524 720.52 139.964 720.84 145.804 722.04C152.684 723.48 160.284 725.4 160.284 735C160.284 743.24 153.244 748.2 143.004 748.2ZM165.192 760.44V705.96H175.672V711.08H175.912C178.552 707.48 182.392 704.84 187.992 704.84C198.872 704.84 205.832 713.72 205.832 726.52C205.832 739.8 198.632 748.2 188.072 748.2C182.312 748.2 178.552 745.88 176.232 742.36H176.072V760.44H165.192ZM185.752 739.16C191.272 739.16 194.792 734.6 194.792 726.84C194.792 719.08 192.072 713.64 185.352 713.64C178.552 713.64 175.832 719.48 175.832 726.84C175.832 734.28 179.272 739.16 185.752 739.16ZM236.735 747C236.095 746.2 235.695 744.28 235.455 742.44H235.295C233.215 745.56 230.255 747.96 223.215 747.96C214.815 747.96 208.895 743.56 208.895 735.4C208.895 726.36 216.255 723.48 225.375 722.2C232.175 721.24 235.295 720.68 235.295 717.56C235.295 714.6 232.975 712.68 228.415 712.68C223.295 712.68 220.815 714.52 220.495 718.44H210.815C211.135 711.24 216.495 704.92 228.495 704.92C240.815 704.92 245.775 710.44 245.775 720.04V740.92C245.775 744.04 246.255 745.88 247.215 746.6V747H236.735ZM225.855 740.36C232.095 740.36 235.535 736.52 235.535 732.52V726.36C233.615 727.48 230.655 728.12 227.935 728.76C222.255 730.04 219.455 731.32 219.455 735.16C219.455 739 222.015 740.36 225.855 740.36ZM263.332 705.96V711.56H263.572C266.372 707.16 270.132 704.84 275.732 704.84C284.212 704.84 289.892 711.24 289.892 720.2V747H279.012V721.8C279.012 717.4 276.452 714.28 271.892 714.28C267.092 714.28 263.572 718.12 263.572 723.72V747H252.692V705.96H263.332ZM20.08 843C20.48 832.52 27.04 826.12 33.28 821.24C40.16 815.8 47.68 811.96 47.68 804.92C47.68 799.8 44.96 796.36 40.08 796.36C34.56 796.36 31.28 800.36 31.12 807.48H20.88C20.88 795 27.28 787.08 40.32 787.08C52.24 787.08 58.96 795.16 58.96 804.6C58.96 814.92 51.92 819.8 45.2 824.28C40.96 827 36 830.52 34.16 834.04H59.44V843H20.08ZM64.4888 827.32V817.96H101.689V827.32H64.4888ZM127.988 844.2C113.828 844.2 106.548 836.36 106.388 824.36H116.788C117.188 830.92 120.068 835.48 127.588 835.48C133.668 835.48 137.268 832.2 137.268 826.6C137.268 821.32 133.908 818.12 127.188 818.12H123.828V809.88H126.948C132.148 809.88 135.828 807.24 135.828 802.6C135.828 798.28 132.868 795.4 128.068 795.4C121.828 795.4 118.788 799.48 118.548 805.16H108.148C108.548 794.36 115.348 787.08 128.068 787.08C139.508 787.08 146.868 792.76 146.868 801.88C146.868 808.04 142.948 811.64 137.508 813.4V813.56C144.468 815.24 148.628 819.72 148.628 827.32C148.628 838.68 139.268 844.2 127.988 844.2ZM160.258 836.2L154.658 830.92L167.938 817.24L154.658 803.56L160.258 798.28L173.298 811.72L186.338 798.28L191.938 803.56L178.658 817.24L191.938 830.92L186.338 836.2L173.298 822.76L160.258 836.2ZM213.164 843V785.8H224.044V843H213.164ZM250.648 844.2C237.928 844.2 229.208 834.76 229.208 822.52C229.208 810.28 237.928 800.84 250.648 800.84C263.368 800.84 272.088 810.28 272.088 822.52C272.088 834.76 263.368 844.2 250.648 844.2ZM250.648 835.88C257.288 835.88 261.048 830.52 261.048 822.52C261.048 814.52 257.288 809.08 250.648 809.08C243.928 809.08 240.248 814.52 240.248 822.52C240.248 830.52 243.928 835.88 250.648 835.88ZM287.785 801.96V807.56H288.025C290.825 803.16 294.585 800.84 300.185 800.84C308.665 800.84 314.345 807.24 314.345 816.2V843H303.465V817.8C303.465 813.4 300.905 810.28 296.345 810.28C291.545 810.28 288.025 814.12 288.025 819.72V843H277.145V801.96H287.785ZM339.131 857C327.931 857 321.051 852.2 319.931 844.2H330.731C331.611 846.76 333.931 848.76 338.971 848.76C345.131 848.76 348.091 845.8 348.091 840.2V835.72H347.851C345.451 838.44 342.331 840.52 337.131 840.52C328.011 840.52 319.051 833.32 319.051 820.92C319.051 808.68 326.411 800.84 336.811 800.84C341.931 800.84 345.691 802.84 348.171 806.28H348.331V801.96H358.811V839.88C358.811 845.64 356.971 849.56 353.931 852.36C350.491 855.56 345.211 857 339.131 857ZM338.971 831.8C345.851 831.8 348.651 826.76 348.651 820.68C348.651 814.68 345.451 809.56 338.891 809.56C333.371 809.56 329.691 813.88 329.691 820.76C329.691 827.72 333.371 831.8 338.971 831.8ZM385.097 844.2C371.497 844.2 363.817 834.68 363.817 822.44C363.817 810.28 372.057 800.84 384.057 800.84C397.257 800.84 404.297 810.92 404.297 825.56H374.537C375.337 831.88 378.857 835.8 385.017 835.8C389.257 835.8 391.737 833.88 392.937 830.76H403.657C402.137 838.04 395.657 844.2 385.097 844.2ZM384.217 809.24C378.457 809.24 375.657 812.68 374.697 818.04H392.937C392.617 812.84 389.177 809.24 384.217 809.24ZM419.813 801.96V808.52H420.053C422.533 803.88 425.333 801.48 430.133 801.48C431.333 801.48 432.053 801.56 432.693 801.8V811.32H432.453C425.333 810.6 420.213 814.36 420.213 823V843H409.333V801.96H419.813Z" fill="#841DC1"/>
<rect x="18" y="18" width="235.308" height="74.7267" rx="37.3634" stroke="#8D32C2" stroke-width="3.85901"/>
<path d="M35.4654 68.8633V39.4053H43.8702L48.0314 54.1961C49.0614 57.9041 49.8854 62.1477 49.8854 62.1477H49.9678C49.9678 62.1477 50.7506 57.9041 51.7806 54.1961L55.9418 39.4053H64.4702V68.8633H58.9082V51.9713C58.9082 49.5817 59.1554 45.8737 59.1554 45.8737H59.073C59.073 45.8737 58.4138 49.3345 57.7958 51.4769L52.7282 68.8633H47.0014L42.0574 51.4769C41.4394 49.3345 40.7802 45.8737 40.7802 45.8737H40.6978C40.6978 45.8737 40.945 49.5817 40.945 51.9713V68.8633H35.4654ZM76.7253 68.8633V57.4921L66.9197 39.4053H73.4293L77.8789 48.1397C78.7853 49.9113 79.8153 52.3421 79.8153 52.3421H79.8977C79.8977 52.3421 81.0101 49.9113 81.8753 48.1397L86.2425 39.4053H92.5049L82.6993 57.4921V68.8633H76.7253ZM105.373 69.4813C97.0919 69.4813 91.2003 63.0953 91.2003 54.2373C91.2003 45.5029 96.6387 38.8285 105.332 38.8285C112.583 38.8285 116.868 43.1545 117.486 48.7577H111.553C111.018 45.7913 108.793 43.8549 105.332 43.8549C99.8935 43.8549 97.2979 48.3869 97.2979 54.2373C97.2979 60.2525 100.429 64.5785 105.373 64.5785C108.875 64.5785 111.347 62.4773 111.718 59.3873H117.568C117.404 61.9829 116.291 64.4961 114.314 66.3501C112.295 68.2453 109.452 69.4813 105.373 69.4813ZM120.642 68.8633V39.4053H142.313V44.4317H126.616V51.0237H140.376V55.9265H126.616V63.8781H142.436V68.8633H120.642ZM146.15 68.8633V39.4053H152.124V63.8781H165.967V68.8633H146.15ZM169.205 68.8633V39.4053H175.179V68.8633H169.205ZM191.117 69.3577C183.495 69.3577 179.499 65.7733 179.499 59.3873V39.4053H185.473V59.3873C185.473 62.4361 186.997 64.5785 190.993 64.5785C194.784 64.5785 196.555 62.3537 196.555 59.3049V39.4053H202.529V59.3873C202.529 65.6909 198.657 69.3577 191.117 69.3577ZM206.824 68.8633V39.4053H215.228L219.39 54.1961C220.42 57.9041 221.244 62.1477 221.244 62.1477H221.326C221.326 62.1477 222.109 57.9041 223.139 54.1961L227.3 39.4053H235.828V68.8633H230.266V51.9713C230.266 49.5817 230.514 45.8737 230.514 45.8737H230.431C230.431 45.8737 229.772 49.3345 229.154 51.4769L224.086 68.8633H218.36L213.416 51.4769C212.798 49.3345 212.138 45.8737 212.138 45.8737H212.056C212.056 45.8737 212.303 49.5817 212.303 51.9713V68.8633H206.824Z" fill="#841DC1"/>
</svg>
