<svg width="613" height="884" viewBox="0 0 613 884" fill="none" xmlns="http://www.w3.org/2000/svg">
<path d="M0 52.0011C0 23.2823 23.2811 0.00112424 51.9999 0.00104171L361.5 0.000152305C390.771 6.81895e-05 414.5 23.729 414.5 53.0002V70.0008C414.5 142.35 473.15 201 545.499 201.001L560 201.001C589.271 201.001 613 224.73 613 254.001V872.001C613 878.629 607.627 884.001 601 884.001H12C5.37257 884.001 0 878.629 0 872.001V52.0011Z" fill="#DDEEF8"/>
<rect x="451" width="162" height="162" rx="81" fill="#DDEEF8"/>
<path d="M530.882 106.5V68.7263H518.634V61.6141C525.272 61.3771 531.199 58.9273 532.305 51.9732H541.709V106.5H530.882Z" fill="#4180E0"/>
<g opacity="0.3">
<circle cx="1.47356" cy="1.47356" r="1.47356" transform="matrix(1 0 0 -1 26.5234 218.734)" fill="#3F0065" fill-opacity="0.25"/>
<circle cx="1.47356" cy="1.47356" r="1.47356" transform="matrix(1 0 0 -1 82.5156 218.734)" fill="#3F0065" fill-opacity="0.25"/>
<circle cx="1.47356" cy="1.47356" r="1.47356" transform="matrix(1 0 0 -1 138.516 218.734)" fill="#3F0065" fill-opacity="0.25"/>
<circle cx="1.47356" cy="1.47356" r="1.47356" transform="matrix(1 0 0 -1 193.039 218.734)" fill="#3F0065" fill-opacity="0.25"/>
<circle cx="1.47356" cy="1.47356" r="1.47356" transform="matrix(1 0 0 -1 249.031 218.734)" fill="#3F0065" fill-opacity="0.25"/>
<circle cx="1.47356" cy="1.47356" r="1.47356" transform="matrix(1 0 0 -1 305.023 218.734)" fill="#3F0065" fill-opacity="0.25"/>
<circle cx="1.47356" cy="1.47356" r="1.47356" transform="matrix(1 0 0 -1 361.023 218.734)" fill="#3F0065" fill-opacity="0.25"/>
<circle cx="1.47356" cy="1.47356" r="1.47356" transform="matrix(1 0 0 -1 417.016 218.734)" fill="#3F0065" fill-opacity="0.25"/>
<circle cx="1.47356" cy="1.47356" r="1.47356" transform="matrix(1 0 0 -1 473.008 218.734)" fill="#3F0065" fill-opacity="0.25"/>
<circle cx="1.47356" cy="1.47356" r="1.47356" transform="matrix(1 0 0 -1 527.531 218.734)" fill="#3F0065" fill-opacity="0.25"/>
<circle cx="1.47356" cy="1.47356" r="1.47356" transform="matrix(1 0 0 -1 583.531 218.734)" fill="#3F0065" fill-opacity="0.25"/>
<circle cx="1.47356" cy="1.47356" r="1.47356" transform="matrix(1 0 0 -1 26.5234 273.258)" fill="#3F0065" fill-opacity="0.5"/>
<circle cx="1.47356" cy="1.47356" r="1.47356" transform="matrix(1 0 0 -1 82.5156 273.258)" fill="#3F0065" fill-opacity="0.5"/>
<circle cx="1.47356" cy="1.47356" r="1.47356" transform="matrix(1 0 0 -1 138.516 273.258)" fill="#3F0065" fill-opacity="0.5"/>
<circle cx="1.47356" cy="1.47356" r="1.47356" transform="matrix(1 0 0 -1 193.039 273.258)" fill="#3F0065" fill-opacity="0.5"/>
<circle cx="1.47356" cy="1.47356" r="1.47356" transform="matrix(1 0 0 -1 249.031 273.258)" fill="#3F0065" fill-opacity="0.5"/>
<circle cx="1.47356" cy="1.47356" r="1.47356" transform="matrix(1 0 0 -1 305.023 273.258)" fill="#3F0065"/>
<circle cx="1.47356" cy="1.47356" r="1.47356" transform="matrix(1 0 0 -1 361.023 273.258)" fill="#3F0065" fill-opacity="0.5"/>
<circle cx="1.47356" cy="1.47356" r="1.47356" transform="matrix(1 0 0 -1 417.016 273.258)" fill="#3F0065" fill-opacity="0.5"/>
<circle cx="1.47356" cy="1.47356" r="1.47356" transform="matrix(1 0 0 -1 473.008 273.258)" fill="#3F0065" fill-opacity="0.5"/>
<circle cx="1.47356" cy="1.47356" r="1.47356" transform="matrix(1 0 0 -1 527.531 273.258)" fill="#3F0065" fill-opacity="0.5"/>
<circle cx="1.47356" cy="1.47356" r="1.47356" transform="matrix(1 0 0 -1 583.531 273.258)" fill="#3F0065" fill-opacity="0.5"/>
<circle cx="1.47356" cy="1.47356" r="1.47356" transform="matrix(1 0 0 -1 26.5234 327.777)" fill="#3F0065"/>
<circle cx="1.47356" cy="1.47356" r="1.47356" transform="matrix(1 0 0 -1 82.5156 327.777)" fill="#3F0065"/>
<circle cx="1.47356" cy="1.47356" r="1.47356" transform="matrix(1 0 0 -1 138.516 327.777)" fill="#3F0065"/>
<circle cx="1.47356" cy="1.47356" r="1.47356" transform="matrix(1 0 0 -1 193.039 327.777)" fill="#3F0065"/>
<circle cx="1.47356" cy="1.47356" r="1.47356" transform="matrix(1 0 0 -1 249.031 327.777)" fill="#3F0065"/>
<circle cx="1.47356" cy="1.47356" r="1.47356" transform="matrix(1 0 0 -1 305.023 327.777)" fill="#3F0065"/>
<circle cx="1.47356" cy="1.47356" r="1.47356" transform="matrix(1 0 0 -1 361.023 327.777)" fill="#3F0065"/>
<circle cx="1.47356" cy="1.47356" r="1.47356" transform="matrix(1 0 0 -1 417.016 327.777)" fill="#3F0065"/>
<circle cx="1.47356" cy="1.47356" r="1.47356" transform="matrix(1 0 0 -1 473.008 327.777)" fill="#3F0065"/>
<circle cx="1.47356" cy="1.47356" r="1.47356" transform="matrix(1 0 0 -1 527.531 327.777)" fill="#3F0065"/>
<circle cx="1.47356" cy="1.47356" r="1.47356" transform="matrix(1 0 0 -1 583.531 327.777)" fill="#3F0065"/>
<circle cx="1.47356" cy="1.47356" r="1.47356" transform="matrix(1 0 0 -1 26.5234 382.301)" fill="#3F0065"/>
<circle cx="1.47356" cy="1.47356" r="1.47356" transform="matrix(1 0 0 -1 82.5156 382.301)" fill="#3F0065"/>
<circle cx="1.47356" cy="1.47356" r="1.47356" transform="matrix(1 0 0 -1 138.516 382.301)" fill="#3F0065"/>
<circle cx="1.47356" cy="1.47356" r="1.47356" transform="matrix(1 0 0 -1 193.039 382.301)" fill="#3F0065"/>
<circle cx="1.47356" cy="1.47356" r="1.47356" transform="matrix(1 0 0 -1 249.031 382.301)" fill="#3F0065"/>
<circle cx="1.47356" cy="1.47356" r="1.47356" transform="matrix(1 0 0 -1 305.023 382.301)" fill="#3F0065"/>
<circle cx="1.47356" cy="1.47356" r="1.47356" transform="matrix(1 0 0 -1 361.023 382.301)" fill="#3F0065"/>
<circle cx="1.47356" cy="1.47356" r="1.47356" transform="matrix(1 0 0 -1 417.016 382.301)" fill="#3F0065"/>
<circle cx="1.47356" cy="1.47356" r="1.47356" transform="matrix(1 0 0 -1 473.008 382.301)" fill="#3F0065"/>
<circle cx="1.47356" cy="1.47356" r="1.47356" transform="matrix(1 0 0 -1 527.531 382.301)" fill="#3F0065"/>
<circle cx="1.47356" cy="1.47356" r="1.47356" transform="matrix(1 0 0 -1 583.531 382.301)" fill="#3F0065"/>
<circle cx="1.47356" cy="1.47356" r="1.47356" transform="matrix(1 0 0 -1 26.5234 436.82)" fill="#3F0065"/>
<circle cx="1.47356" cy="1.47356" r="1.47356" transform="matrix(1 0 0 -1 82.5156 436.82)" fill="#3F0065"/>
<circle cx="1.47356" cy="1.47356" r="1.47356" transform="matrix(1 0 0 -1 138.516 436.82)" fill="#3F0065"/>
<circle cx="1.47356" cy="1.47356" r="1.47356" transform="matrix(1 0 0 -1 193.039 436.82)" fill="#3F0065"/>
<circle cx="1.47356" cy="1.47356" r="1.47356" transform="matrix(1 0 0 -1 249.031 436.82)" fill="#3F0065"/>
<circle cx="1.47356" cy="1.47356" r="1.47356" transform="matrix(1 0 0 -1 305.023 436.82)" fill="#3F0065"/>
<circle cx="1.47356" cy="1.47356" r="1.47356" transform="matrix(1 0 0 -1 361.023 436.82)" fill="#3F0065"/>
<circle cx="1.47356" cy="1.47356" r="1.47356" transform="matrix(1 0 0 -1 417.016 436.82)" fill="#3F0065"/>
<circle cx="1.47356" cy="1.47356" r="1.47356" transform="matrix(1 0 0 -1 473.008 436.82)" fill="#3F0065"/>
<circle cx="1.47356" cy="1.47356" r="1.47356" transform="matrix(1 0 0 -1 527.531 436.82)" fill="#3F0065"/>
<circle cx="1.47356" cy="1.47356" r="1.47356" transform="matrix(1 0 0 -1 583.531 436.82)" fill="#3F0065"/>
<circle cx="1.47356" cy="1.47356" r="1.47356" transform="matrix(1 0 0 -1 26.5234 492.082)" fill="#3F0065"/>
<circle cx="1.47356" cy="1.47356" r="1.47356" transform="matrix(1 0 0 -1 82.5156 492.082)" fill="#3F0065"/>
<circle cx="1.47356" cy="1.47356" r="1.47356" transform="matrix(1 0 0 -1 138.516 492.082)" fill="#3F0065"/>
<circle cx="1.47356" cy="1.47356" r="1.47356" transform="matrix(1 0 0 -1 193.039 492.082)" fill="#3F0065"/>
<circle cx="1.47356" cy="1.47356" r="1.47356" transform="matrix(1 0 0 -1 249.031 492.082)" fill="#3F0065"/>
<circle cx="1.47356" cy="1.47356" r="1.47356" transform="matrix(1 0 0 -1 305.023 492.082)" fill="#3F0065"/>
<circle cx="1.47356" cy="1.47356" r="1.47356" transform="matrix(1 0 0 -1 361.023 492.082)" fill="#3F0065"/>
<circle cx="1.47356" cy="1.47356" r="1.47356" transform="matrix(1 0 0 -1 417.016 492.082)" fill="#3F0065"/>
<circle cx="1.47356" cy="1.47356" r="1.47356" transform="matrix(1 0 0 -1 473.008 492.082)" fill="#3F0065"/>
<circle cx="1.47356" cy="1.47356" r="1.47356" transform="matrix(1 0 0 -1 527.531 492.082)" fill="#3F0065"/>
<circle cx="1.47356" cy="1.47356" r="1.47356" transform="matrix(1 0 0 -1 583.531 492.082)" fill="#3F0065"/>
<circle cx="1.47356" cy="1.47356" r="1.47356" transform="matrix(1 0 0 -1 26.5234 547.336)" fill="#3F0065"/>
<circle cx="1.47356" cy="1.47356" r="1.47356" transform="matrix(1 0 0 -1 82.5156 547.336)" fill="#3F0065"/>
<circle cx="1.47356" cy="1.47356" r="1.47356" transform="matrix(1 0 0 -1 138.516 547.336)" fill="#3F0065"/>
<circle cx="1.47356" cy="1.47356" r="1.47356" transform="matrix(1 0 0 -1 193.039 547.336)" fill="#3F0065"/>
<circle cx="1.47356" cy="1.47356" r="1.47356" transform="matrix(1 0 0 -1 249.031 547.336)" fill="#3F0065"/>
<circle cx="1.47356" cy="1.47356" r="1.47356" transform="matrix(1 0 0 -1 305.023 547.336)" fill="#3F0065"/>
<circle cx="1.47356" cy="1.47356" r="1.47356" transform="matrix(1 0 0 -1 361.023 547.336)" fill="#3F0065"/>
<circle cx="1.47356" cy="1.47356" r="1.47356" transform="matrix(1 0 0 -1 417.016 547.336)" fill="#3F0065"/>
<circle cx="1.47356" cy="1.47356" r="1.47356" transform="matrix(1 0 0 -1 473.008 547.336)" fill="#3F0065"/>
<circle cx="1.47356" cy="1.47356" r="1.47356" transform="matrix(1 0 0 -1 527.531 547.336)" fill="#3F0065"/>
<circle cx="1.47356" cy="1.47356" r="1.47356" transform="matrix(1 0 0 -1 583.531 547.336)" fill="#3F0065"/>
<circle cx="1.47356" cy="1.47356" r="1.47356" transform="matrix(1 0 0 -1 26.5234 601.859)" fill="#3F0065"/>
<circle cx="1.47356" cy="1.47356" r="1.47356" transform="matrix(1 0 0 -1 82.5156 601.859)" fill="#3F0065"/>
<circle cx="1.47356" cy="1.47356" r="1.47356" transform="matrix(1 0 0 -1 138.516 601.859)" fill="#3F0065"/>
<circle cx="1.47356" cy="1.47356" r="1.47356" transform="matrix(1 0 0 -1 193.039 601.859)" fill="#3F0065"/>
<circle cx="1.47356" cy="1.47356" r="1.47356" transform="matrix(1 0 0 -1 249.031 601.859)" fill="#3F0065"/>
<circle cx="1.47356" cy="1.47356" r="1.47356" transform="matrix(1 0 0 -1 305.023 601.859)" fill="#3F0065"/>
<circle cx="1.47356" cy="1.47356" r="1.47356" transform="matrix(1 0 0 -1 361.023 601.859)" fill="#3F0065"/>
<circle cx="1.47356" cy="1.47356" r="1.47356" transform="matrix(1 0 0 -1 417.016 601.859)" fill="#3F0065"/>
<circle cx="1.47356" cy="1.47356" r="1.47356" transform="matrix(1 0 0 -1 473.008 601.859)" fill="#3F0065"/>
<circle cx="1.47356" cy="1.47356" r="1.47356" transform="matrix(1 0 0 -1 527.531 601.859)" fill="#3F0065"/>
<circle cx="1.47356" cy="1.47356" r="1.47356" transform="matrix(1 0 0 -1 583.531 601.859)" fill="#3F0065"/>
<circle cx="1.47356" cy="1.47356" r="1.47356" transform="matrix(1 0 0 -1 26.5234 656.383)" fill="#3F0065"/>
<circle cx="1.47356" cy="1.47356" r="1.47356" transform="matrix(1 0 0 -1 82.5156 656.383)" fill="#3F0065"/>
<circle cx="1.47356" cy="1.47356" r="1.47356" transform="matrix(1 0 0 -1 138.516 656.383)" fill="#3F0065"/>
<circle cx="1.47356" cy="1.47356" r="1.47356" transform="matrix(1 0 0 -1 193.039 656.383)" fill="#3F0065"/>
<circle cx="1.47356" cy="1.47356" r="1.47356" transform="matrix(1 0 0 -1 249.031 656.383)" fill="#3F0065"/>
<circle cx="1.47356" cy="1.47356" r="1.47356" transform="matrix(1 0 0 -1 305.023 656.383)" fill="#3F0065"/>
<circle cx="1.47356" cy="1.47356" r="1.47356" transform="matrix(1 0 0 -1 361.023 656.383)" fill="#3F0065"/>
<circle cx="1.47356" cy="1.47356" r="1.47356" transform="matrix(1 0 0 -1 417.016 656.383)" fill="#3F0065"/>
<circle cx="1.47356" cy="1.47356" r="1.47356" transform="matrix(1 0 0 -1 473.008 656.383)" fill="#3F0065"/>
<circle cx="1.47356" cy="1.47356" r="1.47356" transform="matrix(1 0 0 -1 527.531 656.383)" fill="#3F0065"/>
<circle cx="1.47356" cy="1.47356" r="1.47356" transform="matrix(1 0 0 -1 583.531 656.383)" fill="#3F0065"/>
<circle cx="1.47356" cy="1.47356" r="1.47356" transform="matrix(1 0 0 -1 26.5234 710.902)" fill="#3F0065" fill-opacity="0.5"/>
<circle cx="1.47356" cy="1.47356" r="1.47356" transform="matrix(1 0 0 -1 82.5156 710.902)" fill="#3F0065"/>
<circle cx="1.47356" cy="1.47356" r="1.47356" transform="matrix(1 0 0 -1 138.516 710.902)" fill="#3F0065" fill-opacity="0.5"/>
<circle cx="1.47356" cy="1.47356" r="1.47356" transform="matrix(1 0 0 -1 193.039 710.902)" fill="#3F0065" fill-opacity="0.5"/>
<circle cx="1.47356" cy="1.47356" r="1.47356" transform="matrix(1 0 0 -1 249.031 710.902)" fill="#3F0065" fill-opacity="0.5"/>
<circle cx="1.47356" cy="1.47356" r="1.47356" transform="matrix(1 0 0 -1 305.023 710.902)" fill="#3F0065" fill-opacity="0.5"/>
<circle cx="1.47356" cy="1.47356" r="1.47356" transform="matrix(1 0 0 -1 361.023 710.902)" fill="#3F0065" fill-opacity="0.5"/>
<circle cx="1.47356" cy="1.47356" r="1.47356" transform="matrix(1 0 0 -1 417.016 710.902)" fill="#3F0065" fill-opacity="0.5"/>
<circle cx="1.47356" cy="1.47356" r="1.47356" transform="matrix(1 0 0 -1 473.008 710.902)" fill="#3F0065" fill-opacity="0.5"/>
<circle cx="1.47356" cy="1.47356" r="1.47356" transform="matrix(1 0 0 -1 527.531 710.902)" fill="#3F0065" fill-opacity="0.5"/>
<circle cx="1.47356" cy="1.47356" r="1.47356" transform="matrix(1 0 0 -1 583.531 710.902)" fill="#3F0065" fill-opacity="0.5"/>
<circle cx="1.47356" cy="1.47356" r="1.47356" transform="matrix(1 0 0 -1 26.5234 765.426)" fill="#3F0065" fill-opacity="0.25"/>
<circle cx="1.47356" cy="1.47356" r="1.47356" transform="matrix(1 0 0 -1 82.5156 765.426)" fill="#3F0065" fill-opacity="0.25"/>
<circle cx="1.47356" cy="1.47356" r="1.47356" transform="matrix(1 0 0 -1 138.516 765.426)" fill="#3F0065" fill-opacity="0.25"/>
<circle cx="1.47356" cy="1.47356" r="1.47356" transform="matrix(1 0 0 -1 193.039 765.426)" fill="#3F0065" fill-opacity="0.25"/>
<circle cx="1.47356" cy="1.47356" r="1.47356" transform="matrix(1 0 0 -1 249.031 765.426)" fill="#3F0065" fill-opacity="0.25"/>
<circle cx="1.47356" cy="1.47356" r="1.47356" transform="matrix(1 0 0 -1 305.023 765.426)" fill="#3F0065" fill-opacity="0.25"/>
<circle cx="1.47356" cy="1.47356" r="1.47356" transform="matrix(1 0 0 -1 361.023 765.426)" fill="#3F0065" fill-opacity="0.25"/>
<circle cx="1.47356" cy="1.47356" r="1.47356" transform="matrix(1 0 0 -1 417.016 765.426)" fill="#3F0065" fill-opacity="0.25"/>
<circle cx="1.47356" cy="1.47356" r="1.47356" transform="matrix(1 0 0 -1 473.008 765.426)" fill="#3F0065" fill-opacity="0.25"/>
<circle cx="1.47356" cy="1.47356" r="1.47356" transform="matrix(1 0 0 -1 527.531 765.426)" fill="#3F0065" fill-opacity="0.25"/>
<circle cx="1.47356" cy="1.47356" r="1.47356" transform="matrix(1 0 0 -1 583.531 765.426)" fill="#3F0065" fill-opacity="0.25"/>
</g>
<path d="M38.08 652.04C26.24 652.04 19.36 646.6 19.36 635.4V629.72H29.76V634.68C29.76 640.44 32.4 642.68 37.12 642.68C41.84 642.68 44 639.88 44 634.84V593.8H55.6V634.92C55.6 644.68 49.92 652.04 38.08 652.04ZM99.17 651H88.69V646.2H88.45C85.65 649.96 82.45 652.12 76.69 652.12C67.57 652.12 62.45 646.28 62.45 637.32V609.96H73.25V635.48C73.25 640.28 75.41 642.92 80.05 642.92C85.17 642.92 88.29 639.08 88.29 633.64V609.96H99.17V651ZM122.848 652.2C110.928 652.2 104.288 646.44 103.648 637.72H113.728C114.447 642.44 117.808 644.52 122.688 644.52C127.488 644.52 130.208 642.68 130.208 639.8C130.208 635.88 125.008 635.48 119.408 634.36C112.048 632.92 104.848 630.92 104.848 621.96C104.848 613.08 112.208 608.84 121.568 608.84C132.368 608.84 138.368 614.2 139.168 622.44H129.328C128.848 618.04 126.048 616.44 121.408 616.44C117.168 616.44 114.368 618.04 114.368 621C114.368 624.52 119.808 624.84 125.648 626.04C132.528 627.48 140.128 629.4 140.128 639C140.128 647.24 133.088 652.2 122.848 652.2ZM173.186 664.44V646.36H173.026C171.026 649.64 167.346 652.2 161.826 652.2C151.906 652.2 144.066 643.8 144.066 630.52C144.066 617.72 150.946 608.84 161.826 608.84C167.426 608.84 170.866 611.16 173.346 615.08H173.586V609.96H184.066V664.44H173.186ZM164.146 642.92C169.906 642.92 173.426 638.28 173.426 630.84C173.426 623.4 170.786 617.48 164.226 617.48C157.426 617.48 155.106 623.08 155.106 630.84C155.106 638.6 158.386 642.92 164.146 642.92ZM227.529 651H217.049V646.2H216.809C214.009 649.96 210.809 652.12 205.049 652.12C195.929 652.12 190.809 646.28 190.809 637.32V609.96H201.609V635.48C201.609 640.28 203.769 642.92 208.409 642.92C213.529 642.92 216.649 639.08 216.649 633.64V609.96H227.529V651ZM233.607 615.24V611.48C236.087 610.68 239.047 608.12 239.047 604.2H233.767V593.8H244.567V603.24C244.567 610.52 238.967 614.36 233.607 615.24ZM271.266 651C270.626 650.2 270.226 648.28 269.986 646.44H269.826C267.746 649.56 264.786 651.96 257.746 651.96C249.346 651.96 243.426 647.56 243.426 639.4C243.426 630.36 250.786 627.48 259.906 626.2C266.706 625.24 269.826 624.68 269.826 621.56C269.826 618.6 267.506 616.68 262.946 616.68C257.826 616.68 255.346 618.52 255.026 622.44H245.346C245.666 615.24 251.026 608.92 263.026 608.92C275.346 608.92 280.306 614.44 280.306 624.04V644.92C280.306 648.04 280.786 649.88 281.746 650.6V651H271.266ZM260.386 644.36C266.626 644.36 270.066 640.52 270.066 636.52V630.36C268.146 631.48 265.186 632.12 262.466 632.76C256.786 634.04 253.986 635.32 253.986 639.16C253.986 643 256.546 644.36 260.386 644.36ZM259.266 604.84L250.626 593.56H263.346L267.746 604.84H259.266ZM299.861 635.88V626.52H321.541V635.88H299.861ZM347.05 652.2C332.89 652.2 325.61 644.36 325.45 632.36H335.85C336.25 638.92 339.13 643.48 346.65 643.48C352.73 643.48 356.33 640.2 356.33 634.6C356.33 629.32 352.97 626.12 346.25 626.12H342.89V617.88H346.01C351.21 617.88 354.89 615.24 354.89 610.6C354.89 606.28 351.93 603.4 347.13 603.4C340.89 603.4 337.85 607.48 337.61 613.16H327.21C327.61 602.36 334.41 595.08 347.13 595.08C358.57 595.08 365.93 600.76 365.93 609.88C365.93 616.04 362.01 619.64 356.57 621.4V621.56C363.53 623.24 367.69 627.72 367.69 635.32C367.69 646.68 358.33 652.2 347.05 652.2ZM394.921 652.28C380.921 652.28 372.041 641.08 372.041 623.64C372.041 606.12 381.081 595 395.001 595C409.161 595 417.801 606.04 417.801 623.64C417.801 641.08 409.161 652.28 394.921 652.28ZM395.001 643C403.161 643 406.441 635.4 406.441 623.64C406.441 612.04 403.081 604.28 395.001 604.28C386.841 604.28 383.401 611.96 383.401 623.64C383.401 635.24 386.841 643 395.001 643ZM435.788 626.92C427.628 626.92 421.708 620.68 421.708 611C421.708 601.24 427.708 595 435.788 595C444.028 595 449.788 601.16 449.788 611C449.788 620.68 444.028 626.92 435.788 626.92ZM471.628 652.28C463.468 652.28 457.548 646.04 457.548 636.36C457.548 626.6 463.548 620.36 471.628 620.36C479.868 620.36 485.628 626.52 485.628 636.36C485.628 646.04 479.868 652.28 471.628 652.28ZM436.268 651L464.348 596.12H471.148L443.068 651H436.268ZM471.628 646.12C475.388 646.12 477.148 642.12 477.148 636.36C477.148 630.6 475.308 626.44 471.628 626.44C467.868 626.44 466.108 630.52 466.108 636.36C466.108 642.04 467.868 646.12 471.628 646.12ZM435.788 620.76C439.548 620.76 441.307 616.76 441.307 611C441.307 605.24 439.468 601.08 435.788 601.08C432.028 601.08 430.268 605.16 430.268 611C430.268 616.68 432.028 620.76 435.788 620.76ZM36.88 748.2C26.56 748.2 19.52 739.8 19.52 726.52C19.52 713.72 26.8 704.84 37.04 704.84C42.8 704.84 46.4 707.48 48.64 710.92H48.88V689.8H59.76V747H49.28V741.64H49.12C46.72 745.56 42.64 748.2 36.88 748.2ZM39.28 739.08C45.76 739.08 49.12 734.28 49.12 726.76C49.12 718.92 46.56 713.64 39.6 713.64C33.6 713.64 30.56 718.92 30.56 726.52C30.56 734.44 33.68 739.08 39.28 739.08ZM66.5925 709.88V689.8H76.1125V709.88H66.5925ZM118.545 747H108.065V742.2H107.825C105.025 745.96 101.825 748.12 96.065 748.12C86.945 748.12 81.825 742.28 81.825 733.32V705.96H92.625V731.48C92.625 736.28 94.785 738.92 99.425 738.92C104.545 738.92 107.665 735.08 107.665 729.64V705.96H118.545V747ZM123.183 713.16V705.96H128.863V693.16H139.503V705.96H146.543V713.16H139.503V734.92C139.503 737.96 141.183 739 143.583 739C144.943 739 146.783 738.92 146.783 738.92V746.92C146.783 746.92 144.303 747.08 139.983 747.08C134.703 747.08 128.863 745 128.863 737.24V713.16H123.183ZM152.145 747V705.96H163.025V747H152.145ZM152.145 699.56V689.8H163.025V699.56H152.145ZM170.196 747V689.8H181.076V747H170.196ZM188.239 747V705.96H199.119V747H188.239ZM188.239 699.56V689.8H199.119V699.56H188.239ZM222.769 748.2C210.849 748.2 204.209 742.44 203.569 733.72H213.649C214.369 738.44 217.729 740.52 222.609 740.52C227.409 740.52 230.129 738.68 230.129 735.8C230.129 731.88 224.929 731.48 219.329 730.36C211.969 728.92 204.769 726.92 204.769 717.96C204.769 709.08 212.129 704.84 221.489 704.84C232.289 704.84 238.289 710.2 239.089 718.44H229.249C228.769 714.04 225.969 712.44 221.329 712.44C217.089 712.44 214.289 714.04 214.289 717C214.289 720.52 219.729 720.84 225.569 722.04C232.449 723.48 240.049 725.4 240.049 735C240.049 743.24 233.009 748.2 222.769 748.2ZM271.188 747C270.548 746.2 270.148 744.28 269.908 742.44H269.748C267.668 745.56 264.708 747.96 257.668 747.96C249.268 747.96 243.348 743.56 243.348 735.4C243.348 726.36 250.708 723.48 259.828 722.2C266.628 721.24 269.748 720.68 269.748 717.56C269.748 714.6 267.428 712.68 262.868 712.68C257.748 712.68 255.268 714.52 254.948 718.44H245.268C245.588 711.24 250.948 704.92 262.948 704.92C275.268 704.92 280.228 710.44 280.228 720.04V740.92C280.228 744.04 280.708 745.88 281.668 746.6V747H271.188ZM260.308 740.36C266.548 740.36 269.988 736.52 269.988 732.52V726.36C268.068 727.48 265.108 728.12 262.388 728.76C256.708 730.04 253.908 731.32 253.908 735.16C253.908 739 256.468 740.36 260.308 740.36ZM283.964 713.16V705.96H289.644V693.16H300.284V705.96H307.324V713.16H300.284V734.92C300.284 737.96 301.964 739 304.364 739C305.724 739 307.564 738.92 307.564 738.92V746.92C307.564 746.92 305.084 747.08 300.764 747.08C295.484 747.08 289.644 745 289.644 737.24V713.16H283.964ZM312.926 747V705.96H323.806V747H312.926ZM312.926 699.56V689.8H323.806V699.56H312.926ZM350.257 748.2C337.537 748.2 328.817 738.76 328.817 726.52C328.817 714.28 337.537 704.84 350.257 704.84C362.977 704.84 371.697 714.28 371.697 726.52C371.697 738.76 362.977 748.2 350.257 748.2ZM350.257 739.88C356.897 739.88 360.657 734.52 360.657 726.52C360.657 718.52 356.897 713.08 350.257 713.08C343.537 713.08 339.857 718.52 339.857 726.52C339.857 734.52 343.537 739.88 350.257 739.88ZM387.394 705.96V711.56H387.634C390.434 707.16 394.194 704.84 399.794 704.84C408.274 704.84 413.954 711.24 413.954 720.2V747H403.074V721.8C403.074 717.4 400.514 714.28 395.954 714.28C391.154 714.28 387.634 718.12 387.634 723.72V747H376.754V705.96H387.394ZM36.88 844.2C26.56 844.2 19.52 835.8 19.52 822.52C19.52 809.72 26.8 800.84 37.04 800.84C42.8 800.84 46.4 803.48 48.64 806.92H48.88V785.8H59.76V843H49.28V837.64H49.12C46.72 841.56 42.64 844.2 36.88 844.2ZM39.28 835.08C45.76 835.08 49.12 830.28 49.12 822.76C49.12 814.92 46.56 809.64 39.6 809.64C33.6 809.64 30.56 814.92 30.56 822.52C30.56 830.44 33.68 835.08 39.28 835.08ZM66.5925 805.88V785.8H76.1125V805.88H66.5925ZM97.4406 844.2C83.8406 844.2 76.1606 834.68 76.1606 822.44C76.1606 810.28 84.4006 800.84 96.4006 800.84C109.601 800.84 116.641 810.92 116.641 825.56H86.8806C87.6806 831.88 91.2006 835.8 97.3606 835.8C101.601 835.8 104.081 833.88 105.281 830.76H116.001C114.481 838.04 108.001 844.2 97.4406 844.2ZM96.5606 809.24C90.8006 809.24 88.0006 812.68 87.0406 818.04H105.281C104.961 812.84 101.521 809.24 96.5606 809.24ZM147.516 843C146.876 842.2 146.476 840.28 146.236 838.44H146.076C143.996 841.56 141.036 843.96 133.996 843.96C125.596 843.96 119.676 839.56 119.676 831.4C119.676 822.36 127.036 819.48 136.156 818.2C142.956 817.24 146.076 816.68 146.076 813.56C146.076 810.6 143.756 808.68 139.196 808.68C134.076 808.68 131.596 810.52 131.276 814.44H121.596C121.916 807.24 127.276 800.92 139.276 800.92C151.596 800.92 156.556 806.44 156.556 816.04V836.92C156.556 840.04 157.036 841.88 157.996 842.6V843H147.516ZM136.636 836.36C142.876 836.36 146.316 832.52 146.316 828.52V822.36C144.396 823.48 141.436 824.12 138.716 824.76C133.036 826.04 130.236 827.32 130.236 831.16C130.236 835 132.796 836.36 136.636 836.36ZM199.873 843H189.393V838.2H189.153C186.353 841.96 183.153 844.12 177.393 844.12C168.273 844.12 163.153 838.28 163.153 829.32V801.96H173.953V827.48C173.953 832.28 176.113 834.92 180.753 834.92C185.873 834.92 188.993 831.08 188.993 825.64V801.96H199.873V843ZM220.348 856.44V801.96H230.828V807.08H231.068C233.708 803.48 237.548 800.84 243.148 800.84C254.028 800.84 260.988 809.72 260.988 822.52C260.988 835.8 253.788 844.2 243.228 844.2C237.468 844.2 233.708 841.88 231.388 838.36H231.228V856.44H220.348ZM240.908 835.16C246.428 835.16 249.948 830.6 249.948 822.84C249.948 815.08 247.228 809.64 240.508 809.64C233.708 809.64 230.988 815.48 230.988 822.84C230.988 830.28 234.428 835.16 240.908 835.16ZM291.891 843C291.251 842.2 290.851 840.28 290.611 838.44H290.451C288.371 841.56 285.411 843.96 278.371 843.96C269.971 843.96 264.051 839.56 264.051 831.4C264.051 822.36 271.411 819.48 280.531 818.2C287.331 817.24 290.451 816.68 290.451 813.56C290.451 810.6 288.131 808.68 283.571 808.68C278.451 808.68 275.971 810.52 275.651 814.44H265.971C266.291 807.24 271.651 800.92 283.651 800.92C295.971 800.92 300.931 806.44 300.931 816.04V836.92C300.931 840.04 301.411 841.88 302.371 842.6V843H291.891ZM281.011 836.36C287.251 836.36 290.691 832.52 290.691 828.52V822.36C288.771 823.48 285.811 824.12 283.091 824.76C277.411 826.04 274.611 827.32 274.611 831.16C274.611 835 277.171 836.36 281.011 836.36ZM318.328 801.96V808.52H318.568C321.048 803.88 323.848 801.48 328.648 801.48C329.848 801.48 330.568 801.56 331.208 801.8V811.32H330.968C323.848 810.6 318.728 814.36 318.728 823V843H307.848V801.96H318.328ZM349.333 856.44V801.96H359.813V807.08H360.053C362.693 803.48 366.533 800.84 372.133 800.84C383.013 800.84 389.973 809.72 389.973 822.52C389.973 835.8 382.773 844.2 372.213 844.2C366.453 844.2 362.693 841.88 360.373 838.36H360.213V856.44H349.333ZM369.893 835.16C375.413 835.16 378.933 830.6 378.933 822.84C378.933 815.08 376.213 809.64 369.493 809.64C362.693 809.64 359.973 815.48 359.973 822.84C359.973 830.28 363.413 835.16 369.893 835.16ZM395.196 843V785.8H406.076V843H395.196ZM439.079 843C438.439 842.2 438.039 840.28 437.799 838.44H437.639C435.559 841.56 432.599 843.96 425.559 843.96C417.159 843.96 411.239 839.56 411.239 831.4C411.239 822.36 418.599 819.48 427.719 818.2C434.519 817.24 437.639 816.68 437.639 813.56C437.639 810.6 435.319 808.68 430.759 808.68C425.639 808.68 423.159 810.52 422.839 814.44H413.159C413.479 807.24 418.839 800.92 430.839 800.92C443.159 800.92 448.119 806.44 448.119 816.04V836.92C448.119 840.04 448.599 841.88 449.559 842.6V843H439.079ZM428.199 836.36C434.439 836.36 437.879 832.52 437.879 828.52V822.36C435.959 823.48 432.999 824.12 430.279 824.76C424.599 826.04 421.799 827.32 421.799 831.16C421.799 835 424.359 836.36 428.199 836.36ZM465.676 801.96V807.56H465.916C468.716 803.16 472.476 800.84 478.076 800.84C486.556 800.84 492.236 807.24 492.236 816.2V843H481.356V817.8C481.356 813.4 478.796 810.28 474.236 810.28C469.436 810.28 465.916 814.12 465.916 819.72V843H455.036V801.96H465.676ZM495.761 809.16V801.96H501.441V789.16H512.081V801.96H519.121V809.16H512.081V830.92C512.081 833.96 513.761 835 516.161 835C517.521 835 519.361 834.92 519.361 834.92V842.92C519.361 842.92 516.881 843.08 512.561 843.08C507.281 843.08 501.441 841 501.441 833.24V809.16H495.761ZM543.613 844.2C530.013 844.2 522.333 834.68 522.333 822.44C522.333 810.28 530.573 800.84 542.573 800.84C555.773 800.84 562.813 810.92 562.813 825.56H533.053C533.853 831.88 537.373 835.8 543.533 835.8C547.773 835.8 550.253 833.88 551.453 830.76H562.173C560.653 838.04 554.173 844.2 543.613 844.2ZM542.733 809.24C536.973 809.24 534.173 812.68 533.213 818.04H551.453C551.133 812.84 547.693 809.24 542.733 809.24Z" fill="#4080E0"/>
<rect x="18" y="18" width="185.308" height="74.7267" rx="37.3634" stroke="#4080E0" stroke-width="3.85901"/>
<path d="M55.2064 69.5225C47.2128 69.5225 42.6803 65.979 42.4743 59.7572H48.3253C48.7373 63.3007 50.7563 64.7017 54.9591 64.7017C58.0083 64.7017 60.6865 63.6304 60.6865 60.9109C60.6865 58.0266 57.8846 57.4497 53.3934 56.4196C48.1192 55.2247 43.2984 53.8238 43.2984 47.6843C43.2984 41.8745 48.0368 38.8666 54.5883 38.8666C61.2222 38.8666 65.5074 42.1218 65.9607 48.0552H60.2333C59.9036 45.0885 57.5962 43.6051 54.5471 43.6051C51.3332 43.6051 49.2318 44.9649 49.2318 47.0663C49.2318 49.4561 51.292 50.1566 55.6596 51.1043C61.7166 52.4228 66.6611 53.865 66.6611 60.2104C66.6611 66.185 61.8402 69.5225 55.2064 69.5225ZM83.1676 69.5225C74.4735 69.5225 68.9521 63.0123 68.9521 54.1946C68.9521 45.3769 74.4735 38.8254 83.1676 38.8254C91.8617 38.8254 97.3418 45.3769 97.3418 54.1946C97.3418 63.0123 91.8617 69.5225 83.1676 69.5225ZM83.2088 64.6193C88.6065 64.6193 91.2436 60.0456 91.2436 54.1946C91.2436 48.3024 88.6065 43.7287 83.2088 43.7287C77.811 43.7287 75.0504 48.3024 75.0504 54.1946C75.0504 60.0456 77.811 64.6193 83.2088 64.6193ZM100.61 68.8633V39.4023H106.667L116.473 55.8428C117.421 57.4497 118.533 59.9632 118.533 59.9632H118.616C118.616 59.9632 118.451 56.9141 118.451 54.8539V39.4023H124.343V68.8633H118.575L108.521 52.5876C107.573 51.0219 106.419 48.5084 106.419 48.5084H106.337C106.337 48.5084 106.502 51.5987 106.502 53.6589V68.8633H100.61ZM128.857 68.8633V39.4023H140.353C148.223 39.4023 153.291 45.7477 153.291 54.4418C153.291 59.2215 151.684 63.4243 148.594 66.0202C146.41 67.8332 143.567 68.8633 139.858 68.8633H128.857ZM134.832 63.7128H139.446C145.05 63.7128 147.234 60.2928 147.234 54.4418C147.234 48.5908 144.679 44.5116 139.611 44.5116H134.832V63.7128ZM156.541 68.8633V39.4023H178.214V44.4292H162.516V51.0219H176.278V55.9252H162.516V63.8776H178.338V68.8633H156.541Z" fill="#4080E0"/>
</svg>
