<svg width="580" height="333" viewBox="0 0 580 333" fill="none" xmlns="http://www.w3.org/2000/svg">
<path d="M55.6468 314.402C34.1643 314.402 20.8863 298.102 20.8863 274.46C20.8863 251.143 34.1643 234.194 55.9706 234.194C72.2713 234.194 83.0665 243.262 85.6574 257.62H78.5325C76.4815 247.58 68.493 240.455 55.8627 240.455C37.7268 240.455 28.4429 255.461 28.4429 274.46C28.4429 293.784 38.0506 308.033 55.7547 308.033C70.6521 308.033 78.7484 297.67 79.9359 284.932H86.9528C86.521 292.488 83.6063 300.045 78.9643 305.119C73.5668 311.164 65.4704 314.402 55.6468 314.402ZM118.664 308.789C131.079 308.789 137.556 298.21 137.556 285.147C137.556 272.085 131.079 261.506 118.664 261.506C106.142 261.506 99.665 272.085 99.665 285.147C99.665 298.21 106.142 308.789 118.664 308.789ZM118.664 314.402C102.58 314.402 92.756 301.772 92.756 285.147C92.756 268.523 102.58 255.893 118.664 255.893C134.749 255.893 144.357 268.523 144.357 285.147C144.357 301.772 134.749 314.402 118.664 314.402ZM152.809 312.999V257.188H159.502V265.608H159.718C163.281 259.995 168.678 256 176.667 256C183.468 256 189.297 259.455 191.564 266.148H191.78C195.45 259.779 201.819 256 209.7 256C219.2 256 226.54 262.154 226.54 273.381V312.999H219.955V273.92C219.955 265.608 214.99 261.722 208.189 261.722C199.984 261.722 193.075 267.551 193.075 277.483V312.999H186.382V273.92C186.382 265.608 181.632 261.722 175.155 261.722C167.167 261.722 159.502 268.415 159.502 277.483V312.999H152.809ZM237.463 330.919V257.188H244.156V266.796H244.372C248.258 260.211 254.411 256 263.263 256C276.649 256 286.365 266.58 286.365 285.147C286.365 302.312 277.513 314.402 262.832 314.402C254.303 314.402 248.582 311.056 244.372 304.903H244.156V330.919H237.463ZM262.508 308.789C273.951 308.789 279.564 298.21 279.564 285.255C279.564 271.33 273.519 261.614 262.4 261.614C250.093 261.614 243.616 272.085 243.616 285.363C243.616 299.073 249.769 308.789 262.508 308.789ZM309.293 314.294C298.93 314.294 291.049 309.113 291.049 298.749C291.049 285.471 301.413 282.773 314.043 281.261C325.054 279.966 329.048 279.318 329.048 273.705V272.625C329.048 265.068 324.298 261.398 315.662 261.398C305.731 261.398 300.549 265.5 300.009 273.813H293.424C294.18 263.017 301.305 256 315.662 256C327.861 256 335.417 261.074 335.417 273.273V303.607C335.417 306.954 336.713 308.357 339.088 308.465C339.843 308.465 340.599 308.249 341.571 308.033H341.895V312.891C340.923 313.323 339.52 313.755 337.361 313.755C332.503 313.755 329.48 311.272 329.156 305.874V304.687H328.832C325.702 309.113 319.98 314.294 309.293 314.294ZM310.481 308.897C322.679 308.897 329.156 300.477 329.156 292.812V282.773C325.594 284.716 320.088 285.687 314.691 286.443C305.299 287.738 298.066 289.142 298.066 298.749C298.066 306.522 303.895 308.897 310.481 308.897ZM369.329 332.538C355.62 332.538 347.955 326.277 346.983 317.965H353.461C354.648 324.442 361.017 327.033 369.114 327.033C380.988 327.033 386.602 320.88 386.602 311.056V302.204H386.278C382.176 308.465 376.994 311.92 368.574 311.92C353.892 311.92 344.608 300.477 344.608 284.068C344.608 265.932 355.62 256 368.574 256C377.21 256 382.608 259.779 386.278 265.824H386.602V257.188H393.187V310.84C393.187 317.101 391.352 322.175 388.005 325.845C383.795 330.271 377.642 332.538 369.329 332.538ZM368.898 306.306C381.312 306.306 387.034 297.346 387.034 283.96C387.034 270.79 381.204 261.614 369.006 261.614C357.995 261.614 351.517 270.574 351.517 284.176C351.517 296.914 357.131 306.306 368.898 306.306ZM404.451 312.999V257.188H411.144V265.716H411.36C415.138 260.103 421.183 256 430.036 256C440.399 256 447.848 262.154 447.848 273.381V312.999H441.155V274.028C441.155 265.608 436.297 261.722 428.416 261.722C418.916 261.722 411.144 268.415 411.144 277.591V312.999H404.451ZM481.631 308.789C494.046 308.789 500.523 298.21 500.523 285.147C500.523 272.085 494.046 261.506 481.631 261.506C469.109 261.506 462.632 272.085 462.632 285.147C462.632 298.21 469.109 308.789 481.631 308.789ZM481.631 314.402C465.547 314.402 455.723 301.772 455.723 285.147C455.723 268.523 465.547 255.893 481.631 255.893C497.716 255.893 507.324 268.523 507.324 285.147C507.324 301.772 497.716 314.402 481.631 314.402ZM515.776 312.999V257.188H522.469V265.716H522.685C526.463 260.103 532.509 256 541.361 256C551.724 256 559.173 262.154 559.173 273.381V312.999H552.48V274.028C552.48 265.608 547.622 261.722 539.742 261.722C530.242 261.722 522.469 268.415 522.469 277.591V312.999H515.776Z" fill="#CE79FF"/>
<path d="M167.909 214.999V137.813H175.142V171.171H218.862V137.813H226.095V214.999H218.862V177.216H175.142V214.999H167.909ZM261.718 216.402C244.986 216.402 235.702 203.88 235.702 187.147C235.702 170.415 245.741 157.893 261.178 157.893C279.098 157.893 285.252 172.682 285.144 188.335H242.611C242.935 200.857 248.98 210.681 261.718 210.681C271.002 210.681 275.86 205.715 278.019 198.159H284.496C282.121 209.17 274.241 216.402 261.718 216.402ZM242.719 183.045H278.127C277.803 172.034 272.621 163.398 261.178 163.398C249.844 163.398 243.906 171.926 242.719 183.045ZM308.549 216.294C298.186 216.294 290.305 211.113 290.305 200.749C290.305 187.471 300.669 184.773 313.299 183.261C324.31 181.966 328.304 181.318 328.304 175.705V174.625C328.304 167.068 323.554 163.398 314.918 163.398C304.987 163.398 299.805 167.5 299.265 175.813H292.68C293.436 165.017 300.561 158 314.918 158C327.117 158 334.673 163.074 334.673 175.273V205.607C334.673 208.954 335.969 210.357 338.344 210.465C339.099 210.465 339.855 210.249 340.827 210.033H341.151V214.891C340.179 215.323 338.776 215.755 336.617 215.755C331.759 215.755 328.736 213.272 328.412 207.874V206.687H328.088C324.958 211.113 319.236 216.294 308.549 216.294ZM309.737 210.897C321.935 210.897 328.412 202.477 328.412 194.812V184.773C324.85 186.716 319.344 187.687 313.947 188.443C304.555 189.738 297.322 191.142 297.322 200.749C297.322 208.522 303.151 210.897 309.737 210.897ZM347.63 214.999V137.813H354.323V214.999H347.63ZM381.19 215.431C374.821 215.431 370.502 212.516 370.502 205.391V164.693H362.082V159.188H370.502V142.024H377.195V159.188H387.559V164.693H377.195V204.312C377.195 208.306 379.031 209.601 382.593 209.601C384.104 209.601 386.048 209.17 387.019 208.738H387.343V214.459C385.508 215.107 383.565 215.431 381.19 215.431ZM396.651 214.999V137.813H403.344V167.716H403.56C407.338 162.103 413.384 158 422.236 158C432.599 158 440.048 164.154 440.048 175.381V214.999H433.355V176.028C433.355 167.608 428.497 163.722 420.617 163.722C411.117 163.722 403.344 170.415 403.344 179.591V214.999H396.651Z" fill="#CE79FF"/>
<path d="M449.681 105.402C429.386 105.402 419.347 93.9595 418.483 78.9542H425.716C426.471 92.0164 435.323 99.3571 449.789 99.3571C461.124 99.3571 469.544 93.6356 469.544 83.1643C469.544 72.2612 462.311 69.6703 445.795 66.3238C431.545 63.5171 421.506 59.199 421.506 45.705C421.506 33.3985 431.869 25.3021 447.306 25.3021C464.47 25.3021 473.107 34.586 474.51 47.8641H467.493C466.198 36.9609 458.425 31.3474 447.414 31.3474C435.647 31.3474 428.522 36.9609 428.522 45.4891C428.522 54.665 435.647 57.4718 449.465 60.0626C464.47 62.9773 476.885 66.6477 476.885 82.8405C476.885 96.5503 465.874 105.402 449.681 105.402ZM509.231 99.7889C521.645 99.7889 528.122 89.2096 528.122 76.1475C528.122 63.0853 521.645 52.506 509.231 52.506C496.708 52.506 490.231 63.0853 490.231 76.1475C490.231 89.2096 496.708 99.7889 509.231 99.7889ZM509.231 105.402C493.146 105.402 483.322 92.772 483.322 76.1475C483.322 59.5229 493.146 46.8925 509.231 46.8925C525.316 46.8925 534.923 59.5229 534.923 76.1475C534.923 92.772 525.316 105.402 509.231 105.402ZM543.591 103.999V48.1879H550.284V103.999H543.591ZM543.591 36.3132V26.8135H550.284V36.3132H543.591ZM561.937 103.999V26.8135H568.63V103.999H561.937Z" fill="#CE79FF"/>
<path d="M57.8405 103.688C50.9385 103.688 44.664 102.146 39.0169 99.0604C33.3698 95.8869 28.9328 91.5675 25.7059 86.1021C22.5686 80.5486 21 74.4221 21 67.7225C21 60.9349 22.5686 54.7643 25.7059 49.2107C28.9328 43.6572 33.3698 39.3378 39.0169 36.2525C44.664 33.079 50.9385 31.4923 57.8405 31.4923C64.7425 31.4923 71.017 33.079 76.6641 36.2525C82.3112 39.3378 86.7034 43.6572 89.8407 49.2107C93.0676 54.7643 94.681 60.9349 94.681 67.7225C94.681 74.4221 93.0676 80.5486 89.8407 86.1021C86.7034 91.5675 82.3112 95.8869 76.6641 99.0604C71.017 102.146 64.7425 103.688 57.8405 103.688ZM57.8405 85.0443C62.8601 85.0443 66.9834 83.4135 70.2103 80.1519C73.5269 76.8903 75.1851 72.7031 75.1851 67.5903C75.1851 62.4775 73.5269 58.2903 70.2103 55.0287C66.9834 51.7671 62.8601 50.1363 57.8405 50.1363C52.8209 50.1363 48.6976 51.7671 45.4707 55.0287C42.2438 58.2903 40.6303 62.4775 40.6303 67.5903C40.6303 72.7031 42.2438 76.8903 45.4707 80.1519C48.6976 83.4135 52.8209 85.0443 57.8405 85.0443Z" fill="#CE79FF"/>
<path d="M148.247 60.979C148.247 56.924 147.217 53.8828 145.155 51.8553C143.183 49.7396 140.449 48.6818 136.953 48.6818C133.368 48.6818 130.544 49.7396 128.483 51.8553C126.421 53.8828 125.39 56.924 125.39 60.979V101.705H106.163V33.4757H196.248C200.192 33.4757 203.374 34.7098 205.794 37.1781C208.304 39.5582 209.559 42.6875 209.559 46.5662V101.705H190.332V60.979C190.332 56.924 189.301 53.8828 187.239 51.8553C185.267 49.7396 182.533 48.6818 179.037 48.6818C175.452 48.6818 172.629 49.7396 170.567 51.8553C168.505 53.8828 167.474 56.924 167.474 60.979V101.705H148.247V60.979Z" fill="#CE79FF"/>
<path d="M224.336 42.0705H244.235V101.705H224.336V42.0705ZM234.151 33.8724C230.476 33.8724 227.294 32.5501 224.605 29.9056C221.916 27.261 220.571 24.0876 220.571 20.3852C220.571 16.771 221.916 13.6416 224.605 10.9971C227.294 8.35254 230.476 7.03027 234.151 7.03027C237.916 7.03027 241.143 8.35254 243.832 10.9971C246.611 13.6416 248 16.771 248 20.3852C248 24.0876 246.611 27.261 243.832 29.9056C241.143 32.5501 237.916 33.8724 234.151 33.8724Z" fill="#CE79FF"/>
<path d="M348.025 105.786C339.176 114.635 324.816 114.621 315.95 105.755C314.207 104.013 312.807 102.058 311.748 99.9745C308.399 93.3834 299.425 84.4094 292.834 81.0605C290.751 80.0019 288.796 78.6014 287.054 76.8589C278.188 67.9929 278.173 53.6322 287.022 44.7835C288.793 43.0123 290.785 41.5963 292.91 40.5352C299.473 37.2575 308.258 28.4726 311.535 21.9098C312.596 19.7852 314.012 17.7932 315.784 16.022C324.632 7.17332 338.993 7.18736 347.859 16.0534C349.602 17.7959 351.002 19.7506 352.061 21.8341C355.41 28.4251 364.384 37.399 370.975 40.7479C373.058 41.8065 375.013 43.207 376.755 44.9495C385.621 53.8156 385.635 68.1762 376.787 77.0249C375.015 78.7961 373.023 80.2122 370.899 81.2733C364.336 84.551 355.551 93.3358 352.273 99.8986C351.212 102.023 349.796 104.015 348.025 105.786Z" fill="#71DC5B"/>
<path d="M38.7396 131.736C49.4289 121.047 66.7246 120.995 77.48 131.577C88.2357 121 105.529 121.054 116.216 131.741C126.904 142.429 126.957 159.723 116.38 170.478C126.957 181.234 126.903 198.527 116.215 209.215C105.528 219.902 88.2344 219.957 77.4786 209.38C66.7229 219.958 49.4291 219.905 38.741 209.217C28.0527 198.528 27.9988 181.233 38.5788 170.477C27.9974 159.721 28.0506 142.425 38.7396 131.736Z" fill="#F8CF00"/>
<path d="M526.477 232.716C519.586 232.663 513.626 227.181 510.558 219.121C502.633 222.534 494.543 222.074 489.706 217.162C484.886 212.267 484.536 204.211 488.03 196.366C479.859 193.196 474.345 187.107 474.398 180.159C474.451 173.21 480.059 167.208 488.278 164.164C484.902 156.265 485.376 148.214 490.271 143.393C495.183 138.556 503.277 138.22 511.147 141.752C514.338 133.74 520.381 128.348 527.272 128.4C534.164 128.453 540.125 133.937 543.193 141.997C551.114 138.589 559.198 139.05 564.033 143.959C568.854 148.853 569.206 156.909 565.712 164.755C573.882 167.925 579.395 174.012 579.342 180.96C579.289 187.907 573.684 193.91 565.468 196.955C568.84 204.851 568.366 212.9 563.472 217.72C558.563 222.555 550.472 222.893 542.604 219.364C539.413 227.377 533.369 232.769 526.477 232.716Z" fill="#A3D9FF"/>
</svg>
