<svg width="59" height="59" viewBox="0 0 59 59" fill="none" xmlns="http://www.w3.org/2000/svg">
<rect width="58.1778" height="58.1778" rx="29.0889" fill="#FFC473"/>
<path d="M29.1875 13.9777C28.7336 13.7751 28.2866 13.9168 27.999 14.2149C27.7197 14.5044 27.58 14.9464 27.6779 15.3919C27.8325 16.0952 27.9142 16.8269 27.9142 17.5785C27.9142 19.2944 27.4893 20.4962 26.7582 21.4925C26.0149 22.5052 24.9391 23.3298 23.5807 24.2601C23.5593 24.2747 23.5394 24.2914 23.5213 24.31L23.3568 24.4788C20.4423 26.3952 18.5117 29.732 18.5117 33.528C18.5117 39.4739 23.2476 44.2939 29.0895 44.2939C34.9314 44.2939 39.6673 39.4739 39.6673 33.528C39.6673 31.7822 39.2587 30.1324 38.5333 28.6733C38.4742 28.5546 38.361 28.4737 38.2312 28.4576C38.1015 28.4414 37.9724 28.4922 37.887 28.593C37.7765 28.7234 37.6683 28.852 37.5617 28.9788C36.1853 30.6156 35.0746 31.9364 32.7975 32.5264C32.7006 32.5515 32.6405 32.5328 32.5978 32.5057C32.5475 32.4738 32.4926 32.41 32.4549 32.3081C32.3764 32.0958 32.4101 31.825 32.5709 31.6475C33.7888 30.3036 34.654 28.4793 34.9632 25.8841C35.5423 21.0229 33.3715 15.8447 29.1875 13.9777Z" fill="#FF5A02"/>
</svg>
