<svg width="59" height="59" viewBox="0 0 59 59" fill="none" xmlns="http://www.w3.org/2000/svg">
<rect width="58.1778" height="58.1778" rx="29.0889" fill="#A3D9FF"/>
<path fill-rule="evenodd" clip-rule="evenodd" d="M26.3717 14.9679C27.5601 12.641 30.6192 12.6408 31.8075 14.9679L38.3234 27.7326C40.3617 31.7255 40.0618 36.6579 37.5567 40.3189C33.326 46.5018 24.8534 46.5016 20.6224 40.3189C18.1171 36.6577 17.8172 31.724 19.8558 27.7309L26.3717 14.9679ZM31.3005 31.5984C29.1282 31.5984 27.3673 33.5257 27.3673 35.9032C27.3673 38.2807 29.1282 40.208 31.3005 40.208C33.4727 40.208 35.2337 38.2807 35.2337 35.9032C35.2337 33.5257 33.4727 31.5984 31.3005 31.5984Z" fill="#2B7FFF"/>
</svg>
