<svg width="47" height="47" viewBox="0 0 47 47" fill="none" xmlns="http://www.w3.org/2000/svg">
<rect width="46.0506" height="46.1392" rx="23.0253" fill="#A3D9FF"/>
<path d="M33.991 19.1311C36.1527 21.2928 36.1492 24.801 33.9833 26.9669C33.5577 27.3925 33.0801 27.7347 32.5712 27.9933C30.9611 28.8114 28.7688 31.0037 27.9507 32.6138C27.6921 33.1228 27.3499 33.6003 26.9243 34.0259C24.7584 36.1918 21.2502 36.1953 19.0885 34.0336C18.6558 33.6009 18.3099 33.1143 18.0507 32.5953C17.25 30.9921 15.1039 28.846 13.5007 28.0453C12.9817 27.786 12.495 27.4401 12.0623 27.0074C9.90068 24.8458 9.90411 21.3376 12.07 19.1717C12.4957 18.746 12.9732 18.4039 13.4822 18.1453C15.0923 17.3272 17.2846 15.1349 18.1027 13.5248C18.3612 13.0158 18.7034 12.5383 19.1291 12.1126C21.295 9.94673 24.8032 9.94329 26.9648 12.105C27.3975 12.5376 27.7434 13.0243 28.0027 13.5433C28.8034 15.1465 30.9494 17.2926 32.5527 18.0933C33.0717 18.3525 33.5583 18.6984 33.991 19.1311Z" fill="#3E98FF"/>
</svg>
