<?xml version="1.0" encoding="UTF-8"?>
<svg id="Calque_1" xmlns="http://www.w3.org/2000/svg" version="1.1" viewBox="0 0 510 97">
  <!-- Generator: Adobe Illustrator 30.2.1, SVG Export Plug-In . SVG Version: 2.1.1 Build 1)  -->
  <defs>
    <style>
      .st0 {
        fill: #094f07;
      }
    </style>
  </defs>
  <path class="st0" d="M244.7,52.4v-27.5h3.5v27.5h-3.5ZM256,32.5v2.6h0c1.4-1.9,3.4-3.1,6.3-3.1,4.2,0,6.7,2.3,6.7,6.4v14h-3.1v-13.7c0-2.6-1.7-4-4.5-4s-5.5,2.2-5.5,5.5v12.2h-3.1v-19.9h3.2ZM271.6,35v-2.5h2.9v-6.3h3.1v6.3h3.9v2.5h-3.9v12.9c0,1.4.7,1.8,2,1.8s1.3-.2,1.7-.3h.1v2.7c-.7.2-1.6.3-2.5.3-2.5,0-4.4-1-4.4-3.9v-13.6h-2.9ZM293,52.9c-6.1,0-9.6-4.7-9.6-10.5s3.8-10.5,9.4-10.5,9.2,4.6,9.2,11.2h-15.4c.2,4,2.4,7.1,6.4,7.1s4.8-1.4,5.5-4.1h3c-.9,4.3-4,6.7-8.6,6.7h.1ZM292.8,34.4c-3.7,0-5.7,2.8-6.2,6.4h12c-.2-4-2.2-6.4-5.8-6.4ZM308.1,32.5v3.3h0c1.2-1.9,3.3-3.5,5.9-3.5s.9,0,1.3.2v3h-.1c-.5-.2-.8-.2-1.4-.2-3.1,0-5.8,2.3-5.8,6v11.1h-3.1v-19.9h3.2ZM317,35v-2.5h2.7v-3.2c0-3.4,2-4.7,5.3-4.7s1.2,0,1.6,0v2.7h-1c-2,0-2.7.5-2.7,2.1v3h3.7v2.5h-3.7v17.4h-3.1v-17.4h-2.8ZM344.6,52.6c-2,0-3.1-.9-3.4-3h0c-1.2,1.5-3.2,3.2-6.6,3.2s-6.7-1.8-6.7-5.5,3.7-5.7,8.7-6.4c2.8-.4,4.8-.7,4.8-2.9s-1.6-3.5-4.5-3.5-4.9,1.4-5,4.4h-3c.1-3.9,2.7-6.7,7.9-6.7s7.4,1.6,7.4,6.3v9.5c0,1.6.4,2.5,2.1,2.1h.1v2.3c-.4.2-.9.3-1.7.3h0ZM335.2,50.4c4.2,0,6-3,6-5.4v-3.4c-1,.7-2.9,1.2-4.5,1.5-3.1.6-5.6,1.1-5.6,4s2.1,3.2,4.1,3.2h0ZM357.1,52.9c-5.9,0-9.6-4.7-9.6-10.5s3.7-10.5,9.6-10.5,7.8,2.7,8.5,6.9h-3.2c-.5-2.7-2.3-4.4-5.4-4.4s-6.4,3.5-6.4,7.9,2.2,7.9,6.4,7.9,5.2-1.8,5.4-4.9h3.1c-.4,4.8-3.5,7.5-8.5,7.5h.1ZM377.1,52.9c-6.1,0-9.6-4.7-9.6-10.5s3.8-10.5,9.4-10.5,9.2,4.6,9.2,11.2h-15.4c.2,4,2.4,7.1,6.4,7.1s4.8-1.4,5.5-4.1h3c-.9,4.3-4,6.7-8.6,6.7h.1ZM376.9,34.4c-3.7,0-5.7,2.8-6.2,6.4h12c-.2-4-2.2-6.4-5.8-6.4ZM394,35v-2.5h2.7v-3.2c0-3.4,2-4.7,5.3-4.7s1.2,0,1.6,0v2.7h-1c-2,0-2.7.5-2.7,2.1v3h3.7v2.5h-3.7v17.4h-3.1v-17.4h-2.8ZM414.5,52.9c-5.9,0-9.6-4.7-9.6-10.5s3.7-10.5,9.6-10.5,9.6,4.7,9.6,10.5-3.6,10.5-9.6,10.5ZM414.5,50.3c4.2,0,6.4-3.5,6.4-7.9s-2.2-7.9-6.4-7.9-6.4,3.5-6.4,7.9,2.2,7.9,6.4,7.9ZM430.4,32.5v3.3h0c1.2-1.9,3.3-3.5,5.9-3.5s.9,0,1.3.2v3h-.1c-.5-.2-.8-.2-1.4-.2-3.1,0-5.8,2.3-5.8,6v11.1h-3.1v-19.9h3.2ZM242.8,72v-2.5h2.9v-6.3h3.1v6.3h3.9v2.5h-3.9v12.9c0,1.4.7,1.8,2,1.8s1.3-.2,1.7-.3h.1v2.7c-.7.2-1.6.3-2.5.3-2.5,0-4.4-1-4.4-3.9v-13.6h-2.9ZM259.1,61.9v10.2h0c1.4-1.9,3.4-3.1,6.3-3.1,4.2,0,6.7,2.3,6.7,6.4v14h-3.1v-13.7c0-2.6-1.7-4-4.5-4s-5.5,2.2-5.5,5.5v12.2h-3.1v-27.5h3.2ZM284.8,89.9c-6.1,0-9.6-4.7-9.6-10.5s3.8-10.5,9.4-10.5,9.2,4.6,9.2,11.2h-15.4c.2,4,2.4,7.1,6.4,7.1s4.8-1.4,5.5-4.1h3c-.9,4.3-4,6.7-8.6,6.7h.1ZM284.6,71.4c-3.7,0-5.7,2.8-6.2,6.4h12c-.2-4-2.2-6.4-5.8-6.4ZM303.4,89.4v-27.5h3.5v24.3h14.4v3.2s-17.9,0-17.9,0ZM324.3,89.4v-19.9h3.1v19.9h-3.1ZM324.3,65.7v-3.9h3.1v3.9h-3.1ZM336.6,89.4l-7-19.9h3.4l4.1,12.6c.6,1.8,1.3,4.2,1.3,4.2h0s.7-2.5,1.3-4.2l4.2-12.6h3.2l-7.2,19.9h-3.5.2ZM349.4,89.4v-19.9h3.1v19.9h-3.1ZM349.4,65.7v-3.9h3.1v3.9h-3.1ZM359.9,69.5v2.6h0c1.4-1.9,3.4-3.1,6.3-3.1,4.2,0,6.7,2.3,6.7,6.4v14h-3.1v-13.7c0-2.6-1.7-4-4.5-4s-5.5,2.2-5.5,5.5v12.2h-3.1v-19.9h3.2ZM385.1,96c-5.2,0-8.1-2.1-8.4-5.5h2.9c.3,2.2,2.4,3,5.5,3s5.7-1.7,5.7-5.1v-2.8h0c-1.5,1.9-3,3.1-5.9,3.1-5.2,0-8.7-4.1-8.7-9.9s3.9-9.8,8.5-9.8,4.7,1.1,6.1,3h0v-2.5h3.1v18.8c0,5.2-3.5,7.7-8.7,7.7h-.1ZM384.9,86.1c4.6,0,6-3.2,6-7.4s-1.8-7-6.1-7-5.6,2.9-5.6,7.2,2,7.2,5.7,7.2Z"/>
  <path class="st0" d="M32.2,91.8c-6,0-11.5-1.4-16.5-4.1-4.9-2.8-8.8-6.7-11.6-11.5C1.4,71.3,0,65.8,0,59.9s1.4-11.5,4.1-16.5c2.8-4.9,6.7-8.8,11.6-11.5,4.9-2.8,10.4-4.2,16.5-4.2s11.5,1.4,16.5,4.2c4.9,2.7,8.8,6.6,11.5,11.5,2.8,4.9,4.2,10.4,4.2,16.5s-1.4,11.4-4.2,16.3c-2.7,4.9-6.6,8.7-11.5,11.5-4.9,2.7-10.4,4.1-16.5,4.1ZM32.2,75.3c4.4,0,8-1.4,10.8-4.3,2.9-2.9,4.3-6.6,4.3-11.2s-1.4-8.3-4.3-11.2c-2.8-2.9-6.4-4.3-10.8-4.3s-8,1.4-10.8,4.3c-2.8,2.9-4.2,6.6-4.2,11.2s1.4,8.3,4.2,11.2c2.8,2.9,6.4,4.3,10.8,4.3Z"/>
  <path class="st0" d="M111.2,53.9c0-3.6-.9-6.3-2.7-8.1-1.7-1.9-4.1-2.8-7.2-2.8s-5.6.9-7.4,2.8c-1.8,1.8-2.7,4.5-2.7,8.1v36.2h-16.8V29.4h78.7c3.4,0,6.2,1.1,8.3,3.3,2.2,2.1,3.3,4.9,3.3,8.3v49h-16.8v-36.2c0-3.6-.9-6.3-2.7-8.1-1.7-1.9-4.1-2.8-7.2-2.8s-5.6.9-7.4,2.8c-1.8,1.8-2.7,4.5-2.7,8.1v36.2h-16.8v-36.2h0Z"/>
  <path class="st0" d="M177.7,37.1h17.4v53h-17.4v-53Z"/>
  <path class="st0" d="M174.4,20.8c-2.4-2.4-2.4-6.3,0-8.7.5-.5,1-.8,1.6-1.1,1.8-.9,4.2-3.3,5.1-5.1s.7-1.1,1.1-1.6c2.4-2.4,6.3-2.4,8.7,0,.5.5.9,1,1.2,1.6.9,1.8,3.3,4.2,5,5,.6.3,1.1.7,1.6,1.2,2.4,2.4,2.4,6.3,0,8.7-.5.5-1,.8-1.6,1.1-1.8.9-4.2,3.3-5.1,5.1s-.7,1.1-1.1,1.6c-2.4,2.4-6.3,2.4-8.7,0-.5-.5-.9-1-1.2-1.6-.9-1.8-3.3-4.2-5-5-.6-.3-1.1-.7-1.6-1.2Z"/>
  <rect class="st0" x="222" y="17.4" width="1" height="74"/>
</svg>