<svg width="510" height="97" viewBox="0 0 510 97" fill="none" xmlns="http://www.w3.org/2000/svg">
<path d="M244.658 52.3993V24.8573H248.125V52.3993H244.658ZM256.004 32.4843V35.1037H256.081C257.506 33.2162 259.509 32.022 262.398 32.022C266.558 32.022 269.101 34.2947 269.101 38.4164V52.3993H265.98V38.6861C265.98 36.1052 264.286 34.6414 261.474 34.6414C258.315 34.6414 256.004 36.8756 256.004 40.1498V52.3993H252.883V32.4843H256.004ZM271.587 35.0266V32.4843H274.476V26.2055H277.596V32.4843H281.448V35.0266H277.596V47.9695C277.596 49.3562 278.328 49.8184 279.599 49.8184C280.216 49.8184 280.909 49.6643 281.256 49.5488H281.371V52.2452C280.64 52.3993 279.792 52.5149 278.868 52.5149C276.325 52.5149 274.476 51.4748 274.476 48.6628V35.0266H271.587ZM292.995 52.9386C286.909 52.9386 283.365 48.2391 283.365 42.461C283.365 36.683 287.14 31.9835 292.803 31.9835C298.773 31.9835 301.97 36.606 301.97 43.1929H286.562C286.793 47.2376 288.989 50.3192 292.995 50.3192C295.884 50.3192 297.81 48.9325 298.504 46.236H301.547C300.622 50.5118 297.502 52.9386 292.995 52.9386ZM292.803 34.4488C289.105 34.4488 287.102 37.2223 286.639 40.8432H298.619C298.427 36.8756 296.385 34.4488 292.803 34.4488ZM308.142 32.4843V35.797H308.219C309.413 33.871 311.493 32.2532 314.151 32.2532C314.729 32.2532 315.037 32.3302 315.422 32.4843V35.4889H315.306C314.844 35.3348 314.536 35.2963 313.92 35.2963C310.838 35.2963 308.142 37.6075 308.142 41.344V52.3993H305.021V32.4843H308.142ZM316.954 35.0266V32.4843H319.689V29.2871C319.689 25.8588 321.653 24.6261 324.966 24.6261C325.621 24.6261 326.122 24.6646 326.546 24.7032V27.3611C326.006 27.3226 325.852 27.3226 325.544 27.3226C323.541 27.3226 322.809 27.8233 322.809 29.4412V32.4843H326.507V35.0266H322.809V52.3993H319.689V35.0266H316.954ZM344.623 52.5919C342.581 52.5919 341.503 51.6674 341.195 49.6258H341.156C339.962 51.1666 337.92 52.7845 334.531 52.7845C330.756 52.7845 327.79 51.0126 327.79 47.2376C327.79 42.5381 331.488 41.5751 336.457 40.8047C339.269 40.3809 341.233 40.1113 341.233 37.9542C341.233 35.72 339.615 34.4488 336.765 34.4488C333.529 34.4488 331.911 35.8355 331.796 38.8401H328.791C328.907 34.9881 331.449 32.0991 336.726 32.0991C340.964 32.0991 344.084 33.6784 344.084 38.4164V47.8924C344.084 49.5103 344.469 50.3962 346.202 50.011H346.318V52.2837C345.933 52.4378 345.432 52.5919 344.623 52.5919ZM335.224 50.3962C339.384 50.3962 341.272 47.3531 341.272 45.0419V41.6521C340.232 42.307 338.421 42.8077 336.726 43.1159C333.606 43.6937 331.102 44.233 331.102 47.1605C331.102 49.8184 333.182 50.3962 335.224 50.3962ZM357.133 52.9386C351.201 52.9386 347.503 48.2391 347.503 42.461C347.503 36.683 351.201 31.9835 357.133 31.9835C361.833 31.9835 364.953 34.6799 365.646 38.9172H362.487C362.025 36.2208 360.138 34.5644 357.133 34.5644C352.896 34.5644 350.7 38.0697 350.7 42.461C350.7 46.8524 352.896 50.3192 357.133 50.3192C360.369 50.3192 362.295 48.4702 362.564 45.3886H365.646C365.222 50.1651 362.102 52.9386 357.133 52.9386ZM377.108 52.9386C371.022 52.9386 367.478 48.2391 367.478 42.461C367.478 36.683 371.253 31.9835 376.915 31.9835C382.886 31.9835 386.083 36.606 386.083 43.1929H370.675C370.906 47.2376 373.102 50.3192 377.108 50.3192C379.997 50.3192 381.923 48.9325 382.616 46.236H385.659C384.735 50.5118 381.615 52.9386 377.108 52.9386ZM376.915 34.4488C373.217 34.4488 371.214 37.2223 370.752 40.8432H382.732C382.539 36.8756 380.498 34.4488 376.915 34.4488ZM393.995 35.0266V32.4843H396.73V29.2871C396.73 25.8588 398.694 24.6261 402.007 24.6261C402.662 24.6261 403.162 24.6646 403.586 24.7032V27.3611C403.047 27.3226 402.893 27.3226 402.585 27.3226C400.582 27.3226 399.85 27.8233 399.85 29.4412V32.4843H403.548V35.0266H399.85V52.3993H396.73V35.0266H393.995ZM414.537 52.9386C408.605 52.9386 404.907 48.2391 404.907 42.461C404.907 36.683 408.605 31.9835 414.537 31.9835C420.508 31.9835 424.129 36.683 424.129 42.461C424.129 48.2391 420.508 52.9386 414.537 52.9386ZM414.537 50.3192C418.775 50.3192 420.932 46.8524 420.932 42.461C420.932 38.0697 418.775 34.5644 414.537 34.5644C410.3 34.5644 408.105 38.0697 408.105 42.461C408.105 46.8524 410.3 50.3192 414.537 50.3192ZM430.361 32.4843V35.797H430.438C431.632 33.871 433.712 32.2532 436.37 32.2532C436.948 32.2532 437.256 32.3302 437.641 32.4843V35.4889H437.526C437.063 35.3348 436.755 35.2963 436.139 35.2963C433.057 35.2963 430.361 37.6075 430.361 41.344V52.3993H427.241V32.4843H430.361ZM242.847 72.0266V69.4843H245.736V63.2055H248.857V69.4843H252.709V72.0266H248.857V84.9695C248.857 86.3562 249.589 86.8184 250.86 86.8184C251.476 86.8184 252.169 86.6643 252.516 86.5488H252.632V89.2452C251.9 89.3993 251.052 89.5149 250.128 89.5149C247.585 89.5149 245.736 88.4748 245.736 85.6628V72.0266H242.847ZM259.051 61.8573V72.1037H259.128C260.553 70.2162 262.556 69.022 265.445 69.022C269.605 69.022 272.148 71.2947 272.148 75.4164V89.3993H269.027V75.6861C269.027 73.1052 267.333 71.6414 264.521 71.6414C261.362 71.6414 259.051 73.8756 259.051 77.1498V89.3993H255.931V61.8573H259.051ZM284.795 89.9386C278.708 89.9386 275.165 85.2391 275.165 79.461C275.165 73.683 278.939 68.9835 284.602 68.9835C290.573 68.9835 293.77 73.606 293.77 80.1929H278.362C278.593 84.2376 280.788 87.3192 284.795 87.3192C287.684 87.3192 289.61 85.9325 290.303 83.236H293.346C292.422 87.5118 289.301 89.9386 284.795 89.9386ZM284.602 71.4488C280.904 71.4488 278.901 74.2223 278.439 77.8432H290.419C290.226 73.8756 288.184 71.4488 284.602 71.4488ZM303.415 89.3993V61.8573H306.881V86.2021H321.327V89.3993H303.415ZM324.282 89.3993V69.4843H327.402V89.3993H324.282ZM324.282 65.7093V61.8573H327.402V65.7093H324.282ZM336.585 89.3993L329.613 69.4843H332.964L337.086 82.1189C337.664 83.8909 338.396 86.3177 338.396 86.3177H338.473C338.473 86.3177 339.205 83.8524 339.782 82.1189L343.981 69.4843H347.217L340.052 89.3993H336.585ZM349.41 89.3993V69.4843H352.53V89.3993H349.41ZM349.41 65.7093V61.8573H352.53V65.7093H349.41ZM359.903 69.4843V72.1037H359.98C361.406 70.2162 363.409 69.022 366.298 69.022C370.458 69.022 373 71.2947 373 75.4164V89.3993H369.88V75.6861C369.88 73.1052 368.185 71.6414 365.373 71.6414C362.214 71.6414 359.903 73.8756 359.903 77.1498V89.3993H356.783V69.4843H359.903ZM385.069 96.0248C379.908 96.0248 376.98 93.9447 376.633 90.5164H379.522C379.831 92.712 381.911 93.5595 384.992 93.5595C388.652 93.5595 390.693 91.9031 390.693 88.4363V85.6243H390.616C389.152 87.5118 387.573 88.7059 384.723 88.7059C379.561 88.7059 376.017 84.5842 376.017 78.8447C376.017 72.6429 379.908 69.022 384.53 69.022C387.419 69.022 389.268 70.1391 390.616 72.0266H390.693V69.4843H393.813V88.3207C393.813 93.5595 390.347 96.0248 385.069 96.0248ZM384.877 86.0865C389.461 86.0865 390.924 82.8894 390.924 78.6906C390.924 74.3378 389.075 71.6414 384.838 71.6414C381.102 71.6414 379.214 74.569 379.214 78.8832C379.214 83.236 381.179 86.0865 384.877 86.0865Z" fill="white"/>
<path d="M32.1987 91.8465C26.1664 91.8465 20.6824 90.4755 15.7468 87.7335C10.8113 84.9132 6.93331 81.0744 4.11298 76.2172C1.37099 71.2816 0 65.8368 0 59.8828C0 53.8504 1.37099 48.3664 4.11298 43.4309C6.93331 38.4953 10.8113 34.6565 15.7468 31.9145C20.6824 29.0942 26.1664 27.684 32.1987 27.684C38.2311 27.684 43.7151 29.0942 48.6507 31.9145C53.5862 34.6565 57.425 38.4953 60.167 43.4309C62.9873 48.3664 64.3975 53.8504 64.3975 59.8828C64.3975 65.8368 62.9873 71.2816 60.167 76.2172C57.425 81.0744 53.5862 84.9132 48.6507 87.7335C43.7151 90.4755 38.2311 91.8465 32.1987 91.8465ZM32.1987 75.2771C36.5859 75.2771 40.1897 73.8277 43.01 70.929C45.9087 68.0304 47.358 64.3091 47.358 59.7653C47.358 55.2214 45.9087 51.5001 43.01 48.6015C40.1897 45.7028 36.5859 44.2534 32.1987 44.2534C27.8116 44.2534 24.2078 45.7028 21.3875 48.6015C18.5672 51.5001 17.157 55.2214 17.157 59.7653C17.157 64.3091 18.5672 68.0304 21.3875 70.929C24.2078 73.8277 27.8116 75.2771 32.1987 75.2771Z" fill="white"/>
<path d="M111.215 53.8896C111.215 50.2858 110.314 47.583 108.512 45.7811C106.788 43.9009 104.399 42.9608 101.344 42.9608C98.2099 42.9608 95.7421 43.9009 93.9403 45.7811C92.1384 47.583 91.2374 50.2858 91.2374 53.8896V90.0838H74.433V29.4467H153.167C156.614 29.4467 159.395 30.5435 161.511 32.7371C163.704 34.8524 164.801 37.6335 164.801 41.0806V90.0838H147.997V53.8896C147.997 50.2858 147.096 47.583 145.294 45.7811C143.57 43.9009 141.181 42.9608 138.125 42.9608C134.992 42.9608 132.524 43.9009 130.722 45.7811C128.92 47.583 128.019 50.2858 128.019 53.8896V90.0838H111.215V53.8896Z" fill="white"/>
<path d="M177.716 37.0851H195.109V90.0838H177.716V37.0851Z" fill="white"/>
<path d="M174.378 20.8173C171.98 18.4196 171.978 14.5348 174.373 12.1402C174.843 11.6696 175.371 11.2915 175.934 11.0061C177.716 10.103 180.14 7.67928 181.043 5.89772C181.328 5.33459 181.706 4.8064 182.177 4.33579C184.572 1.94121 188.456 1.9437 190.854 4.34136C191.334 4.82128 191.718 5.36079 192.006 5.93599C192.895 7.71282 195.276 10.0932 197.053 10.9828C197.628 11.2707 198.167 11.6547 198.647 12.1346C201.045 14.5323 201.047 18.4172 198.653 20.8117C198.182 21.2824 197.654 21.6604 197.091 21.9458C195.309 22.8489 192.886 25.2726 191.983 27.0542C191.697 27.6173 191.319 28.1455 190.848 28.6161C188.454 31.0107 184.569 31.0082 182.171 28.6106C181.691 28.1306 181.307 27.5911 181.019 27.0159C180.13 25.2391 177.75 22.8587 175.973 21.9692C175.398 21.6812 174.858 21.2972 174.378 20.8173Z" fill="white"/>
<line x1="222.5" y1="17.3993" x2="222.5" y2="91.3993" stroke="white"/>
</svg>
