<svg width="47" height="47" viewBox="0 0 47 47" fill="none" xmlns="http://www.w3.org/2000/svg">
<rect width="46.0506" height="46.1392" rx="23.0253" fill="#ECC5FE"/>
<path d="M22.8705 35.5819C21.2103 35.5689 19.7741 34.2475 19.035 32.3055C17.1259 33.1279 15.1765 33.017 14.0111 31.8336C12.8503 30.6543 12.7681 28.7144 13.6098 26.8245C11.6401 26.0612 10.3113 24.5932 10.324 22.9185C10.3373 21.2448 11.6881 19.7995 13.668 19.066C12.8543 17.1629 12.9671 15.2234 14.1465 14.0617C15.3303 12.8961 17.2812 12.8163 19.178 13.6684C19.9465 11.7372 21.4023 10.4373 23.063 10.4498C24.723 10.4628 26.1584 11.7837 26.8975 13.7252C28.8057 12.904 30.7534 13.0146 31.9185 14.1971C33.0798 15.3763 33.1635 17.3171 32.3217 19.2072C34.2905 19.9707 35.6196 21.4373 35.6075 23.1112C35.5947 24.7857 34.2433 26.2331 32.2626 26.9667C33.0746 28.8687 32.9607 30.807 31.7821 31.9681C30.5995 33.1324 28.6514 33.2137 26.7564 32.3643C25.9877 34.2951 24.5309 35.5943 22.8705 35.5819Z" fill="#B972FF"/>
</svg>
