<svg width="59" height="59" viewBox="0 0 59 59" fill="none" xmlns="http://www.w3.org/2000/svg">
<rect width="58.0257" height="58.1778" rx="29.0128" fill="#E9CBFB"/>
<path d="M18.0195 16.0021C21.7532 14.4448 30.8433 14.4398 36.6733 19.8971C42.2098 25.08 42.4787 31.3117 39.5841 35.2458C39.3007 35.631 39.2014 36.1338 39.332 36.5934C39.8632 38.4621 40.1987 41.0055 40.3086 42.1694C40.4133 43.1907 39.6967 44.1188 38.7086 44.2419C37.933 44.3382 37.5023 43.5001 37.4413 42.7209C36.9147 35.9911 35.5778 31.3526 32.7303 27.7176C31.9138 26.6753 30.5761 27.5567 31.0058 28.8091C31.9987 31.7027 33.0608 34.9203 33.6541 37.3107C33.8345 38.0375 33.335 38.7496 32.5862 38.7525C30.1047 38.7621 27.526 37.7941 25.4434 35.8445C22.797 33.3671 21.5935 29.9077 21.9515 26.7232L21.9296 26.5039C21.9272 26.4799 21.9268 26.4556 21.929 26.4321C22.0699 24.9239 22.1202 23.6715 21.8462 22.5176C21.5766 21.3825 20.9856 20.3159 19.7895 19.1962C19.2658 18.706 18.7077 18.2828 18.1278 17.9265C17.7605 17.7007 17.5333 17.319 17.4938 16.9448C17.4533 16.5597 17.615 16.1712 18.0195 16.0021Z" fill="#CC77FE"/>
</svg>
