<svg width="59" height="59" viewBox="0 0 59 59" fill="none" xmlns="http://www.w3.org/2000/svg">
<rect width="58.1778" height="58.1778" rx="29.0889" fill="#F1FFA2"/>
<path d="M29.0892 10.5781C29.8025 10.5781 30.3807 11.1563 30.3807 11.8696V13.5916C30.3807 14.3048 29.8025 14.883 29.0892 14.883C28.376 14.883 27.7978 14.3048 27.7978 13.5916V11.8696C27.7978 11.1563 28.376 10.5781 29.0892 10.5781Z" fill="#FAD900"/>
<path d="M29.0892 19.1879C23.6209 19.1879 19.1879 23.6209 19.1879 29.0892C19.1879 34.5576 23.6209 38.9905 29.0892 38.9905C34.5576 38.9905 38.9905 34.5576 38.9905 29.0892C38.9905 23.6209 34.5576 19.1879 29.0892 19.1879Z" fill="#FAD900"/>
<path d="M17.8263 15.9999C17.322 15.4956 16.5043 15.4956 15.9999 15.9999C15.4956 16.5043 15.4956 17.322 15.9999 17.8264L17.2175 19.044C17.7219 19.5483 18.5396 19.5483 19.044 19.044C19.5483 18.5396 19.5483 17.7219 19.044 17.2176L17.8263 15.9999Z" fill="#FAD900"/>
<path d="M47.6003 29.0892C47.6003 29.8025 47.0221 30.3807 46.3089 30.3807H44.5869C43.8736 30.3807 43.2954 29.8025 43.2954 29.0892C43.2954 28.376 43.8736 27.7978 44.5869 27.7978H46.3089C47.0221 27.7978 47.6003 28.376 47.6003 29.0892Z" fill="#FAD900"/>
<path d="M42.1785 17.8263C42.6829 17.322 42.6829 16.5043 42.1785 15.9999C41.6742 15.4956 40.8565 15.4956 40.3521 15.9999L39.1345 17.2175C38.6301 17.7219 38.6301 18.5396 39.1345 19.044C39.6388 19.5483 40.4566 19.5483 40.9609 19.044L42.1785 17.8263Z" fill="#FAD900"/>
<path d="M29.0892 43.2954C29.8025 43.2954 30.3807 43.8736 30.3807 44.5869V46.3089C30.3807 47.0221 29.8025 47.6003 29.0892 47.6003C28.376 47.6003 27.7978 47.0221 27.7978 46.3089V44.5869C27.7978 43.8736 28.376 43.2954 29.0892 43.2954Z" fill="#FAD900"/>
<path d="M40.961 39.1345C40.4567 38.6302 39.639 38.6302 39.1346 39.1345C38.6303 39.6389 38.6303 40.4566 39.1346 40.9609L40.3522 42.1786C40.8566 42.6829 41.6743 42.6829 42.1786 42.1786C42.683 41.6742 42.683 40.8565 42.1786 40.3521L40.961 39.1345Z" fill="#FAD900"/>
<path d="M14.883 29.0892C14.883 29.8025 14.3048 30.3807 13.5916 30.3807H11.8696C11.1563 30.3807 10.5781 29.8025 10.5781 29.0892C10.5781 28.376 11.1563 27.7978 11.8696 27.7978H13.5916C14.3048 27.7978 14.883 28.376 14.883 29.0892Z" fill="#FAD900"/>
<path d="M19.0438 40.9609C19.5482 40.4566 19.5482 39.6389 19.0438 39.1345C18.5395 38.6302 17.7218 38.6302 17.2174 39.1345L15.9998 40.3521C15.4955 40.8565 15.4955 41.6742 15.9998 42.1785C16.5042 42.6829 17.3219 42.6829 17.8262 42.1785L19.0438 40.9609Z" fill="#FAD900"/>
</svg>
