<svg width="47" height="47" viewBox="0 0 47 47" fill="none" xmlns="http://www.w3.org/2000/svg">
<rect width="46.0506" height="46.1392" rx="23.0253" fill="#72FFB9"/>
<path d="M33.5635 28.0377C33.5635 31.0948 31.0804 33.573 28.0174 33.573C27.4154 33.573 26.8358 33.4773 26.293 33.3002C24.576 32.7402 21.4757 32.7402 19.7586 33.3003C19.2159 33.4773 18.6363 33.573 18.0343 33.573C14.9713 33.573 12.4882 31.0948 12.4882 28.0377C12.4882 27.4258 12.5877 26.8371 12.7714 26.2868C13.3389 24.587 13.3389 21.552 12.7714 19.8521C12.5877 19.3018 12.4882 18.7131 12.4882 18.1012C12.4882 15.0442 14.9713 12.5659 18.0343 12.5659C18.6363 12.5659 19.2159 12.6616 19.7587 12.8387C21.4757 13.3987 24.576 13.3987 26.293 12.8387C26.8358 12.6616 27.4153 12.5659 28.0173 12.5659C31.0804 12.5659 33.5635 15.0441 33.5635 18.1012C33.5635 18.7131 33.464 19.3018 33.2803 19.8521C32.7128 21.552 32.7128 24.587 33.2803 26.2868C33.464 26.8371 33.5635 27.4258 33.5635 28.0377Z" fill="#05DF72"/>
</svg>
