<svg width="105" height="105" viewBox="0 0 105 105" fill="none" xmlns="http://www.w3.org/2000/svg">
<path d="M52.0796 104.316C45.1884 104.264 39.2284 98.7809 36.1603 90.7211C28.2359 94.1342 20.146 93.6742 15.3084 88.7624C10.4881 83.8674 10.1383 75.8112 13.6329 67.9658C5.46178 64.796 -0.0527424 58.7074 0.000136113 51.7589C0.0532641 44.81 5.66115 38.8081 13.8802 35.7636C10.505 27.8651 10.9784 19.8142 15.8735 14.993C20.7851 10.1564 28.8794 9.81969 36.7499 13.3523C39.9404 5.34005 45.9833 -0.051966 52.8746 0.000161308C59.7664 0.0528933 65.7276 5.53685 68.7959 13.5975C76.7166 10.1892 84.8005 10.6498 89.636 15.5591C94.4565 20.4536 94.8082 28.5095 91.3145 36.3547C99.4843 39.5248 104.997 45.6117 104.944 52.5596C104.891 59.5071 99.2867 65.5099 91.0701 68.5549C94.4424 76.4514 93.9683 84.4997 89.0749 89.3196C84.1652 94.1548 76.0743 94.493 68.2063 90.9644C65.0155 98.9771 58.9713 104.369 52.0796 104.316Z" fill="#A3D9FF"/>
</svg>
