<svg width="160" height="159" viewBox="0 0 160 159" fill="none" xmlns="http://www.w3.org/2000/svg">
<path d="M79.1205 158.479C68.6507 158.4 59.5955 150.07 54.9344 137.825C42.8955 143.01 30.6054 142.312 23.256 134.85C15.9319 127.413 15.4004 115.173 20.7105 103.253C8.29695 98.438 -0.0803588 89.1892 8.93377e-05 78.6329C0.0807384 68.0768 8.5981 58.9576 21.0833 54.3319C15.9558 42.3328 16.6744 30.1021 24.111 22.7779C31.5735 15.4286 43.8727 14.9184 55.8311 20.2871C60.6781 8.11344 69.8588 -0.0792318 80.3292 0.000562095C90.7992 0.0807249 99.8552 8.41152 104.516 20.6572C116.55 15.4799 128.831 16.1801 136.177 23.6388C143.5 31.0744 144.033 43.3124 138.725 55.2304C151.137 60.0462 159.513 69.2928 159.433 79.8479C159.353 90.4037 150.836 99.5238 138.352 104.15C143.475 116.146 142.755 128.373 135.32 135.695C127.862 143.041 115.572 143.554 103.62 138.195C98.7724 150.368 89.5903 158.559 79.1205 158.479Z" fill="#094F07"/>
</svg>
