<svg width="104" height="104" viewBox="0 0 104 104" fill="none" xmlns="http://www.w3.org/2000/svg">
<path d="M67.6306 96.3919C58.7819 105.241 44.4212 105.227 35.5552 96.3605C33.8127 94.618 32.4122 92.6633 31.3536 90.5799C28.0047 83.9889 19.0307 75.0149 12.4396 71.666C10.3562 70.6074 8.40151 69.2069 6.65904 67.4644C-2.20701 58.5983 -2.22106 44.2377 6.62766 35.389C8.39882 33.6178 10.3908 32.2018 12.5154 31.1407C19.0782 27.863 27.8631 19.0781 31.1408 12.5152C32.2019 10.3907 33.618 8.39866 35.3891 6.6275C44.2378 -2.22121 58.5985 -2.20717 67.4645 6.65888C69.207 8.40138 70.6076 10.3561 71.6662 12.4395C75.015 19.0306 83.989 28.0045 90.58 31.3534C92.6634 32.4119 94.6182 33.8125 96.3607 35.555C105.227 44.421 105.241 58.7817 96.392 67.6304C94.6209 69.4016 92.6288 70.8177 90.5042 71.8788C83.9414 75.1564 75.1566 83.9413 71.8789 90.5041C70.8179 92.6287 69.4018 94.6207 67.6306 96.3919Z" fill="#71DC5B"/>
</svg>
