<svg width="138" height="142" viewBox="0 0 138 142" fill="none" xmlns="http://www.w3.org/2000/svg">
<path d="M36.3625 142C16.28 142 -1.51524e-05 125.27 -1.33481e-05 104.632C-1.29935e-05 100.576 0.628854 96.6704 1.79178 93.0136C5.47086 81.4447 5.47086 60.5553 1.79179 48.9864C0.628858 45.3296 -7.8224e-06 41.4245 -7.4678e-06 37.3684C-5.66357e-06 16.7304 16.28 -8.32462e-08 36.3625 1.67242e-06C40.3822 2.02383e-06 44.2496 0.670355 47.8645 1.90812C59.0312 5.73159 78.9688 5.7316 90.1355 1.90812C93.7505 0.670359 97.6178 7.02753e-06 101.638 7.37894e-06C121.72 9.13461e-06 138 16.7304 138 37.3684C138 41.4245 137.371 45.3297 136.208 48.9866C132.529 60.5554 132.529 81.4446 136.208 93.0134C137.371 96.6703 138 100.575 138 104.632C138 125.27 121.72 142 101.638 142C97.6178 142 93.7503 141.33 90.1353 140.092C78.9687 136.268 59.0313 136.268 47.8647 140.092C44.2497 141.33 40.3822 142 36.3625 142Z" fill="#094F07"/>
</svg>
